NewsreaderText-Light.ufo
<glyph name="exclam" format="2">
	<unicode hex="0021"/>
	<advance width="491.9333333333"/>
	<outline>
		<contour>
			<point x="306.0266666667" y="1318.3733333333" type="line" smooth="yes"/>
			<point x="306.4" y="1343.24"/>
			<point x="281.9466666667" y="1353.7333333333"/>
			<point x="246.84" y="1353.7333333333" type="curve" smooth="yes"/>
			<point x="211.7333333333" y="1353.7333333333"/>
			<point x="186.6533333333" y="1343.24"/>
			<point x="187.0266666667" y="1318.3733333333" type="curve" smooth="yes"/>
			<point x="188.52" y="1244.24" type="line" smooth="yes"/>
			<point x="189.64" y="1174.4133333333"/>
			<point x="215.3733333333" y="728.5733333333"/>
			<point x="223.7333333333" y="396" type="curve"/>
			<point x="267.44" y="396" type="line"/>
			<point x="275.8" y="728.5733333333"/>
			<point x="303.4133333333" y="1176.2933333333"/>
			<point x="304.5333333333" y="1244.24" type="curve" smooth="yes"/>
		</contour>
		<contour>
			<point x="246.0933333333" y="174.4933333333" type="curve" smooth="yes"/>
			<point x="191.76" y="174.4933333333"/>
			<point x="151.4133333333" y="132.1466666667"/>
			<point x="151.4133333333" y="79.9333333333" type="curve" smooth="yes"/>
			<point x="151.4133333333" y="27.72"/>
			<point x="191.76" y="-14.6266666667"/>
			<point x="246.0933333333" y="-14.6266666667" type="curve" smooth="yes"/>
			<point x="300.4266666667" y="-14.6266666667"/>
			<point x="340.7733333333" y="27.72"/>
			<point x="340.7733333333" y="79.9333333333" type="curve" smooth="yes"/>
			<point x="340.7733333333" y="132.1466666667"/>
			<point x="300.4266666667" y="174.4933333333"/>
		</contour>
	</outline>
</glyph>
<glyph name="ampersand" format="2">
	<unicode hex="0026"/>
	<advance width="1377.4666666667"/>
	<outline>
		<contour>
			<point x="536.9333333333" y="733.6666666667" type="line"/>
			<point x="774.28" y="868.0133333333"/>
			<point x="857.1733333333" y="982"/>
			<point x="857.1733333333" y="1109.1466666667" type="curve" smooth="yes"/>
			<point x="857.1733333333" y="1243.88"/>
			<point x="760.8133333333" y="1360"/>
			<point x="571.2133333333" y="1360" type="curve" smooth="yes"/>
			<point x="380.8666666667" y="1360"/>
			<point x="261.64" y="1245.7466666667"/>
			<point x="261.64" y="1082.0266666667" type="curve" smooth="yes"/>
			<point x="261.64" y="988.9066666667"/>
			<point x="294.5066666667" y="904.4"/>
			<point x="441.7866666667" y="738" type="curve" smooth="yes"/>
			<point x="1094.4533333333" y="0" type="line"/>
			<point x="1358.8533333333" y="0" type="line"/>
			<point x="1358.8533333333" y="27.6" type="line"/>
			<point x="1166.1066666667" y="69.68" type="line"/>
			<point x="497.2266666667" y="821.1466666667" type="line" smooth="yes"/>
			<point x="382.6666666667" y="949.3333333333"/>
			<point x="349.6533333333" y="1016.8666666667"/>
			<point x="349.6533333333" y="1110.7733333333" type="curve" smooth="yes"/>
			<point x="349.6533333333" y="1233.04"/>
			<point x="440.56" y="1309.4533333333"/>
			<point x="565.3466666667" y="1309.4533333333" type="curve" smooth="yes"/>
			<point x="698" y="1309.4533333333"/>
			<point x="768.9066666667" y="1226.56"/>
			<point x="768.9066666667" y="1103.16" type="curve" smooth="yes"/>
			<point x="768.9066666667" y="978.76"/>
			<point x="697.88" y="881"/>
			<point x="511.0933333333" y="775.8533333333" type="curve"/>
			<point x="470.6133333333" y="755.6133333333" type="line"/>
			<point x="224.28" y="632.88"/>
			<point x="122.76" y="500.6533333333"/>
			<point x="122.76" y="320.2266666667" type="curve" smooth="yes"/>
			<point x="122.76" y="126.8666666667"/>
			<point x="258.8933333333" y="-20"/>
			<point x="498.64" y="-20" type="curve" smooth="yes"/>
			<point x="678.1733333333" y="-20"/>
			<point x="822.92" y="50.1466666667"/>
			<point x="942.5066666667" y="216.36" type="curve"/>
			<point x="961" y="242.8533333333" type="line"/>
			<point x="1039.6266666667" y="359.6133333333"/>
			<point x="1110.8666666667" y="523.76"/>
			<point x="1172.84" y="749.9333333333" type="curve"/>
			<point x="1333.8266666667" y="784.1466666667" type="line"/>
			<point x="1333.8266666667" y="813" type="line"/>
			<point x="931.4" y="813" type="line"/>
			<point x="931.4" y="784.1466666667" type="line"/>
			<point x="1090.04" y="749.9333333333" type="line"/>
			<point x="1052.32" y="541.3466666667"/>
			<point x="995.6933333333" y="393.4266666667"/>
			<point x="927.4266666667" y="288.9066666667" type="curve"/>
			<point x="907.1866666667" y="259.8" type="line"/>
			<point x="807.9466666667" y="122.8133333333"/>
			<point x="680.2933333333" y="63.6666666667"/>
			<point x="536.9866666667" y="63.6666666667" type="curve" smooth="yes"/>
			<point x="341.4133333333" y="63.6666666667"/>
			<point x="225.5066666667" y="163.9466666667"/>
			<point x="225.5066666667" y="342.84" type="curve" smooth="yes"/>
			<point x="225.5066666667" y="496.8666666667"/>
			<point x="290.1333333333" y="604.3866666667"/>
			<point x="488.0666666667" y="711.1733333333" type="curve"/>
		</contour>
	</outline>
</glyph>
<glyph name="quotesingle" format="2">
  <advance width="331"/>
  <unicode hex="0027"/>
  <outline>
    <contour>
      <point x="141.85333333333332" y="903.9866666666667" type="line"/>
      <point x="187.89333333333332" y="903.9866666666667" type="line"/>
      <point x="230.36" y="1297.0133333333333" type="line"/>
      <point x="230.36" y="1340.0" type="line"/>
      <point x="102.01333333333334" y="1340.0" type="line"/>
      <point x="102.01333333333334" y="1297.0133333333333" type="line"/>
    </contour>
  </outline>
</glyph>
<glyph name="parenleft" format="2">
	<unicode hex="0028"/>
	<advance width="518.8133333333"/>
	<outline>
		<contour>
			<point x="189.7466666667" y="572" type="curve" smooth="yes"/>
			<point x="189.7466666667" y="825.5066666667"/>
			<point x="255.9533000227" y="1065.8026133697"/>
			<point x="461.32" y="1395.2666666667" type="curve"/>
			<point x="426.0933333333" y="1419" type="line"/>
			<point x="178.6967961798" y="1075.9539440898"/>
			<point x="86.2533333333" y="876"/>
			<point x="86.2533333333" y="572" type="curve" smooth="yes"/>
			<point x="86.2533333333" y="268"/>
			<point x="178.6967961798" y="68.0460559102"/>
			<point x="426.0933333333" y="-275" type="curve"/>
			<point x="461.32" y="-251.2666666667" type="line"/>
			<point x="255.9533000227" y="78.1973866303"/>
			<point x="189.7466666667" y="318.4933333333"/>
		</contour>
	</outline>
</glyph>
<glyph name="parenright" format="2">
	<unicode hex="0029"/>
	<advance width="518.8133333333"/>
	<outline>
		<contour>
			<point x="329.0666666667" y="572" type="curve" smooth="yes"/>
			<point x="329.0666666667" y="318.4933333333"/>
			<point x="262.7466666667" y="78.24"/>
			<point x="57.4933333333" y="-251.2666666667" type="curve"/>
			<point x="92.72" y="-275" type="line"/>
			<point x="340.16" y="68"/>
			<point x="432.56" y="268"/>
			<point x="432.56" y="572" type="curve" smooth="yes"/>
			<point x="432.56" y="876"/>
			<point x="340.16" y="1076"/>
			<point x="92.72" y="1419" type="curve"/>
			<point x="57.4933333333" y="1395.2666666667" type="line"/>
			<point x="262.7466666667" y="1065.76"/>
			<point x="329.0666666667" y="825.5066666667"/>
		</contour>
	</outline>
</glyph>
<glyph name="asterisk" format="2">
	<unicode hex="002A"/>
	<advance width="792.5733333333"/>
	<outline>
		<contour>
			<point x="537.6133333333" y="766.5066666667" type="line"/>
			<point x="460.8533333333" y="1007.2266666667" type="line"/>
			<point x="711.7066666667" y="1042.0666666667" type="line"/>
			<point x="708.3333333333" y="1084.0266666667" type="line"/>
			<point x="454.9866666667" y="1085.76" type="line"/>
			<point x="499.3866666667" y="1335.2266666667" type="line"/>
			<point x="458.8" y="1345.72" type="line"/>
			<point x="378.5733333333" y="1105.24" type="line"/>
			<point x="155.6133333333" y="1224.2533333333" type="line"/>
			<point x="132.76" y="1188.7866666667" type="line"/>
			<point x="336.7466666667" y="1038.6933333333" type="line"/>
			<point x="154.4933333333" y="863.36" type="line"/>
			<point x="181.0933333333" y="830.64" type="line"/>
			<point x="387.8133333333" y="977.3866666667" type="line"/>
			<point x="497.7733333333" y="749.7733333333" type="line"/>
		</contour>
	</outline>
</glyph>
<glyph name="plus" format="2">
  <advance width="1000.0"/>
  <unicode hex="002B"/>
  <outline>
    <contour>
      <point x="470.53333333333336" y="793.0" type="line"/>
      <point x="470.53333333333336" y="79.0" type="line"/>
      <point x="529.4666666666667" y="79.0" type="line"/>
      <point x="529.4666666666667" y="793.0" type="line"/>
    </contour>
    <contour>
      <point x="857.0" y="462.96" type="line"/>
      <point x="143.0" y="462.96" type="line"/>
      <point x="143.0" y="404.02666666666664" type="line"/>
      <point x="857.0" y="404.02666666666664" type="line"/>
    </contour>
  </outline>
</glyph>
<glyph name="comma" format="2">
  <advance width="380.78666666666663"/>
  <unicode hex="002C"/>
  <outline>
    <contour>
      <point x="41.96" y="-278.06666666666666" type="curve"/>
      <point x="73.41333333333333" y="-313.4" type="line"/>
      <point x="221.18666666666667" y="-195.76"/>
      <point x="289.06666666666666" y="-87.04"/>
      <point x="289.06666666666666" y="36.05333333333333" type="curve" smooth="yes"/>
      <point x="289.06666666666666" y="124.64"/>
      <point x="241.34666666666666" y="174.12"/>
      <point x="183.01333333333332" y="174.12" type="curve" smooth="yes"/>
      <point x="126.94666666666666" y="174.12"/>
      <point x="92.22666666666666" y="139.54666666666665"/>
      <point x="92.85333333333334" y="85.97333333333333" type="curve" smooth="yes"/>
      <point x="93.48" y="43.13333333333333"/>
      <point x="199.16" y="38.38666666666667"/>
      <point x="199.16" y="-48.38666666666667" type="curve" smooth="yes"/>
      <point x="199.16" y="-115.50666666666666"/>
      <point x="154.18666666666667" y="-191.34666666666666"/>
    </contour>
  </outline>
</glyph>
<glyph name="hyphen" format="2">
  <advance width="637"/>
  <unicode hex="002D"/>
  <outline>
    <contour>
      <point x="123.25333333333333" y="482.82666666666665" type="line"/>
      <point x="123.25333333333333" y="389.17333333333335" type="line"/>
      <point x="513.4933333333333" y="389.17333333333335" type="line"/>
      <point x="513.4933333333333" y="482.82666666666665" type="line"/>
    </contour>
  </outline>
</glyph>
<glyph name="period" format="2">
	<unicode hex="002E"/>
	<advance width="399.8933333333"/>
	<outline>
		<contour>
			<point x="199.9466666667" y="174.4933333333" type="curve" smooth="yes"/>
			<point x="145.6133333333" y="174.4933333333"/>
			<point x="105.2666666667" y="132.1466666667"/>
			<point x="105.2666666667" y="79.9333333333" type="curve" smooth="yes"/>
			<point x="105.2666666667" y="27.72"/>
			<point x="145.6133333333" y="-14.6266666667"/>
			<point x="199.9466666667" y="-14.6266666667" type="curve" smooth="yes"/>
			<point x="254.28" y="-14.6266666667"/>
			<point x="294.6266666667" y="27.72"/>
			<point x="294.6266666667" y="79.9333333333" type="curve" smooth="yes"/>
			<point x="294.6266666667" y="132.1466666667"/>
			<point x="254.28" y="174.4933333333"/>
		</contour>
	</outline>
</glyph>
<glyph name="slash" format="2">
	<unicode hex="002F"/>
	<advance width="760.1866666667"/>
	<outline>
		<contour>
			<point x="58.76" y="0" type="line"/>
			<point x="140.4266666667" y="0" type="line"/>
			<point x="700.4266666667" y="1340" type="line"/>
			<point x="618.76" y="1340" type="line"/>
		</contour>
	</outline>
</glyph>
<glyph name="zero" format="2">
	<unicode hex="0030"/>
	<advance width="1100"/>
	<outline>
		<contour>
			<point x="553" y="36.0533333333" type="curve" smooth="yes"/>
			<point x="328.1352845528" y="36.0533333333"/>
			<point x="192.3866666667" y="281.4533333333"/>
			<point x="192.3866666667" y="700" type="curve" smooth="yes"/>
			<point x="192.3866666667" y="1079.92"/>
			<point x="325.1437681159" y="1303.9466666667"/>
			<point x="547" y="1303.9466666667" type="curve" smooth="yes"/>
			<point x="770.2423649337" y="1303.9466666667"/>
			<point x="907.24" y="1057.92"/>
			<point x="907.24" y="640" type="curve" smooth="yes"/>
			<point x="907.24" y="259.4533333333"/>
			<point x="773.8606022845" y="36.0533333333"/>
		</contour>
		<contour>
			<point x="550" y="1360" type="curve" smooth="yes"/>
			<point x="270.2666666667" y="1360"/>
			<point x="79.6533333333" y="1080"/>
			<point x="79.6533333333" y="668" type="curve" smooth="yes"/>
			<point x="79.6533333333" y="257"/>
			<point x="270.2666666667" y="-20"/>
			<point x="550" y="-20" type="curve" smooth="yes"/>
			<point x="832.7333333333" y="-20"/>
			<point x="1020.3466666667" y="260"/>
			<point x="1020.3466666667" y="672" type="curve" smooth="yes"/>
			<point x="1020.3466666667" y="1083"/>
			<point x="832.7333333333" y="1360"/>
		</contour>
	</outline>
</glyph>
<glyph name="one" format="2">
  <advance width="1100.0"/>
  <unicode hex="0031"/>
  <outline>
    <contour>
      <point x="575.32" y="67.05333333333333" type="line"/>
      <point x="293.32" y="29.093333333333334" type="line"/>
      <point x="293.32" y="0.0" type="line"/>
      <point x="941.9333333333333" y="0.0" type="line"/>
      <point x="941.9333333333333" y="29.093333333333334" type="line"/>
      <point x="678.44" y="67.05333333333333" type="line"/>
      <point x="678.44" y="1360.0" type="line"/>
      <point x="658.3333333333334" y="1360.0" type="line"/>
      <point x="200.70666666666668" y="1130.44" type="line"/>
      <point x="210.57333333333332" y="1102.0933333333332" type="line"/>
      <point x="607.7866666666666" y="1228.3866666666668" type="line"/>
      <point x="575.32" y="1267.8" type="line"/>
    </contour>
  </outline>
</glyph>
<glyph name="colon" format="2">
	<unicode hex="003A"/>
	<advance width="435.12"/>
	<outline>
		<contour>
			<point x="217.56" y="174.4933333333" type="curve" smooth="yes"/>
			<point x="163.2266666667" y="174.4933333333"/>
			<point x="122.88" y="132.1466666667"/>
			<point x="122.88" y="79.9333333333" type="curve" smooth="yes"/>
			<point x="122.88" y="27.72"/>
			<point x="163.2266666667" y="-14.6266666667"/>
			<point x="217.56" y="-14.6266666667" type="curve" smooth="yes"/>
			<point x="271.8933333333" y="-14.6266666667"/>
			<point x="312.24" y="27.72"/>
			<point x="312.24" y="79.9333333333" type="curve" smooth="yes"/>
			<point x="312.24" y="132.1466666667"/>
			<point x="271.8933333333" y="174.4933333333"/>
		</contour>
		<contour>
			<point x="217.56" y="863" type="curve" smooth="yes"/>
			<point x="163.2266666667" y="863"/>
			<point x="122.88" y="820.6533333333"/>
			<point x="122.88" y="768.44" type="curve" smooth="yes"/>
			<point x="122.88" y="716.2266666667"/>
			<point x="163.2266666667" y="673.88"/>
			<point x="217.56" y="673.88" type="curve" smooth="yes"/>
			<point x="271.8933333333" y="673.88"/>
			<point x="312.24" y="716.2266666667"/>
			<point x="312.24" y="768.44" type="curve" smooth="yes"/>
			<point x="312.24" y="820.6533333333"/>
			<point x="271.8933333333" y="863"/>
		</contour>
	</outline>
</glyph>
<glyph name="semicolon" format="2">
	<unicode hex="003B"/>
	<advance width="485.16"/>
	<outline>
		<contour>
			<point x="104.52" y="-278.0666666667" type="curve"/>
			<point x="135.9733333333" y="-313.4" type="line"/>
			<point x="283.7466666667" y="-195.76"/>
			<point x="351.6266666667" y="-87.04"/>
			<point x="351.6266666667" y="36.0533333333" type="curve" smooth="yes"/>
			<point x="351.6266666667" y="124.64"/>
			<point x="303.9066666667" y="174.12"/>
			<point x="245.5733333333" y="174.12" type="curve" smooth="yes"/>
			<point x="189.5066666667" y="174.12"/>
			<point x="154.7866666667" y="139.5466666667"/>
			<point x="155.4133333333" y="85.9733333333" type="curve" smooth="yes"/>
			<point x="156.04" y="43.1333333333"/>
			<point x="261.72" y="38.3866666667"/>
			<point x="261.72" y="-48.3866666667" type="curve" smooth="yes"/>
			<point x="261.72" y="-115.5066666667"/>
			<point x="216.7466666667" y="-191.3466666667"/>
		</contour>
		<contour>
			<point x="242.1066666667" y="863" type="curve" smooth="yes"/>
			<point x="187.7733333333" y="863"/>
			<point x="147.4266666667" y="820.6533333333"/>
			<point x="147.4266666667" y="768.44" type="curve" smooth="yes"/>
			<point x="147.4266666667" y="716.2266666667"/>
			<point x="187.7733333333" y="673.88"/>
			<point x="242.1066666667" y="673.88" type="curve" smooth="yes"/>
			<point x="296.44" y="673.88"/>
			<point x="336.7866666667" y="716.2266666667"/>
			<point x="336.7866666667" y="768.44" type="curve" smooth="yes"/>
			<point x="336.7866666667" y="820.6533333333"/>
			<point x="296.44" y="863"/>
		</contour>
	</outline>
</glyph>
<glyph name="less" format="2">
  <advance width="1000"/>
  <unicode hex="003C"/>
  <outline>
    <contour>
      <point x="110.05333333333333" y="426.37333333333333" type="line"/>
      <point x="944.6266666666667" y="824.2" type="line"/>
      <point x="944.6266666666667" y="892.0" type="line"/>
      <point x="44.626666666666665" y="460.46666666666664" type="line"/>
      <point x="44.626666666666665" y="410.28" type="line"/>
      <point x="944.6266666666667" y="-20.0" type="line"/>
      <point x="944.6266666666667" y="49.05333333333333" type="line"/>
      <point x="110.05333333333333" y="445.0" type="line"/>
    </contour>
  </outline>
</glyph>
<glyph name="greater" format="2">
	<unicode hex="003E"/>
	<advance width="1000"/>
	<outline>
		<contour>
			<point x="889.9466666667" y="427" type="line"/>
			<point x="889.9466666667" y="445.6266666667" type="line"/>
			<point x="55.3733333333" y="47.8" type="line"/>
			<point x="55.3733333333" y="-20" type="line"/>
			<point x="955.3733333333" y="411.5333333333" type="line"/>
			<point x="955.3733333333" y="461.72" type="line"/>
			<point x="55.3733333333" y="892" type="line"/>
			<point x="55.3733333333" y="822.9466666667" type="line"/>
		</contour>
	</outline>
</glyph>
<glyph name="question" format="2">
	<unicode hex="003F"/>
	<advance width="839.4266666667"/>
	<outline>
		<contour>
			<point x="275.48" y="1360" type="curve" smooth="yes"/>
			<point x="123.3333333333" y="1360"/>
			<point x="58.3733333333" y="1325.1466666667"/>
			<point x="58.3733333333" y="1268.0533333333" type="curve" smooth="yes"/>
			<point x="58.3733333333" y="1232.84"/>
			<point x="88.4250980392" y="1200.36"/>
			<point x="134.6933333333" y="1200.36" type="curve" smooth="yes"/>
			<point x="209.854591195" y="1200.36"/>
			<point x="223.4" y="1284.8266666667"/>
			<point x="357.4133333333" y="1284.8266666667" type="curve" smooth="yes"/>
			<point x="548.0266666667" y="1284.8266666667"/>
			<point x="680.9866666667" y="1170.5333333333"/>
			<point x="680.9866666667" y="978.6" type="curve" smooth="yes"/>
			<point x="680.9866666667" y="819.1066666667"/>
			<point x="567.1466666667" y="713.5733333333"/>
			<point x="278.8533333333" y="733.9466666667" type="curve"/>
			<point x="330.5466666667" y="396" type="line"/>
			<point x="364.1466666667" y="396" type="line"/>
			<point x="364.1466666667" y="716.44" type="line"/>
			<point x="319.32" y="638.5333333333" type="line"/>
			<point x="651.04" y="626.5333333333"/>
			<point x="753.04" y="762.5333333333"/>
			<point x="753.04" y="946.52" type="curve" smooth="yes"/>
			<point x="753.04" y="1190.6933333333"/>
			<point x="540.92" y="1360"/>
		</contour>
		<contour>
			<point x="351.52" y="174.4933333333" type="curve" smooth="yes"/>
			<point x="297.1866666667" y="174.4933333333"/>
			<point x="256.84" y="132.1466666667"/>
			<point x="256.84" y="79.9333333333" type="curve" smooth="yes"/>
			<point x="256.84" y="27.72"/>
			<point x="297.1866666667" y="-14"/>
			<point x="351.52" y="-14" type="curve" smooth="yes"/>
			<point x="406.48" y="-14"/>
			<point x="446.8266666667" y="27.72"/>
			<point x="446.8266666667" y="79.9333333333" type="curve" smooth="yes"/>
			<point x="446.8266666667" y="132.1466666667"/>
			<point x="406.48" y="174.4933333333"/>
		</contour>
	</outline>
</glyph>
<glyph name="at" format="2">
	<unicode hex="0040"/>
	<advance width="1782.9466666667"/>
	<outline>
		<contour>
			<point x="1231.7866666667" y="202.3866666667" type="curve" smooth="yes"/>
			<point x="1496.16" y="202.3866666667"/>
			<point x="1706.6266666667" y="458.68"/>
			<point x="1706.6266666667" y="781.4" type="curve" smooth="yes"/>
			<point x="1706.6266666667" y="1154.28"/>
			<point x="1431.8533333333" y="1419"/>
			<point x="986.6266666667" y="1419" type="curve" smooth="yes"/>
			<point x="466.0533333333" y="1419"/>
			<point x="82.88" y="1031.92"/>
			<point x="82.88" y="497.6266666667" type="curve" smooth="yes"/>
			<point x="82.88" y="11.8533333333"/>
			<point x="429.3066666667" y="-255.3733333333"/>
			<point x="898.0133333333" y="-255.3733333333" type="curve" smooth="yes"/>
			<point x="1129.5866666667" y="-255.3733333333"/>
			<point x="1341.6133333333" y="-183.12"/>
			<point x="1516.6133333333" y="-60.8666666667" type="curve"/>
			<point x="1489.0266666667" y="-17.5466666667" type="line"/>
			<point x="1314.0266666667" y="-138.7866666667"/>
			<point x="1103.2533333333" y="-195.44"/>
			<point x="923.2533333333" y="-195.44" type="curve" smooth="yes"/>
			<point x="478.2133333333" y="-195.44"/>
			<point x="183.12" y="59.6977043159"/>
			<point x="183.12" y="506.9866666667" type="curve" smooth="yes"/>
			<point x="183.12" y="1028.2745612053"/>
			<point x="500.8533333333" y="1361.8133333333"/>
			<point x="983.3866666667" y="1361.8133333333" type="curve" smooth="yes"/>
			<point x="1363.44" y="1361.8133333333"/>
			<point x="1620.0266666667" y="1105.0519220642"/>
			<point x="1620.0266666667" y="751.52" type="curve" smooth="yes"/>
			<point x="1620.0266666667" y="436.9802264151"/>
			<point x="1435.9466666667" y="249.4533333333"/>
			<point x="1248.6266666667" y="249.4533333333" type="curve" smooth="yes"/>
			<point x="1169.7066666667" y="249.4533333333"/>
			<point x="1113.56" y="289.72"/>
			<point x="1113.56" y="389.12" type="curve" smooth="yes"/>
			<point x="1113.56" y="432.8933333333"/>
			<point x="1123.0666666667" y="488.4266666667"/>
			<point x="1149.44" y="567.7866666667" type="curve" smooth="yes"/>
			<point x="1292.8133333333" y="999" type="line"/>
			<point x="1193.44" y="999" type="line"/>
			<point x="1167.44" y="921.76" type="line"/>
			<point x="1109.2533333333" y="743.84" type="line" smooth="yes"/>
			<point x="1004.52" y="426.6533333333"/>
			<point x="801.6933333333" y="272.28"/>
			<point x="714.1733333333" y="272.28" type="curve" smooth="yes"/>
			<point x="650" y="272.28"/>
			<point x="618.3733333333" y="314.44"/>
			<point x="618.3733333333" y="391.2533333333" type="curve" smooth="yes"/>
			<point x="618.3733333333" y="599.16"/>
			<point x="822.6666666667" y="965.4533333333"/>
			<point x="1031.7066666667" y="965.4533333333" type="curve" smooth="yes"/>
			<point x="1085.2266666667" y="965.4533333333"/>
			<point x="1127.8933333333" y="943.9733333333"/>
			<point x="1161.4533333333" y="892.04" type="curve"/>
			<point x="1184.7866666667" y="922.36" type="line"/>
			<point x="1141.9066666667" y="980.7733333333"/>
			<point x="1094.3866666667" y="1010.7733333333"/>
			<point x="1021.2533333333" y="1010.7733333333" type="curve" smooth="yes"/>
			<point x="760.2266666667" y="1010.7733333333"/>
			<point x="506.7733333333" y="633.4533333333"/>
			<point x="506.7733333333" y="385.52" type="curve" smooth="yes"/>
			<point x="506.7733333333" y="268.4266666667"/>
			<point x="558.3466666667" y="199.2533333333"/>
			<point x="671.12" y="199.2533333333" type="curve" smooth="yes"/>
			<point x="766.4933333333" y="199.2533333333"/>
			<point x="893.76" y="270.2533333333"/>
			<point x="1069.3866666667" y="558.8933333333" type="curve"/>
			<point x="1051.3066666667" y="558.8933333333" type="line"/>
			<point x="1033.68" y="491.88" type="line" smooth="yes"/>
			<point x="1024.56" y="457.2666666667"/>
			<point x="1020.1866666667" y="423.7733333333"/>
			<point x="1020.1866666667" y="394.6533333333" type="curve" smooth="yes"/>
			<point x="1020.1866666667" y="272.6666666667"/>
			<point x="1098.16" y="202.3866666667"/>
		</contour>
	</outline>
</glyph>
<glyph name="A" format="2">
	<unicode hex="0041"/>
	<advance width="1363.72"/>
	<outline>
		<contour>
			<point x="367.2933333333" y="533.5866666667" type="line"/>
			<point x="971.8933333333" y="533.5866666667" type="line"/>
			<point x="971.8933333333" y="596.3866666667" type="line"/>
			<point x="367.2933333333" y="596.3866666667" type="line"/>
		</contour>
		<contour>
			<point x="1212.5466666667" y="67.3066666667" type="line"/>
			<point x="691.84" y="1360" type="line"/>
			<point x="661.1333333333" y="1360" type="line"/>
			<point x="155.2933333333" y="66.56" type="line"/>
			<point x="-10.24" y="28.3466666667" type="line"/>
			<point x="-10.24" y="0" type="line"/>
			<point x="392.96" y="0" type="line"/>
			<point x="392.96" y="28.3466666667" type="line"/>
			<point x="224.32" y="66.56" type="line"/>
			<point x="675.4933333333" y="1238.8666666667" type="line"/>
			<point x="632.9333333333" y="1238.8666666667" type="line"/>
			<point x="1099.32" y="66.56" type="line"/>
			<point x="926.9466666667" y="28.3466666667" type="line"/>
			<point x="926.9466666667" y="0" type="line"/>
			<point x="1375.5866666667" y="0" type="line"/>
			<point x="1375.5866666667" y="28.3466666667" type="line"/>
		</contour>
	</outline>
	<anchor name="UCtop" x="669.72" y="1340"/>
	<anchor name="right" x="1298.1866666667" y="0"/>
	<anchor name="bottom" x="666.8133333333" y="0"/>
</glyph>
<glyph name="B" format="2">
	<unicode hex="0042"/>
	<advance width="1180.44"/>
	<outline>
		<contour>
			<point x="309.3066666667" y="1276.08" type="line"/>
			<point x="541.64" y="1276.08" type="line" smooth="yes"/>
			<point x="799.8" y="1276.08"/>
			<point x="897.9333333333" y="1173.8133333333"/>
			<point x="897.9333333333" y="1012.88" type="curve" smooth="yes"/>
			<point x="897.9333333333" y="841.6266666667"/>
			<point x="796.8133333333" y="744.2133333333"/>
			<point x="550.9733333333" y="744.2133333333" type="curve" smooth="yes"/>
			<point x="309.3066666667" y="744.2133333333" type="line"/>
			<point x="307.4266666667" y="680.2933333333" type="line"/>
			<point x="576" y="680.2933333333" type="line" smooth="yes"/>
			<point x="868.56" y="680.2933333333"/>
			<point x="976.96" y="561.0266666667"/>
			<point x="976.96" y="375.2133333333" type="curve" smooth="yes"/>
			<point x="976.96" y="173.9733333333"/>
			<point x="858.8533333333" y="63.92"/>
			<point x="572.64" y="63.92" type="curve" smooth="yes"/>
			<point x="307.8" y="63.92" type="line"/>
			<point x="307.8" y="0" type="line"/>
			<point x="604.5733333333" y="0" type="line" smooth="yes"/>
			<point x="953.3333333333" y="0"/>
			<point x="1089.3066666667" y="164.48"/>
			<point x="1089.3066666667" y="380.1866666667" type="curve" smooth="yes"/>
			<point x="1089.3066666667" y="570.4533333333"/>
			<point x="967.24" y="701.08"/>
			<point x="712.9333333333" y="728.24" type="curve"/>
			<point x="712.44" y="716.3733333333" type="line"/>
			<point x="914.9866666667" y="746.5333333333"/>
			<point x="1004.6666666667" y="872.4133333333"/>
			<point x="1004.6666666667" y="1024" type="curve" smooth="yes"/>
			<point x="1004.6666666667" y="1202.3733333333"/>
			<point x="887.4266666667" y="1340"/>
			<point x="583.4" y="1340" type="curve" smooth="yes"/>
			<point x="307.4266666667" y="1340" type="line"/>
		</contour>
		<contour>
			<point x="76.2266666667" y="0" type="line"/>
			<point x="350.36" y="0" type="line"/>
			<point x="350.36" y="1340" type="line"/>
			<point x="76.2266666667" y="1340" type="line"/>
			<point x="76.2266666667" y="1311.6533333333" type="line"/>
			<point x="243" y="1273.44" type="line"/>
			<point x="243" y="66.56" type="line"/>
			<point x="76.2266666667" y="28.3466666667" type="line"/>
		</contour>
	</outline>
	<anchor name="UCtop" x="595.4266666667" y="1340"/>
	<anchor name="bottom" x="614.2266666667" y="0"/>
</glyph>
<glyph name="C" format="2">
	<unicode hex="0043"/>
	<advance width="1351.5466666667"/>
	<outline>
		<contour>
			<point x="832.2" y="38.04" type="curve" smooth="yes"/>
			<point x="488.0533333333" y="38.04"/>
			<point x="212.9866666667" y="276.3325"/>
			<point x="212.9866666667" y="705.5733333333" type="curve" smooth="yes"/>
			<point x="212.9866666667" y="1084.3117748918"/>
			<point x="435.0666666667" y="1296.8266666667"/>
			<point x="794.1466666667" y="1296.8266666667" type="curve" smooth="yes"/>
			<point x="916.2" y="1296.8266666667"/>
			<point x="1014.7466666667" y="1268.8"/>
			<point x="1150.56" y="1192.5066666667" type="curve"/>
			<point x="1082.36" y="1260.08" type="line"/>
			<point x="1229.9466666667" y="945.4133333333" type="line"/>
			<point x="1262.7866666667" y="951.9066666667" type="line"/>
			<point x="1195.3866666667" y="1390.48" type="line"/>
			<point x="1183.6533333333" y="1390.48" type="line"/>
			<point x="1100.64" y="1311.24" type="line"/>
			<point x="1156.52" y="1307.4533333333" type="line"/>
			<point x="1036.88" y="1343.8533333333"/>
			<point x="946.7066666667" y="1360"/>
			<point x="846.16" y="1360" type="curve" smooth="yes"/>
			<point x="382.4933333333" y="1360"/>
			<point x="97.76" y="1088.0340524781"/>
			<point x="97.76" y="665.52" type="curve" smooth="yes"/>
			<point x="97.76" y="229.4806812652"/>
			<point x="408.6533333333" y="-20"/>
			<point x="831.0933333333" y="-20" type="curve" smooth="yes"/>
			<point x="980.92" y="-20"/>
			<point x="1132.1466666667" y="10.8666666667"/>
			<point x="1226.7866666667" y="54.24" type="curve"/>
			<point x="1266.68" y="335.2" type="line"/>
			<point x="1230.6" y="335.2" type="line"/>
			<point x="1099.7466666667" y="56.1733333333" type="line"/>
			<point x="1157.0266666667" y="111.3466666667" type="line"/>
			<point x="1060.28" y="62.1866666667"/>
			<point x="944.72" y="38.04"/>
		</contour>
	</outline>
	<anchor name="UCtop" x="764.2" y="1340"/>
	<anchor name="bottom" x="769.2666666667" y="0"/>
	<anchor name="right" x="1246.1333333333" y="0"/>
</glyph>
<glyph name="D" format="2">
	<unicode hex="0044"/>
	<advance width="1446.12"/>
	<outline>
		<contour>
			<point x="1230.3866666667" y="686.7466666667" type="curve" smooth="yes"/>
			<point x="1230.3866666667" y="244.8133333333"/>
			<point x="962.6" y="63.92"/>
			<point x="547.5066666667" y="63.92" type="curve" smooth="yes"/>
			<point x="267.28" y="63.92" type="line"/>
			<point x="278.56" y="0" type="line"/>
			<point x="577.1333333333" y="0" type="line" smooth="yes"/>
			<point x="1015.4933333333" y="0"/>
			<point x="1346.7333333333" y="242.4533333333"/>
			<point x="1346.7333333333" y="696.2133333333" type="curve" smooth="yes"/>
			<point x="1346.7333333333" y="1115.8266666667"/>
			<point x="1083.4666666667" y="1340"/>
			<point x="571.3733333333" y="1340" type="curve" smooth="yes"/>
			<point x="278.56" y="1340" type="line"/>
			<point x="267.28" y="1276.08" type="line"/>
			<point x="520.4933333333" y="1276.08" type="line" smooth="yes"/>
			<point x="966.6" y="1276.08"/>
			<point x="1230.3866666667" y="1081.04"/>
		</contour>
		<contour>
			<point x="76.2266666667" y="0" type="line"/>
			<point x="350.36" y="0" type="line"/>
			<point x="350.36" y="1340" type="line"/>
			<point x="76.2266666667" y="1340" type="line"/>
			<point x="76.2266666667" y="1311.6533333333" type="line"/>
			<point x="243" y="1273.44" type="line"/>
			<point x="243" y="66.56" type="line"/>
			<point x="76.2266666667" y="28.3466666667" type="line"/>
		</contour>
	</outline>
	<anchor name="UCtop" x="762.9066666667" y="1340"/>
	<anchor name="bottom" x="763.6533333333" y="0"/>
</glyph>
<glyph name="E" format="2">
	<unicode hex="0045"/>
	<advance width="1201.9066666667"/>
	<outline>
		<contour>
			<point x="841.3866666667" y="967.5066666667" type="line"/>
			<point x="798.0933333333" y="967.5066666667" type="line"/>
			<point x="757.2933333333" y="736.84" type="line"/>
			<point x="299.24" y="731.8266666667" type="line"/>
			<point x="299.24" y="671.6666666667" type="line"/>
			<point x="757.2933333333" y="668.5333333333" type="line"/>
			<point x="798.0933333333" y="436.6133333333" type="line"/>
			<point x="841.3866666667" y="436.6133333333" type="line"/>
			<point x="832.6133333333" y="701.7466666667" type="line"/>
		</contour>
		<contour>
			<point x="1093.76" y="989.5733333333" type="line"/>
			<point x="1038.16" y="1381.48" type="line"/>
			<point x="1025.92" y="1381.48" type="line"/>
			<point x="937.1066666667" y="1340" type="line"/>
			<point x="266.6533333333" y="1340" type="line"/>
			<point x="266.6533333333" y="1276.08" type="line"/>
			<point x="979.3733333333" y="1276.08" type="line"/>
			<point x="922.4933333333" y="1295.8266666667" type="line"/>
			<point x="1061.8" y="983.7066666667" type="line"/>
		</contour>
		<contour>
			<point x="944.2533333333" y="36.04" type="line"/>
			<point x="994.8933333333" y="63.92" type="line"/>
			<point x="266.6533333333" y="63.92" type="line"/>
			<point x="266.6533333333" y="0" type="line"/>
			<point x="960.7466666667" y="0" type="line"/>
			<point x="1050.0533333333" y="-50.8533333333" type="line"/>
			<point x="1061.04" y="-50.8533333333" type="line"/>
			<point x="1136.1733333333" y="349.9466666667" type="line"/>
			<point x="1107.08" y="358.44" type="line"/>
		</contour>
		<contour>
			<point x="76.2266666667" y="0" type="line"/>
			<point x="350.36" y="0" type="line"/>
			<point x="350.36" y="1340" type="line"/>
			<point x="76.2266666667" y="1340" type="line"/>
			<point x="76.2266666667" y="1311.6533333333" type="line"/>
			<point x="243" y="1273.44" type="line"/>
			<point x="243" y="66.56" type="line"/>
			<point x="76.2266666667" y="28.3466666667" type="line"/>
		</contour>
	</outline>
	<anchor name="UCtop" x="620.96" y="1340"/>
	<anchor name="right" x="1060.1466666667" y="0"/>
	<anchor name="bottom" x="644.0666666667" y="0"/>
</glyph>
<glyph name="F" format="2">
	<unicode hex="0046"/>
	<advance width="1091.24"/>
	<outline>
		<contour>
			<point x="837.36" y="937.1333333333" type="line"/>
			<point x="794.0666666667" y="937.1333333333" type="line"/>
			<point x="753.2666666667" y="706.4666666667" type="line"/>
			<point x="301.48" y="701.4533333333" type="line"/>
			<point x="301.48" y="641.2933333333" type="line"/>
			<point x="753.2666666667" y="638.16" type="line"/>
			<point x="794.0666666667" y="406.24" type="line"/>
			<point x="837.36" y="406.24" type="line"/>
			<point x="828.5866666667" y="671.3733333333" type="line"/>
		</contour>
		<contour>
			<point x="982.1333333333" y="1381.48" type="line"/>
			<point x="893.32" y="1340" type="line"/>
			<point x="255.4533333333" y="1340" type="line"/>
			<point x="255.4533333333" y="1276.08" type="line"/>
			<point x="963.5866666667" y="1276.08" type="line"/>
			<point x="877.2133333333" y="1295.8266666667" type="line"/>
			<point x="1016.52" y="983.7066666667" type="line"/>
			<point x="1048.48" y="989.5733333333" type="line"/>
			<point x="992.88" y="1381.48" type="line"/>
		</contour>
		<contour>
			<point x="350.36" y="1340" type="line"/>
			<point x="76.2266666667" y="1340" type="line"/>
			<point x="76.2266666667" y="1311.6533333333" type="line"/>
			<point x="243" y="1273.44" type="line"/>
			<point x="243" y="66.56" type="line"/>
			<point x="76.2266666667" y="28.3466666667" type="line"/>
			<point x="76.2266666667" y="0" type="line"/>
			<point x="517.1333333333" y="0" type="line"/>
			<point x="517.1333333333" y="28.3466666667" type="line"/>
			<point x="350.36" y="66.56" type="line"/>
		</contour>
	</outline>
	<anchor name="UCtop" x="578.96" y="1340"/>
	<anchor name="bottom" x="296.68" y="0"/>
</glyph>
<glyph name="G" format="2">
	<unicode hex="0047"/>
	<advance width="1425.7733333333"/>
	<outline>
		<contour>
			<point x="1241.4933333333" y="140.0266666667" type="line"/>
			<point x="1241.4933333333" y="532.44" type="line"/>
			<point x="1370.12" y="570.6533333333" type="line"/>
			<point x="1370.12" y="599" type="line"/>
			<point x="929.2133333333" y="599" type="line"/>
			<point x="929.2133333333" y="570.6533333333" type="line"/>
			<point x="1134.1333333333" y="530.2" type="line"/>
			<point x="1134.1333333333" y="65.7733333333" type="line"/>
			<point x="1168.3333333333" y="138.5333333333" type="line"/>
			<point x="1109.0933333333" y="77.4133333333"/>
			<point x="954.8266666667" y="36.7866666667"/>
			<point x="826.6" y="36.7866666667" type="curve" smooth="yes"/>
			<point x="481.1866666667" y="37.4133333333"/>
			<point x="214.24" y="275.6666666667"/>
			<point x="214.24" y="712.84" type="curve" smooth="yes"/>
			<point x="214.24" y="1088.32"/>
			<point x="421.92" y="1296.8266666667"/>
			<point x="782.28" y="1296.8266666667" type="curve" smooth="yes"/>
			<point x="916.6533333333" y="1296.8266666667"/>
			<point x="1022.2933333333" y="1262.8266666667"/>
			<point x="1156.24" y="1180.9333333333" type="curve"/>
			<point x="1065.64" y="1268.6666666667" type="line"/>
			<point x="1218.08" y="945.4133333333" type="line"/>
			<point x="1250.92" y="951.9066666667" type="line"/>
			<point x="1183.52" y="1390.48" type="line"/>
			<point x="1171.7866666667" y="1390.48" type="line"/>
			<point x="1087.28" y="1310.4933333333" type="line"/>
			<point x="1147.64" y="1306.7066666667" type="line"/>
			<point x="1030.9866666667" y="1342.7333333333"/>
			<point x="939.32" y="1360"/>
			<point x="834.2933333333" y="1360" type="curve" smooth="yes"/>
			<point x="376.4933333333" y="1360"/>
			<point x="97.76" y="1088.3866666667"/>
			<point x="97.76" y="665.52" type="curve" smooth="yes"/>
			<point x="97.76" y="229.6133333333"/>
			<point x="420.1733333333" y="-20"/>
			<point x="824.8266666667" y="-20" type="curve" smooth="yes"/>
			<point x="996.6933333333" y="-20"/>
			<point x="1157.68" y="19.6266666667"/>
			<point x="1280.4266666667" y="80.7466666667" type="curve"/>
			<point x="1280.4266666667" y="83.2533333333" type="line"/>
		</contour>
	</outline>
	<anchor name="UCtop" x="772.2" y="1340"/>
	<anchor name="bottom" x="772.2" y="0"/>
</glyph>
<glyph name="H" format="2">
	<unicode hex="0048"/>
	<advance width="1498.2133333333"/>
	<outline>
		<contour>
			<point x="350.36" y="66.56" type="line"/>
			<point x="350.36" y="1273.44" type="line"/>
			<point x="517.1333333333" y="1311.6533333333" type="line"/>
			<point x="517.1333333333" y="1340" type="line"/>
			<point x="76.2266666667" y="1340" type="line"/>
			<point x="76.2266666667" y="1311.6533333333" type="line"/>
			<point x="243" y="1273.44" type="line"/>
			<point x="243" y="66.56" type="line"/>
			<point x="76.2266666667" y="28.3466666667" type="line"/>
			<point x="76.2266666667" y="0" type="line"/>
			<point x="517.1333333333" y="0" type="line"/>
			<point x="517.1333333333" y="28.3466666667" type="line"/>
		</contour>
		<contour>
			<point x="1255.2133333333" y="66.56" type="line"/>
			<point x="1255.2133333333" y="1273.44" type="line"/>
			<point x="1421.9866666667" y="1311.6533333333" type="line"/>
			<point x="1421.9866666667" y="1340" type="line"/>
			<point x="981.08" y="1340" type="line"/>
			<point x="981.08" y="1311.6533333333" type="line"/>
			<point x="1147.8533333333" y="1273.44" type="line"/>
			<point x="1147.8533333333" y="66.56" type="line"/>
			<point x="981.08" y="28.3466666667" type="line"/>
			<point x="981.08" y="0" type="line"/>
			<point x="1421.9866666667" y="0" type="line"/>
			<point x="1421.9866666667" y="28.3466666667" type="line"/>
		</contour>
		<contour>
			<point x="275.4266666667" y="654.8" type="line"/>
			<point x="1222.16" y="654.8" type="line"/>
			<point x="1222.16" y="718.72" type="line"/>
			<point x="275.4266666667" y="718.72" type="line"/>
		</contour>
	</outline>
	<anchor name="UCtop" x="748.92" y="1340"/>
	<anchor name="bottom" x="748.92" y="0"/>
</glyph>
<glyph name="I" format="2">
	<unicode hex="0049"/>
	<advance width="593.36"/>
	<outline>
		<contour>
			<point x="517.1333333333" y="28.3466666667" type="line"/>
			<point x="350.36" y="66.56" type="line"/>
			<point x="350.36" y="1273.44" type="line"/>
			<point x="517.1333333333" y="1311.6533333333" type="line"/>
			<point x="517.1333333333" y="1340" type="line"/>
			<point x="76.2266666667" y="1340" type="line"/>
			<point x="76.2266666667" y="1311.6533333333" type="line"/>
			<point x="243" y="1273.44" type="line"/>
			<point x="243" y="66.56" type="line"/>
			<point x="76.2266666667" y="28.3466666667" type="line"/>
			<point x="76.2266666667" y="0" type="line"/>
			<point x="517.1333333333" y="0" type="line"/>
		</contour>
	</outline>
	<anchor name="UCtop" x="296.68" y="1340"/>
	<anchor name="right" x="453.4933333333" y="0"/>
	<anchor name="bottom" x="296.68" y="0"/>
</glyph>
<glyph name="J" format="2">
	<unicode hex="004A"/>
	<advance width="718.6666666667"/>
	<outline>
		<contour>
			<point x="498.52" y="405.56" type="curve" smooth="yes"/>
			<point x="497.4" y="1273.44" type="line"/>
			<point x="663.8" y="1311.6533333333" type="line"/>
			<point x="663.8" y="1340" type="line"/>
			<point x="223.2666666667" y="1340" type="line"/>
			<point x="223.2666666667" y="1311.6533333333" type="line"/>
			<point x="390.04" y="1273.44" type="line"/>
			<point x="390.04" y="321.8133333333" type="line" smooth="yes"/>
			<point x="390.04" y="133.08"/>
			<point x="318.4266666667" y="61.08"/>
			<point x="229.6933333333" y="61.08" type="curve" smooth="yes"/>
			<point x="160.24" y="61.08"/>
			<point x="107.6533333333" y="120.4933333333"/>
			<point x="79.08" y="120.4933333333" type="curve" smooth="yes"/>
			<point x="39.88" y="120.4933333333"/>
			<point x="18.8933333333" y="93.1466666667"/>
			<point x="18.8933333333" y="59.1733333333" type="curve" smooth="yes"/>
			<point x="18.8933333333" y="12.6"/>
			<point x="61.2" y="-16.8666666667"/>
			<point x="124.9866666667" y="-16.8666666667" type="curve" smooth="yes"/>
			<point x="333.76" y="-16.8666666667"/>
			<point x="498.52" y="129.5866666667"/>
		</contour>
	</outline>
	<anchor name="UCtop" x="443.72" y="1340"/>
	<anchor name="bottom" x="328.8133333333" y="0"/>
</glyph>
<glyph name="K" format="2">
	<unicode hex="004B"/>
	<advance width="1356.0933333333"/>
	<outline>
		<contour>
			<point x="1210.8266666667" y="68.0533333333" type="line"/>
			<point x="542.7333333333" y="743.8533333333" type="line"/>
			<point x="528.5333333333" y="691.7466666667" type="line"/>
			<point x="1099.6933333333" y="1273.44" type="line"/>
			<point x="1264.6" y="1311.6533333333" type="line"/>
			<point x="1264.6" y="1340" type="line"/>
			<point x="848.7733333333" y="1340" type="line"/>
			<point x="848.7733333333" y="1311.6533333333" type="line"/>
			<point x="1014.8" y="1275.3066666667" type="line"/>
			<point x="490.84" y="728.6" type="line"/>
			<point x="315.6666666667" y="728.6" type="line"/>
			<point x="315.6666666667" y="665.8" type="line"/>
			<point x="482.3466666667" y="665.8" type="line"/>
			<point x="1068.0133333333" y="66.9333333333" type="line"/>
			<point x="903.48" y="28.3466666667" type="line"/>
			<point x="903.48" y="0" type="line"/>
			<point x="1367.96" y="0" type="line"/>
			<point x="1367.96" y="28.3466666667" type="line"/>
		</contour>
		<contour>
			<point x="350.36" y="1273.44" type="line"/>
			<point x="517.1333333333" y="1311.6533333333" type="line"/>
			<point x="517.1333333333" y="1340" type="line"/>
			<point x="76.2266666667" y="1340" type="line"/>
			<point x="76.2266666667" y="1311.6533333333" type="line"/>
			<point x="243" y="1273.44" type="line"/>
			<point x="243" y="66.56" type="line"/>
			<point x="76.2266666667" y="28.3466666667" type="line"/>
			<point x="76.2266666667" y="0" type="line"/>
			<point x="517.1333333333" y="0" type="line"/>
			<point x="517.1333333333" y="28.3466666667" type="line"/>
			<point x="350.36" y="66.56" type="line"/>
		</contour>
	</outline>
	<anchor name="bottom" x="691.9066666667" y="0"/>
	<anchor name="UCtop" x="664.96" y="1340"/>
</glyph>
<glyph name="L" format="2">
	<unicode hex="004C"/>
	<advance width="1129.7733333333"/>
	<outline>
		<contour>
			<point x="1017.7866666667" y="-50.8533333333" type="line"/>
			<point x="1096.28" y="358.16" type="line"/>
			<point x="1066.8133333333" y="366.28" type="line"/>
			<point x="898.0133333333" y="34.92" type="line"/>
			<point x="984.8666666667" y="63.92" type="line"/>
			<point x="291.72" y="63.92" type="line"/>
			<point x="291.72" y="0" type="line"/>
			<point x="914.1333333333" y="0" type="line"/>
			<point x="1004.9333333333" y="-50.8533333333" type="line"/>
		</contour>
		<contour>
			<point x="350.36" y="1273.44" type="line"/>
			<point x="517.1333333333" y="1311.6533333333" type="line"/>
			<point x="517.1333333333" y="1340" type="line"/>
			<point x="76.2266666667" y="1340" type="line"/>
			<point x="76.2266666667" y="1311.6533333333" type="line"/>
			<point x="243" y="1273.44" type="line"/>
			<point x="243" y="66.56" type="line"/>
			<point x="76.2266666667" y="28.3466666667" type="line"/>
			<point x="76.2266666667" y="0" type="line"/>
			<point x="350.36" y="0" type="line"/>
		</contour>
	</outline>
	<anchor name="UCtop" x="296.68" y="1340"/>
	<anchor name="bottom" x="597.48" y="0"/>
	<anchor name="mid" x="868.0266666667" y="702"/>
	<anchor name="right" x="560.5466666667" y="1339.6266666667"/>
</glyph>
<glyph name="M" format="2">
	<unicode hex="004D"/>
	<advance width="1849.2133333333"/>
	<outline>
		<contour>
			<point x="1638.3333333333" y="66.56" type="line"/>
			<point x="1551.5866666667" y="1273.44" type="line"/>
			<point x="1730.8933333333" y="1311.6533333333" type="line"/>
			<point x="1730.8933333333" y="1340" type="line"/>
			<point x="1446.2266666667" y="1340" type="line"/>
			<point x="907.52" y="118.52" type="line"/>
			<point x="930.8933333333" y="117.8933333333" type="line"/>
			<point x="412.36" y="1340" type="line"/>
			<point x="123.6" y="1340" type="line"/>
			<point x="123.6" y="1311.6533333333" type="line"/>
			<point x="298.5066666667" y="1267.1866666667" type="line"/>
			<point x="210" y="66.56" type="line"/>
			<point x="43.2266666667" y="28.3466666667" type="line"/>
			<point x="43.2266666667" y="0" type="line"/>
			<point x="441.0666666667" y="0" type="line"/>
			<point x="441.0666666667" y="28.3466666667" type="line"/>
			<point x="274.6666666667" y="66.56" type="line"/>
			<point x="354.4533333333" y="1241.4" type="line"/>
			<point x="341.08" y="1239.0266666667" type="line"/>
			<point x="878.44" y="-19.6266666667" type="line"/>
			<point x="911.04" y="-19.6266666667" type="line"/>
			<point x="1466.4666666667" y="1244.1333333333" type="line"/>
			<point x="1452.4666666667" y="1247.1333333333" type="line"/>
			<point x="1532.6" y="66.56" type="line"/>
			<point x="1366.2" y="28.3466666667" type="line"/>
			<point x="1366.2" y="0" type="line"/>
			<point x="1804.7333333333" y="0" type="line"/>
			<point x="1804.7333333333" y="28.3466666667" type="line"/>
		</contour>
	</outline>
	<anchor name="UCtop" x="911.1333333333" y="1340"/>
	<anchor name="bottom" x="901.8" y="0"/>
</glyph>
<glyph name="N" format="2">
	<unicode hex="004E"/>
	<advance width="1479.32"/>
	<outline>
		<contour>
			<point x="246.88" y="66.56" type="line"/>
			<point x="80.1066666667" y="28.3466666667" type="line"/>
			<point x="80.1066666667" y="0" type="line"/>
			<point x="484.4266666667" y="0" type="line"/>
			<point x="484.4266666667" y="28.3466666667" type="line"/>
			<point x="312.8" y="66.56" type="line"/>
			<point x="312.8" y="1273.8666666667" type="line"/>
			<point x="282.3066666667" y="1251.6533333333" type="line"/>
			<point x="1212.3333333333" y="-19.6266666667" type="line"/>
			<point x="1247.8133333333" y="-19.6266666667" type="line"/>
			<point x="1247.8133333333" y="1273.44" type="line"/>
			<point x="1414.5866666667" y="1311.6533333333" type="line"/>
			<point x="1414.5866666667" y="1340" type="line"/>
			<point x="1010.2666666667" y="1340" type="line"/>
			<point x="1010.2666666667" y="1311.6533333333" type="line"/>
			<point x="1181.8933333333" y="1273.44" type="line"/>
			<point x="1181.8933333333" y="83.68" type="line"/>
			<point x="1227.0133333333" y="137.4533333333" type="line"/>
			<point x="350.88" y="1340" type="line"/>
			<point x="69.4666666667" y="1340" type="line"/>
			<point x="69.4666666667" y="1311.6533333333" type="line"/>
			<point x="246.88" y="1263.08" type="line"/>
		</contour>
	</outline>
	<anchor name="UCtop" x="753.96" y="1340"/>
	<anchor name="bottom" x="770.2266666667" y="0"/>
</glyph>
<glyph name="O" format="2">
	<unicode hex="004F"/>
	<advance width="1498.0533333333"/>
	<outline>
		<contour>
			<point x="741.5733333333" y="1360" type="curve" smooth="yes"/>
			<point x="368.6133333333" y="1360"/>
			<point x="97.76" y="1070.4933333333"/>
			<point x="97.76" y="668.6266666667" type="curve" smooth="yes"/>
			<point x="97.76" y="268.3866666667"/>
			<point x="377.76" y="-20"/>
			<point x="756.48" y="-20" type="curve" smooth="yes"/>
			<point x="1129.44" y="-20"/>
			<point x="1400.2933333333" y="269.5066666667"/>
			<point x="1400.2933333333" y="671.3733333333" type="curve" smooth="yes"/>
			<point x="1400.2933333333" y="1071.6133333333"/>
			<point x="1120.2933333333" y="1360"/>
		</contour>
		<contour>
			<point x="757.2133333333" y="41.2933333333" type="curve" smooth="yes"/>
			<point x="441.0266666667" y="41.2933333333"/>
			<point x="214.1066666667" y="283.4533333333"/>
			<point x="214.1066666667" y="688.0933333333" type="curve" smooth="yes"/>
			<point x="214.1066666667" y="1049.2533333333"/>
			<point x="410.1333333333" y="1298.7066666667"/>
			<point x="740.84" y="1298.7066666667" type="curve" smooth="yes"/>
			<point x="1057.0266666667" y="1298.7066666667"/>
			<point x="1283.9466666667" y="1056.5466666667"/>
			<point x="1283.9466666667" y="651.9066666667" type="curve" smooth="yes"/>
			<point x="1283.9466666667" y="290.7466666667"/>
			<point x="1087.92" y="41.2933333333"/>
		</contour>
	</outline>
	<anchor name="UCtop" x="748.84" y="1340"/>
	<anchor name="bottom" x="748.84" y="0"/>
	<anchor name="horn" x="1054.6133333333" y="1340"/>
	<anchor name="right" x="940.4933333333" y="0"/>
</glyph>
<glyph name="P" format="2">
	<unicode hex="0050"/>
	<advance width="1137.0133333333"/>
	<outline>
		<contour>
			<point x="971.0266666667" y="965.76" type="curve" smooth="yes"/>
			<point x="971.0266666667" y="769.36"/>
			<point x="848.8" y="655.0666666667"/>
			<point x="569.8933333333" y="655.0666666667" type="curve" smooth="yes"/>
			<point x="270.92" y="655.0666666667" type="line"/>
			<point x="275.7733333333" y="591.1466666667" type="line"/>
			<point x="588.1333333333" y="591.1466666667" type="line" smooth="yes"/>
			<point x="944.4" y="591.1466666667"/>
			<point x="1083.3733333333" y="759.7466666667"/>
			<point x="1083.3733333333" y="970.24" type="curve" smooth="yes"/>
			<point x="1083.3733333333" y="1178.12"/>
			<point x="947.0133333333" y="1340"/>
			<point x="588.1333333333" y="1340" type="curve" smooth="yes"/>
			<point x="275.7733333333" y="1340" type="line"/>
			<point x="270.92" y="1276.08" type="line"/>
			<point x="528.4533333333" y="1276.08" type="line" smooth="yes"/>
			<point x="858.1333333333" y="1276.08"/>
			<point x="971.0266666667" y="1160.2933333333"/>
		</contour>
		<contour>
			<point x="350.36" y="1340" type="line"/>
			<point x="76.2266666667" y="1340" type="line"/>
			<point x="76.2266666667" y="1311.6533333333" type="line"/>
			<point x="243" y="1273.44" type="line"/>
			<point x="243" y="66.56" type="line"/>
			<point x="76.2266666667" y="28.3466666667" type="line"/>
			<point x="76.2266666667" y="0" type="line"/>
			<point x="529.6666666667" y="0" type="line"/>
			<point x="529.6666666667" y="28.3466666667" type="line"/>
			<point x="350.36" y="66.56" type="line"/>
		</contour>
	</outline>
	<anchor name="UCtop" x="612.3866666667" y="1340"/>
	<anchor name="bottom" x="296.68" y="0"/>
</glyph>
<glyph name="Q" format="2">
	<unicode hex="0051"/>
	<advance width="1498.0533333333"/>
	<outline>
		<contour>
			<point x="957.5066666667" y="-272.8133333333" type="line" smooth="yes"/>
			<point x="1102.4133333333" y="-365.6"/>
			<point x="1161.4533333333" y="-393"/>
			<point x="1276.7866666667" y="-393" type="curve" smooth="yes"/>
			<point x="1351.3066666667" y="-393"/>
			<point x="1426.52" y="-378.7733333333"/>
			<point x="1488.6266666667" y="-361.28" type="curve"/>
			<point x="1488.6266666667" y="-335.4266666667" type="line"/>
			<point x="1320.56" y="-350.8133333333"/>
			<point x="1250.8" y="-323.56"/>
			<point x="1075.9466666667" y="-225.84" type="curve" smooth="yes"/>
			<point x="610.6133333333" y="32.9866666667" type="line"/>
			<point x="655.4533333333" y="-0.6266666667" type="line"/>
			<point x="1106.1466666667" y="-70.32"/>
			<point x="1400.2933333333" y="256.6"/>
			<point x="1400.2933333333" y="671.3733333333" type="curve" smooth="yes"/>
			<point x="1400.2933333333" y="1071.6133333333"/>
			<point x="1120.2933333333" y="1360"/>
			<point x="741.5733333333" y="1360" type="curve" smooth="yes"/>
			<point x="368.6133333333" y="1360"/>
			<point x="97.76" y="1070.4933333333"/>
			<point x="97.76" y="668.6266666667" type="curve" smooth="yes"/>
			<point x="97.76" y="400.5581601732"/>
			<point x="214.5435985781" y="195.2430610611"/>
			<point x="430.7733333333" y="57.12" type="curve" smooth="yes"/>
		</contour>
		<contour>
			<point x="757.2133333333" y="41.2933333333" type="curve" smooth="yes"/>
			<point x="441.0266666667" y="41.2933333333"/>
			<point x="214.1066666667" y="283.4533333333"/>
			<point x="214.1066666667" y="688.0933333333" type="curve" smooth="yes"/>
			<point x="214.1066666667" y="1049.2533333333"/>
			<point x="410.1333333333" y="1298.7066666667"/>
			<point x="740.84" y="1298.7066666667" type="curve" smooth="yes"/>
			<point x="1057.0266666667" y="1298.7066666667"/>
			<point x="1283.9466666667" y="1056.5466666667"/>
			<point x="1283.9466666667" y="651.9066666667" type="curve" smooth="yes"/>
			<point x="1283.9466666667" y="290.7466666667"/>
			<point x="1087.92" y="41.2933333333"/>
		</contour>
	</outline>
	<anchor name="UCtop" x="759.04" y="1340"/>
	<anchor name="bottom" x="748.4666666667" y="-383.8133333333"/>
</glyph>
<glyph name="R" format="2">
  <advance width="1194"/>
  <unicode hex="0052"/>
  <anchor x="575.52" y="1340.0" name="UCtop"/>
  <anchor x="684.32" y="0.0" name="bottom"/>
  <outline>
    <contour>
      <point x="579.4" y="714.9733333333334" type="curve" smooth="yes"/>
      <point x="255.22666666666666" y="714.9733333333334" type="line"/>
      <point x="261.9866666666667" y="651.0533333333333" type="line"/>
      <point x="605.7066666666667" y="651.0533333333333" type="line" smooth="yes"/>
      <point x="714.8133333333333" y="651.0533333333333"/>
      <point x="749.08" y="603.4266666666666"/>
      <point x="812.3466666666667" y="443.8" type="curve" smooth="yes"/>
      <point x="917.0" y="179.29333333333332" type="line" smooth="yes"/>
      <point x="988.7866666666666" y="-1.5066666666666668"/>
      <point x="1014.1466666666666" y="-14.24"/>
      <point x="1212.4133333333334" y="0.0" type="curve"/>
      <point x="1212.4133333333334" y="35.946666666666665" type="line"/>
      <point x="1113.6266666666666" y="35.57333333333333"/>
      <point x="1085.2666666666667" y="53.6"/>
      <point x="1030.0" y="191.36" type="curve" smooth="yes"/>
      <point x="916.08" y="473.28" type="line" smooth="yes"/>
      <point x="853.44" y="628.9066666666666"/>
      <point x="796.8" y="680.28"/>
      <point x="672.0666666666666" y="686.1466666666666" type="curve"/>
      <point x="672.0666666666666" y="679.1466666666666" type="line"/>
      <point x="882.1733333333333" y="711.8933333333333"/>
      <point x="998.2933333333333" y="839.6533333333333"/>
      <point x="998.2933333333333" y="1006.1333333333333" type="curve" smooth="yes"/>
      <point x="998.2933333333333" y="1192.3866666666668"/>
      <point x="870.68" y="1340.0"/>
      <point x="535.5466666666666" y="1340.0" type="curve" smooth="yes"/>
      <point x="236.29333333333332" y="1340.0" type="line"/>
      <point x="250.84" y="1276.08" type="line"/>
      <point x="461.24" y="1276.08" type="line" smooth="yes"/>
      <point x="775.8" y="1276.08"/>
      <point x="883.44" y="1171.56"/>
      <point x="883.44" y="998.5333333333333" type="curve" smooth="yes"/>
      <point x="883.44" y="811.8666666666667"/>
      <point x="755.0533333333333" y="714.9733333333334"/>
    </contour>
    <contour>
      <point x="350.36" y="1340.0" type="line"/>
      <point x="76.22666666666666" y="1340.0" type="line"/>
      <point x="76.22666666666666" y="1311.6533333333334" type="line"/>
      <point x="243.0" y="1273.44" type="line"/>
      <point x="243.0" y="66.56" type="line"/>
      <point x="76.22666666666666" y="28.346666666666664" type="line"/>
      <point x="76.22666666666666" y="0.0" type="line"/>
      <point x="529.6666666666666" y="0.0" type="line"/>
      <point x="529.6666666666666" y="28.346666666666664" type="line"/>
      <point x="350.36" y="66.56" type="line"/>
    </contour>
  </outline>
</glyph>
<glyph name="S" format="2">
	<unicode hex="0053"/>
	<advance width="1021.2533333333"/>
	<outline>
		<contour>
			<point x="803.56" y="1284.52" type="line"/>
			<point x="714.6" y="1332.12"/>
			<point x="630.76" y="1360"/>
			<point x="515.52" y="1360" type="curve" smooth="yes"/>
			<point x="281.4666666667" y="1360"/>
			<point x="136.64" y="1229.7733333333"/>
			<point x="136.64" y="1035.2133333333" type="curve" smooth="yes"/>
			<point x="136.64" y="823.5866666667"/>
			<point x="282.0266666667" y="744.3333333333"/>
			<point x="455.52" y="672.32" type="curve" smooth="yes"/>
			<point x="629.0133333333" y="600.9333333333"/>
			<point x="832.6266666667" y="543.28"/>
			<point x="832.6266666667" y="322.24" type="curve" smooth="yes"/>
			<point x="832.6266666667" y="123.3066666667"/>
			<point x="683.7066666667" y="36.1733333333"/>
			<point x="464.08" y="36.1733333333" type="curve" smooth="yes"/>
			<point x="372.5866666667" y="36.1733333333"/>
			<point x="287.68" y="53.0266666667"/>
			<point x="192.4533333333" y="107.1466666667" type="curve"/>
			<point x="309.5733333333" y="25.96" type="line"/>
			<point x="124.96" y="368.4533333333" type="line"/>
			<point x="85.1333333333" y="368.4533333333" type="line"/>
			<point x="163.36" y="30.6" type="line"/>
			<point x="262.5866666667" y="-7.1333333333"/>
			<point x="349.2" y="-20"/>
			<point x="470.9333333333" y="-20" type="curve" smooth="yes"/>
			<point x="739.9066666667" y="-20"/>
			<point x="921.7466666667" y="110.72"/>
			<point x="921.7466666667" y="363.7066666667" type="curve" smooth="yes"/>
			<point x="921.7466666667" y="612.84"/>
			<point x="728.2533333333" y="690.2266666667"/>
			<point x="554.0133333333" y="758.24" type="curve" smooth="yes"/>
			<point x="379.7733333333" y="826.2533333333"/>
			<point x="219.6533333333" y="887.1466666667"/>
			<point x="219.6533333333" y="1073.2933333333" type="curve" smooth="yes"/>
			<point x="219.6533333333" y="1202.28"/>
			<point x="314.2666666667" y="1307.5733333333"/>
			<point x="499.4266666667" y="1307.5733333333" type="curve" smooth="yes"/>
			<point x="593.4533333333" y="1307.5733333333"/>
			<point x="670.8533333333" y="1277.92"/>
			<point x="774.0666666667" y="1186.9333333333" type="curve"/>
			<point x="704.6" y="1268.6533333333" type="line"/>
			<point x="847.52" y="957.7733333333" type="line"/>
			<point x="878.9866666667" y="963.2666666667" type="line"/>
			<point x="815.1066666667" y="1390.48" type="line"/>
			<point x="803.12" y="1390.48" type="line"/>
			<point x="721.8533333333" y="1307.8533333333" type="line"/>
		</contour>
	</outline>
	<anchor name="UCtop" x="490.9066666667" y="1340"/>
	<anchor name="bottom" x="519.7066666667" y="0"/>
</glyph>
<glyph name="T" format="2">
	<unicode hex="0054"/>
	<advance width="1251.6266666667"/>
	<outline>
		<contour>
			<point x="572.1333333333" y="1309.08" type="line"/>
			<point x="572.1333333333" y="66.56" type="line"/>
			<point x="405.36" y="28.3466666667" type="line"/>
			<point x="405.36" y="0" type="line"/>
			<point x="846.2666666667" y="0" type="line"/>
			<point x="846.2666666667" y="28.3466666667" type="line"/>
			<point x="679.4933333333" y="66.56" type="line"/>
			<point x="679.4933333333" y="1309.08" type="line"/>
		</contour>
		<contour>
			<point x="1124.0133333333" y="1276.08" type="line"/>
			<point x="1057.08" y="1291.9466666667" type="line"/>
			<point x="1175.16" y="980.2533333333" type="line"/>
			<point x="1207.3733333333" y="986.7466666667" type="line"/>
			<point x="1163.6133333333" y="1405.4933333333" type="line"/>
			<point x="1150" y="1405.4933333333" type="line"/>
			<point x="1045.9733333333" y="1327.76" type="line"/>
			<point x="1100.3866666667" y="1340" type="line"/>
			<point x="151.24" y="1340" type="line"/>
			<point x="205.6533333333" y="1327.76" type="line"/>
			<point x="101.6266666667" y="1405.4933333333" type="line"/>
			<point x="88.0133333333" y="1405.4933333333" type="line"/>
			<point x="44.2533333333" y="986.12" type="line"/>
			<point x="76.4666666667" y="980.2533333333" type="line"/>
			<point x="194.5466666667" y="1291.9466666667" type="line"/>
			<point x="127.6133333333" y="1276.08" type="line"/>
		</contour>
	</outline>
	<anchor name="UCtop" x="625.8133333333" y="1340"/>
	<anchor name="bottom" x="625.8133333333" y="0"/>
</glyph>
<glyph name="U" format="2">
	<unicode hex="0055"/>
	<advance width="1461.6533333333"/>
	<outline>
		<contour>
			<point x="1177.9733333333" y="509.0533333333" type="line" smooth="yes"/>
			<point x="1177.9733333333" y="196.88"/>
			<point x="1023.9466666667" y="60.64"/>
			<point x="752.8" y="60.64" type="curve" smooth="yes"/>
			<point x="464.76" y="60.64"/>
			<point x="322.4933333333" y="230.4666666667"/>
			<point x="322.4933333333" y="545.28" type="curve" smooth="yes"/>
			<point x="322.4933333333" y="1273.44" type="line"/>
			<point x="489.2666666667" y="1311.6533333333" type="line"/>
			<point x="489.2666666667" y="1340" type="line"/>
			<point x="48.36" y="1340" type="line"/>
			<point x="48.36" y="1311.6533333333" type="line"/>
			<point x="215.1333333333" y="1273.44" type="line"/>
			<point x="215.1333333333" y="542.3733333333" type="line" smooth="yes"/>
			<point x="215.1333333333" y="165.48"/>
			<point x="401.9866666667" y="-20"/>
			<point x="740.4533333333" y="-20" type="curve" smooth="yes"/>
			<point x="1055.1466666667" y="-20"/>
			<point x="1243.8933333333" y="152.5733333333"/>
			<point x="1243.8933333333" y="512.1333333333" type="curve" smooth="yes"/>
			<point x="1243.8933333333" y="1273.44" type="line"/>
			<point x="1410.6666666667" y="1311.6533333333" type="line"/>
			<point x="1410.6666666667" y="1340" type="line"/>
			<point x="1011.2" y="1340" type="line"/>
			<point x="1011.2" y="1311.6533333333" type="line"/>
			<point x="1177.9733333333" y="1273.44" type="line"/>
		</contour>
	</outline>
	<anchor name="UCtop" x="759.7066666667" y="1340"/>
	<anchor name="right" x="937.3333333333" y="0"/>
	<anchor name="bottom" x="747.1733333333" y="0"/>
	<anchor name="horn" x="1262.08" y="1340"/>
</glyph>
<glyph name="V" format="2">
	<unicode hex="0056"/>
	<advance width="1331.8666666667"/>
	<outline>
		<contour>
			<point x="148.4266666667" y="1272.6933333333" type="line"/>
			<point x="665.3866666667" y="-20" type="line"/>
			<point x="696.0933333333" y="-20" type="line"/>
			<point x="1171.9466666667" y="1273.44" type="line"/>
			<point x="1337.48" y="1311.6533333333" type="line"/>
			<point x="1337.48" y="1340" type="line"/>
			<point x="937.2666666667" y="1340" type="line"/>
			<point x="937.2666666667" y="1311.6533333333" type="line"/>
			<point x="1105.9066666667" y="1273.44" type="line"/>
			<point x="681.7333333333" y="101.1333333333" type="line"/>
			<point x="724.2933333333" y="101.1333333333" type="line"/>
			<point x="261.6533333333" y="1273.44" type="line"/>
			<point x="434.0266666667" y="1311.6533333333" type="line"/>
			<point x="434.0266666667" y="1340" type="line"/>
			<point x="-14.6133333333" y="1340" type="line"/>
			<point x="-14.6133333333" y="1311.6533333333" type="line"/>
		</contour>
	</outline>
	<anchor name="UCtop" x="687" y="1340"/>
	<anchor name="bottom" x="680.7333333333" y="0"/>
</glyph>
<glyph name="W" format="2">
	<unicode hex="0057"/>
	<advance width="1850.32"/>
	<outline>
		<contour>
			<point x="958.2133333333" y="1213.96" type="line"/>
			<point x="921.16" y="1201.2666666667" type="line"/>
			<point x="1339.7733333333" y="-20" type="line"/>
			<point x="1371.1066666667" y="-20" type="line"/>
			<point x="1692.0266666667" y="1273.44" type="line"/>
			<point x="1854.5733333333" y="1311.6533333333" type="line"/>
			<point x="1854.5733333333" y="1340" type="line"/>
			<point x="1455.48" y="1340" type="line"/>
			<point x="1455.48" y="1311.6533333333" type="line"/>
			<point x="1627.1066666667" y="1273.44" type="line"/>
			<point x="1344.64" y="102.2533333333" type="line"/>
			<point x="1398.9466666667" y="122.3333333333" type="line"/>
			<point x="977.2" y="1360" type="line"/>
			<point x="945.12" y="1360" type="line"/>
			<point x="499.2" y="131" type="line"/>
			<point x="538.8266666667" y="137.2666666667" type="line"/>
			<point x="270.16" y="1273.44" type="line"/>
			<point x="442.5333333333" y="1311.6533333333" type="line"/>
			<point x="442.5333333333" y="1340" type="line"/>
			<point x="-1.7333333333" y="1340" type="line"/>
			<point x="-1.7333333333" y="1311.6533333333" type="line"/>
			<point x="161.3066666667" y="1272.6933333333" type="line"/>
			<point x="473.04" y="-20" type="line"/>
			<point x="503.7466666667" y="-20" type="line"/>
		</contour>
	</outline>
	<anchor name="UCtop" x="937.68" y="1340"/>
	<anchor name="bottom" x="937.68" y="0"/>
</glyph>
<glyph name="X" format="2">
	<unicode hex="0058"/>
	<advance width="1376.3466666667"/>
	<outline>
		<contour>
			<point x="687.1066666667" y="666.2933333333" type="line"/>
			<point x="713.08" y="684.3866666667" type="line"/>
			<point x="1156.3466666667" y="1273.44" type="line"/>
			<point x="1315.6133333333" y="1311.6533333333" type="line"/>
			<point x="1315.6133333333" y="1340" type="line"/>
			<point x="914.92" y="1340" type="line"/>
			<point x="914.92" y="1311.6533333333" type="line"/>
			<point x="1083.56" y="1273.44" type="line"/>
			<point x="678.9866666667" y="728.9733333333" type="line"/>
			<point x="651.8933333333" y="708.76" type="line"/>
			<point x="167.0133333333" y="66.56" type="line"/>
			<point x="7.7466666667" y="28.3466666667" type="line"/>
			<point x="7.7466666667" y="0" type="line"/>
			<point x="408.44" y="0" type="line"/>
			<point x="408.44" y="28.3466666667" type="line"/>
			<point x="239.8" y="66.56" type="line"/>
		</contour>
		<contour>
			<point x="1085.2" y="66.56" type="line"/>
			<point x="912.8266666667" y="28.3466666667" type="line"/>
			<point x="912.8266666667" y="0" type="line"/>
			<point x="1376.5866666667" y="0" type="line"/>
			<point x="1376.5866666667" y="28.3466666667" type="line"/>
			<point x="1213.5466666667" y="67.3066666667" type="line"/>
			<point x="729.8" y="732.8533333333" type="line"/>
			<point x="713.8266666667" y="751.96" type="line"/>
			<point x="337.8933333333" y="1273.44" type="line"/>
			<point x="510.2666666667" y="1311.6533333333" type="line"/>
			<point x="510.2666666667" y="1340" type="line"/>
			<point x="46.5066666667" y="1340" type="line"/>
			<point x="46.5066666667" y="1311.6533333333" type="line"/>
			<point x="209.5466666667" y="1272.6933333333" type="line"/>
			<point x="646.6666666667" y="667.6666666667" type="line"/>
			<point x="661.0133333333" y="650.8133333333" type="line"/>
		</contour>
	</outline>
	<anchor name="UCtop" x="698.12" y="1340"/>
	<anchor name="bottom" x="698.12" y="0"/>
</glyph>
<glyph name="Y" format="2">
	<unicode hex="0059"/>
	<advance width="1324.4933333333"/>
	<outline>
		<contour>
			<point x="158.3066666667" y="1272.6933333333" type="line"/>
			<point x="629.8133333333" y="582.2533333333" type="line"/>
			<point x="629.8133333333" y="66.56" type="line"/>
			<point x="463.04" y="28.3466666667" type="line"/>
			<point x="463.04" y="0" type="line"/>
			<point x="903.9466666667" y="0" type="line"/>
			<point x="903.9466666667" y="28.3466666667" type="line"/>
			<point x="737.1733333333" y="66.56" type="line"/>
			<point x="737.1733333333" y="586.12" type="line"/>
			<point x="1143.32" y="1273.44" type="line"/>
			<point x="1308.8533333333" y="1311.6533333333" type="line"/>
			<point x="1308.8533333333" y="1340" type="line"/>
			<point x="903.4133333333" y="1340" type="line"/>
			<point x="903.4133333333" y="1311.6533333333" type="line"/>
			<point x="1072.0533333333" y="1273.44" type="line"/>
			<point x="692.84" y="611.5866666667" type="line"/>
			<point x="736.4133333333" y="611.4666666667" type="line"/>
			<point x="290.88" y="1273.44" type="line"/>
			<point x="460.64" y="1311.6533333333" type="line"/>
			<point x="460.64" y="1340" type="line"/>
			<point x="-4.7333333333" y="1340" type="line"/>
			<point x="-4.7333333333" y="1311.6533333333" type="line"/>
		</contour>
	</outline>
	<anchor name="UCtop" x="683.6266666667" y="1340"/>
	<anchor name="bottom" x="682.3733333333" y="0"/>
</glyph>
<glyph name="Z" format="2">
	<unicode hex="005A"/>
	<advance width="1202.8933333333"/>
	<outline>
		<contour>
			<point x="1091.6133333333" y="1340" type="line"/>
			<point x="245.6533333333" y="1340" type="line"/>
			<point x="151.72" y="1394.6133333333" type="line"/>
			<point x="137.6133333333" y="1394.6133333333" type="line"/>
			<point x="69.2533333333" y="979.9066666667" type="line"/>
			<point x="98.0933333333" y="972.6666666667" type="line"/>
			<point x="249.7866666667" y="1276.08" type="line"/>
			<point x="986.0933333333" y="1276.08" type="line"/>
			<point x="957.4266666667" y="1299.8266666667" type="line"/>
			<point x="110.52" y="16.8666666667" type="line"/>
			<point x="110.52" y="0" type="line"/>
			<point x="979.08" y="0" type="line"/>
			<point x="1071.6533333333" y="-42.1066666667" type="line"/>
			<point x="1083.8933333333" y="-42.1066666667" type="line"/>
			<point x="1143.64" y="336.8533333333" type="line"/>
			<point x="1111.5466666667" y="342.9733333333" type="line"/>
			<point x="977.56" y="63.92" type="line"/>
			<point x="228.84" y="63.92" type="line"/>
			<point x="239.96" y="38.92" type="line"/>
			<point x="1091.6133333333" y="1323.1333333333" type="line"/>
		</contour>
	</outline>
	<anchor name="UCtop" x="620.4266666667" y="1340"/>
	<anchor name="bottom" x="612.6666666667" y="0"/>
</glyph>
<glyph name="bracketleft" format="2">
	<unicode hex="005B"/>
	<advance width="558.1733333333"/>
	<outline>
		<contour>
			<point x="190.1333333333" y="-256.12" type="line"/>
			<point x="526.04" y="-256.12" type="line"/>
			<point x="526.04" y="-204.92" type="line"/>
			<point x="284.52" y="-204.92" type="line"/>
			<point x="284.52" y="1347.8" type="line"/>
			<point x="526.04" y="1347.8" type="line"/>
			<point x="526.04" y="1399" type="line"/>
			<point x="190.1333333333" y="1399" type="line"/>
		</contour>
	</outline>
</glyph>
<glyph name="backslash" format="2">
	<unicode hex="005C"/>
	<advance width="760.1866666667"/>
	<outline>
		<contour>
			<point x="701.4266666667" y="0" type="line"/>
			<point x="141.4266666667" y="1340" type="line"/>
			<point x="59.76" y="1340" type="line"/>
			<point x="619.76" y="0" type="line"/>
		</contour>
	</outline>
</glyph>
<glyph name="bracketright" format="2">
  <advance width="559"/>
  <unicode hex="005D"/>
  <outline>
    <contour>
      <point x="368.78666666666663" y="1400.0" type="line"/>
      <point x="32.88" y="1400.0" type="line"/>
      <point x="32.88" y="1348.8" type="line"/>
      <point x="274.4" y="1348.8" type="line"/>
      <point x="274.4" y="-203.92000000000002" type="line"/>
      <point x="32.88" y="-203.92000000000002" type="line"/>
      <point x="32.88" y="-255.12" type="line"/>
      <point x="368.78666666666663" y="-255.12" type="line"/>
    </contour>
  </outline>
</glyph>
<glyph name="asciicircum" format="2">
	<unicode hex="005E"/>
	<advance width="1000"/>
	<outline>
		<contour>
			<point x="491.24" y="1286.7333333333" type="line"/>
			<point x="789.8133333333" y="592" type="line"/>
			<point x="856" y="592" type="line"/>
			<point x="525.96" y="1340" type="line"/>
			<point x="472.04" y="1340" type="line"/>
			<point x="144" y="592" type="line"/>
			<point x="210.1866666667" y="592" type="line"/>
			<point x="506.1333333333" y="1286.7333333333" type="line"/>
		</contour>
	</outline>
</glyph>
<glyph name="a" format="2">
	<unicode hex="0061"/>
	<advance width="848.3333333333"/>
	<outline>
		<contour>
			<point x="617.6666666667" y="531.0933333333" type="line"/>
			<point x="163.8266666667" y="413.8133333333"/>
			<point x="88.64" y="323.6933333333"/>
			<point x="88.64" y="188.2266666667" type="curve" smooth="yes"/>
			<point x="88.64" y="50.7333333333"/>
			<point x="184.64" y="-20"/>
			<point x="317.3866666667" y="-20" type="curve" smooth="yes"/>
			<point x="437.16" y="-20"/>
			<point x="536.9066666667" y="52.7333333333"/>
			<point x="578.32" y="193.56" type="curve"/>
			<point x="572.32" y="189.8266666667" type="line"/>
			<point x="567.9333333333" y="33.7066666667"/>
			<point x="608.2666666667" y="-14.8666666667"/>
			<point x="708.4" y="-14.8666666667" type="curve" smooth="yes"/>
			<point x="758.52" y="-14.8666666667"/>
			<point x="810.6133333333" y="7.12"/>
			<point x="860.6" y="59.6" type="curve"/>
			<point x="860.6" y="89.9333333333" type="line"/>
			<point x="821.96" y="63.04"/>
			<point x="789.3466666667" y="53.1733333333"/>
			<point x="757.0933333333" y="53.1733333333" type="curve" smooth="yes"/>
			<point x="701.96" y="53.1733333333"/>
			<point x="669.9466666667" y="83.5466666667"/>
			<point x="669.9466666667" y="158.7066666667" type="curve" smooth="yes"/>
			<point x="669.9466666667" y="641.4" type="line" smooth="yes"/>
			<point x="669.9466666667" y="779.7466666667"/>
			<point x="608.0933333333" y="862.3733333333"/>
			<point x="429.7066666667" y="862.3733333333" type="curve" smooth="yes"/>
			<point x="283.52" y="862.3733333333"/>
			<point x="96.6266666667" y="744.7466666667"/>
			<point x="96.6266666667" y="675.28" type="curve" smooth="yes"/>
			<point x="96.6266666667" y="652.1733333333"/>
			<point x="116.6133333333" y="634.3066666667"/>
			<point x="149.84" y="634.3066666667" type="curve" smooth="yes"/>
			<point x="175.5733333333" y="634.3066666667"/>
			<point x="203.9333333333" y="642.4266666667"/>
			<point x="220.2933333333" y="659.7866666667" type="curve" smooth="yes"/>
			<point x="239.7866666667" y="679.6533333333"/>
			<point x="248.28" y="726.24"/>
			<point x="258.4133333333" y="784.7466666667" type="curve"/>
			<point x="201.7733333333" y="748.7733333333" type="line"/>
			<point x="280.2266666667" y="784.4266666667"/>
			<point x="341.8666666667" y="799.3066666667"/>
			<point x="390.0133333333" y="799.3066666667" type="curve" smooth="yes"/>
			<point x="521.8133333333" y="799.3066666667"/>
			<point x="571.5733333333" y="732.2933333333"/>
			<point x="571.5733333333" y="623.1333333333" type="curve" smooth="yes"/>
			<point x="571.5733333333" y="259.3733333333" type="line" smooth="yes"/>
			<point x="571.5733333333" y="158.9733333333"/>
			<point x="472.8933333333" y="55.7866666667"/>
			<point x="355.08" y="55.7866666667" type="curve" smooth="yes"/>
			<point x="256.7733333333" y="55.7866666667"/>
			<point x="191.64" y="108.5466666667"/>
			<point x="191.64" y="205.8133333333" type="curve" smooth="yes"/>
			<point x="191.64" y="319.4666666667"/>
			<point x="245.72" y="384.3333333333"/>
			<point x="623.64" y="484.28" type="curve"/>
		</contour>
	</outline>
	<anchor name="top" x="385.2" y="852"/>
	<anchor name="right" x="860.6" y="0"/>
	<anchor name="bottom" x="434.1733333333" y="0"/>
</glyph>
<glyph name="b" format="2">
  <advance width="1015.92"/>
  <unicode hex="0062"/>
  <anchor x="502.3066666666667" y="1388.5333333333333" name="UCtop"/>
  <anchor x="497.92" y="0.0" name="bottom"/>
  <outline>
    <contour>
      <point x="185.06666666666666" y="70.16" type="line"/>
      <point x="258.84" y="12.653333333333334"/>
      <point x="364.8933333333333" y="-20.0"/>
      <point x="473.70666666666665" y="-20.0" type="curve" smooth="yes"/>
      <point x="713.7333333333333" y="-20.0"/>
      <point x="936.7866666666666" y="153.44"/>
      <point x="936.7866666666666" y="461.2266666666667" type="curve" smooth="yes"/>
      <point x="936.7866666666666" y="716.4"/>
      <point x="800.28" y="872.0"/>
      <point x="545.52" y="872.0" type="curve" smooth="yes"/>
      <point x="456.17333333333335" y="872.0"/>
      <point x="383.7866666666667" y="844.7866666666666"/>
      <point x="187.77333333333334" y="727.08" type="curve"/>
      <point x="187.77333333333334" y="676.1333333333333" type="line"/>
      <point x="297.1066666666667" y="755.9333333333333"/>
      <point x="400.74666666666667" y="792.2"/>
      <point x="510.3466666666667" y="792.2" type="curve" smooth="yes"/>
      <point x="701.4133333333333" y="792.2"/>
      <point x="827.9466666666667" y="661.4266666666666"/>
      <point x="827.9466666666667" y="428.8933333333333" type="curve" smooth="yes"/>
      <point x="827.9466666666667" y="185.45333333333332"/>
      <point x="705.1333333333333" y="38.56"/>
      <point x="489.1333333333333" y="38.56" type="curve" smooth="yes"/>
      <point x="348.5333333333333" y="38.56"/>
      <point x="246.50666666666666" y="111.90666666666667"/>
      <point x="246.50666666666666" y="210.25333333333333" type="curve" smooth="yes"/>
      <point x="246.50666666666666" y="1289.08" type="line"/>
      <point x="250.24" y="1419.0" type="line"/>
      <point x="237.76" y="1419.0" type="line"/>
      <point x="-14.64" y="1359.44" type="line"/>
      <point x="-14.64" y="1343.2" type="line"/>
      <point x="63.36" y="1316.3323809523808"/>
      <point x="122.13333333333334" y="1292.075873015873"/>
      <point x="148.13333333333333" y="1275.6533333333334" type="curve"/>
      <point x="148.13333333333333" y="178.68" type="line"/>
      <point x="119.24" y="-14.026666666666667" type="line"/>
      <point x="142.46666666666667" y="-21.64" type="line"/>
      <point x="250.58666666666667" y="73.92" type="line"/>
    </contour>
  </outline>
</glyph>
<glyph name="c" format="2">
  <advance width="840.28"/>
  <unicode hex="0063"/>
  <anchor x="462.73333333333335" y="852.0" name="top"/>
  <anchor x="789.7733333333333" y="0.0" name="right"/>
  <anchor x="467.53333333333336" y="0.0" name="bottom"/>
  <outline>
    <contour>
      <point x="527.2" y="872.0" type="curve" smooth="yes"/>
      <point x="237.61333333333334" y="872.0"/>
      <point x="78.13333333333334" y="660.64"/>
      <point x="78.13333333333334" y="412.02666666666664" type="curve" smooth="yes"/>
      <point x="78.13333333333334" y="155.98666666666668"/>
      <point x="232.2533333333333" y="-20.0"/>
      <point x="466.02666666666664" y="-20.0" type="curve" smooth="yes"/>
      <point x="592.2666666666667" y="-20.0"/>
      <point x="678.1066666666667" y="30.48"/>
      <point x="789.7733333333333" y="143.2" type="curve"/>
      <point x="770.7866666666666" y="166.44" type="line"/>
      <point x="682.8533333333334" y="90.89333333333333"/>
      <point x="610.3466666666667" y="63.65333333333333"/>
      <point x="524.8133333333333" y="63.65333333333333" type="curve" smooth="yes"/>
      <point x="311.4" y="63.65333333333333"/>
      <point x="177.88" y="214.16"/>
      <point x="177.88" y="458.05333333333334" type="curve" smooth="yes"/>
      <point x="177.88" y="695.2666666666667"/>
      <point x="314.81333333333333" y="814.2"/>
      <point x="463.04" y="814.2" type="curve" smooth="yes"/>
      <point x="603.0266666666666" y="814.2"/>
      <point x="616.2266666666667" y="693.96"/>
      <point x="707.3333333333334" y="693.96" type="curve" smooth="yes"/>
      <point x="746.92" y="693.96"/>
      <point x="775.52" y="724.9466666666667"/>
      <point x="775.52" y="765.0266666666666" type="curve" smooth="yes"/>
      <point x="775.52" y="819.5333333333333"/>
      <point x="699.3466666666667" y="872.0"/>
    </contour>
  </outline>
</glyph>
<glyph name="d" format="2">
	<unicode hex="0064"/>
	<advance width="1038.8133333333"/>
	<outline>
		<contour>
			<point x="762.52" y="654.28" type="curve" smooth="yes"/>
			<point x="762.52" y="126.6" type="line"/>
			<point x="767.7466666667" y="-18.5066666667" type="line"/>
			<point x="780.8533333333" y="-18.5066666667" type="line"/>
			<point x="1022.36" y="47.12" type="line"/>
			<point x="1022.36" y="69.6" type="line"/>
			<point x="980.36" y="75.1661538462"/>
			<point x="884.8933333333" y="95.1793406593"/>
			<point x="860.8933333333" y="106.7866666667" type="curve"/>
			<point x="860.8933333333" y="1296.48" type="line"/>
			<point x="870.52" y="1419" type="line"/>
			<point x="858.4133333333" y="1419" type="line"/>
			<point x="609.4533333333" y="1362.0533333333" type="line"/>
			<point x="609.4533333333" y="1346.56" type="line"/>
			<point x="666.4533333333" y="1326.5957142857"/>
			<point x="738.52" y="1301.4095238095"/>
			<point x="762.52" y="1286.1066666667" type="curve"/>
			<point x="762.52" y="738" type="line"/>
			<point x="829.6" y="804.4" type="line"/>
			<point x="721.9866666667" y="855.64"/>
			<point x="646.0133333333" y="872"/>
			<point x="548.1333333333" y="872" type="curve" smooth="yes"/>
			<point x="291.24" y="872"/>
			<point x="79.1333333333" y="696.1466666667"/>
			<point x="79.1333333333" y="390.7733333333" type="curve" smooth="yes"/>
			<point x="79.1333333333" y="135.6"/>
			<point x="213.76" y="-20"/>
			<point x="466.0133333333" y="-20" type="curve" smooth="yes"/>
			<point x="553.24" y="-20"/>
			<point x="604.5866666667" y="1.3733333333"/>
			<point x="817.52" y="128.6533333333" type="curve"/>
			<point x="817.52" y="179.6" type="line"/>
			<point x="706.2133333333" y="94.3066666667"/>
			<point x="603.1866666667" y="59.8"/>
			<point x="501.1866666667" y="59.8" type="curve" smooth="yes"/>
			<point x="312" y="59.8"/>
			<point x="187.9733333333" y="190.5733333333"/>
			<point x="187.9733333333" y="416.2133333333" type="curve" smooth="yes"/>
			<point x="187.9733333333" y="660.28"/>
			<point x="304.52" y="813.44"/>
			<point x="525.5066666667" y="813.44" type="curve" smooth="yes"/>
			<point x="664.3466666667" y="813.44"/>
			<point x="762.52" y="740.84"/>
		</contour>
	</outline>
	<anchor name="right" x="860.8933333333" y="1399"/>
	<anchor name="UCtop" x="506.88" y="1388.5333333333"/>
	<anchor name="bottom" x="542.6" y="0"/>
	<anchor name="center" x="765.5466666667" y="1075.76"/>
</glyph>
<glyph name="e" format="2">
  <advance width="870"/>
  <unicode hex="0065"/>
  <anchor x="459.2266666666667" y="852.0" name="top"/>
  <anchor x="802.3466666666667" y="0.0" name="right"/>
  <anchor x="463.70666666666665" y="0.0" name="bottom"/>
  <outline>
    <contour>
      <point x="473.37333333333333" y="872.0" type="curve" smooth="yes"/>
      <point x="228.13333333333333" y="872.0"/>
      <point x="78.76" y="665.0"/>
      <point x="78.76" y="413.37333333333333" type="curve" smooth="yes"/>
      <point x="78.76" y="155.85333333333332"/>
      <point x="237.73333333333332" y="-20.0"/>
      <point x="474.12" y="-20.0" type="curve" smooth="yes"/>
      <point x="601.8533333333334" y="-20.0"/>
      <point x="689.1866666666666" y="30.48"/>
      <point x="802.3466666666667" y="143.2" type="curve"/>
      <point x="782.9866666666667" y="166.44" type="line"/>
      <point x="693.9333333333333" y="90.89333333333333"/>
      <point x="620.3066666666666" y="63.65333333333333"/>
      <point x="534.0266666666666" y="63.65333333333333" type="curve" smooth="yes"/>
      <point x="317.25333333333333" y="63.65333333333333"/>
      <point x="178.88" y="210.8"/>
      <point x="178.88" y="449.0933333333333" type="curve" smooth="yes"/>
      <point x="178.88" y="686.5333333333333"/>
      <point x="284.78666666666663" y="816.8133333333334"/>
      <point x="449.6" y="816.8133333333334" type="curve" smooth="yes"/>
      <point x="591.6666666666666" y="816.8133333333334"/>
      <point x="668.8533333333334" y="714.0533333333333"/>
      <point x="681.6" y="544.7333333333333" type="curve"/>
      <point x="722.0266666666666" y="588.6133333333333" type="line"/>
      <point x="165.41333333333333" y="562.7333333333333" type="line"/>
      <point x="164.66666666666666" y="519.5466666666666" type="line"/>
      <point x="792.96" y="519.5466666666666" type="line"/>
      <point x="776.3466666666667" y="725.2133333333334"/>
      <point x="677.4" y="872.0"/>
    </contour>
  </outline>
</glyph>
<glyph name="f" format="2">
	<unicode hex="0066"/>
	<advance width="621.68"/>
	<outline>
		<contour>
			<point x="256.7733333333" y="783.8133333333" type="line"/>
			<point x="591.4533333333" y="783.8133333333" type="line"/>
			<point x="606.32" y="852" type="line"/>
			<point x="255.5866666667" y="852" type="line"/>
			<point x="228.0133333333" y="856.3866666667" type="line"/>
			<point x="31.48" y="812.9333333333" type="line"/>
			<point x="31.48" y="788.8266666667" type="line"/>
			<point x="214.64" y="769.84" type="line"/>
		</contour>
		<contour>
			<point x="311.76" y="62.44" type="line"/>
			<point x="311.76" y="976.08" type="line" smooth="yes"/>
			<point x="311.76" y="1243.5066666667"/>
			<point x="432.5066666667" y="1346.44"/>
			<point x="580.8133333333" y="1346.44" type="curve" smooth="yes"/>
			<point x="687.8133333333" y="1346.44"/>
			<point x="708.7066666667" y="1263.84"/>
			<point x="776.2666666667" y="1263.84" type="curve" smooth="yes"/>
			<point x="822.6266666667" y="1263.84"/>
			<point x="853.9733333333" y="1298.3333333333"/>
			<point x="853.9733333333" y="1338.5466666667" type="curve" smooth="yes"/>
			<point x="853.9733333333" y="1383.0266666667"/>
			<point x="808.6133333333" y="1419"/>
			<point x="694.4133333333" y="1419" type="curve" smooth="yes"/>
			<point x="466.72" y="1419"/>
			<point x="213.3866666667" y="1290.68"/>
			<point x="213.3866666667" y="911.56" type="curve" smooth="yes"/>
			<point x="213.3866666667" y="62.44" type="line"/>
			<point x="61.3866666667" y="28.2266666667" type="line"/>
			<point x="61.3866666667" y="0" type="line"/>
			<point x="483.3866666667" y="0" type="line"/>
			<point x="483.3866666667" y="28.2266666667" type="line"/>
		</contour>
	</outline>
	<anchor name="UCtop" x="513.0933333333" y="1362.0266666667"/>
	<anchor name="bottom" x="266.68" y="0"/>
</glyph>
<glyph name="g" format="2">
	<unicode hex="0067"/>
	<advance width="899.8666666667"/>
	<outline>
		<contour>
			<point x="398.56" y="-530" type="curve" smooth="yes"/>
			<point x="693.1866666667" y="-530"/>
			<point x="883.5866666667" y="-384.4"/>
			<point x="883.5866666667" y="-221.04" type="curve" smooth="yes"/>
			<point x="883.5866666667" y="-79.9866666667"/>
			<point x="775.08" y="-12.3466666667"/>
			<point x="514.2533333333" y="14.9333333333" type="curve" smooth="yes"/>
			<point x="253.4266666667" y="42.2133333333"/>
			<point x="221.4133333333" y="86.9733333333"/>
			<point x="221.4133333333" y="151.8533333333" type="curve" smooth="yes"/>
			<point x="221.4133333333" y="206.72"/>
			<point x="259.5333333333" y="247.48"/>
			<point x="350.3333333333" y="265.88" type="curve"/>
			<point x="328.4666666667" y="278.8666666667" type="line"/>
			<point x="195.4933333333" y="250.4933333333"/>
			<point x="121.7866666667" y="185.4933333333"/>
			<point x="121.7866666667" y="101.76" type="curve" smooth="yes"/>
			<point x="121.7866666667" y="15.16"/>
			<point x="183.04" y="-60.44"/>
			<point x="438.68" y="-79.8266666667" type="curve" smooth="yes"/>
			<point x="694.32" y="-99.2133333333"/>
			<point x="781.6933333333" y="-155.76"/>
			<point x="781.6933333333" y="-253.7466666667" type="curve" smooth="yes"/>
			<point x="781.6933333333" y="-383.5466666667"/>
			<point x="629" y="-482.56"/>
			<point x="409.16" y="-482.56" type="curve" smooth="yes"/>
			<point x="206.5066666667" y="-482.56"/>
			<point x="111.1066666667" y="-404.6533333333"/>
			<point x="111.1066666667" y="-288.64" type="curve" smooth="yes"/>
			<point x="111.1066666667" y="-186.88"/>
			<point x="187.2666666667" y="-98.9733333333"/>
			<point x="413.6933333333" y="-62.72" type="curve"/>
			<point x="436.88" y="-33.08" type="line"/>
			<point x="377.7333333333" y="-43.7333333333" type="line"/>
			<point x="127.7466666667" y="-86.7066666667"/>
			<point x="10.6" y="-184.8666666667"/>
			<point x="10.6" y="-299.3866666667" type="curve" smooth="yes"/>
			<point x="10.6" y="-442.24"/>
			<point x="147.6933333333" y="-530"/>
		</contour>
		<contour>
			<point x="415.2133333333" y="244" type="curve" smooth="yes"/>
			<point x="605.32" y="244"/>
			<point x="751.8" y="379.0133333333"/>
			<point x="751.8" y="562.1333333333" type="curve" smooth="yes"/>
			<point x="751.8" y="739.3733333333"/>
			<point x="605.32" y="872"/>
			<point x="415.2133333333" y="872" type="curve" smooth="yes"/>
			<point x="224.48" y="872"/>
			<point x="78.6266666667" y="736.9866666667"/>
			<point x="78.6266666667" y="553.24" type="curve" smooth="yes"/>
			<point x="78.6266666667" y="376"/>
			<point x="224.48" y="244"/>
		</contour>
		<contour>
			<point x="420.08" y="289.6933333333" type="curve" smooth="yes"/>
			<point x="283.7866666667" y="289.6933333333"/>
			<point x="192.2533333333" y="398.3466666667"/>
			<point x="192.2533333333" y="567" type="curve" smooth="yes"/>
			<point x="192.2533333333" y="737.0533333333"/>
			<point x="284.44" y="826.3066666667"/>
			<point x="410.3466666667" y="826.3066666667" type="curve" smooth="yes"/>
			<point x="546.64" y="826.3066666667"/>
			<point x="637.5466666667" y="717.0266666667"/>
			<point x="637.5466666667" y="548.3733333333" type="curve" smooth="yes"/>
			<point x="637.5466666667" y="377.6933333333"/>
			<point x="546.6133333333" y="289.6933333333"/>
		</contour>
		<contour>
			<point x="530.0666666667" y="822.9333333333" type="line"/>
			<point x="715.3866666667" y="818.6666666667"/>
			<point x="776.56" y="744.6"/>
			<point x="839.28" y="744.6" type="curve" smooth="yes"/>
			<point x="878.76" y="744.6"/>
			<point x="909.24" y="777.5866666667"/>
			<point x="909.24" y="819.44" type="curve" smooth="yes"/>
			<point x="909.24" y="853.8933333333"/>
			<point x="890.1333333333" y="872"/>
			<point x="855.4133333333" y="872" type="curve" smooth="yes"/>
			<point x="778.4533333333" y="872"/>
			<point x="693" y="839.4"/>
			<point x="500.5733333333" y="860.5066666667" type="curve"/>
		</contour>
	</outline>
	<anchor name="top" x="420.5866666667" y="852"/>
	<anchor name="bottom" x="433.12" y="-530"/>
</glyph>
<glyph name="h" format="2">
	<unicode hex="0068"/>
	<advance width="1044.8"/>
	<outline>
		<contour>
			<point x="619.5466666667" y="28.2266666667" type="line"/>
			<point x="619.5466666667" y="0" type="line"/>
			<point x="1023.7866666667" y="0" type="line"/>
			<point x="1023.7866666667" y="28.2266666667" type="line"/>
			<point x="871.04" y="62.44" type="line"/>
			<point x="871.04" y="569.0533333333" type="line" smooth="yes"/>
			<point x="871.04" y="780.52"/>
			<point x="798.4266666667" y="872"/>
			<point x="621.76" y="872" type="curve" smooth="yes"/>
			<point x="505.4533333333" y="872"/>
			<point x="412.36" y="839.3066666667"/>
			<point x="244.4133333333" y="679.16" type="curve"/>
			<point x="275.8933333333" y="662.2" type="line"/>
			<point x="363.16" y="743.7733333333"/>
			<point x="469.4266666667" y="777.24"/>
			<point x="554.7466666667" y="777.24" type="curve" smooth="yes"/>
			<point x="713.5733333333" y="777.24"/>
			<point x="772.6666666667" y="715.1333333333"/>
			<point x="772.6666666667" y="546.0933333333" type="curve" smooth="yes"/>
			<point x="772.6666666667" y="62.44" type="line"/>
		</contour>
		<contour>
			<point x="435.88" y="0" type="line"/>
			<point x="435.88" y="28.2266666667" type="line"/>
			<point x="282.76" y="62.44" type="line"/>
			<point x="282.76" y="1289.08" type="line"/>
			<point x="286.4933333333" y="1419" type="line"/>
			<point x="274.0133333333" y="1419" type="line"/>
			<point x="21.6133333333" y="1359.44" type="line"/>
			<point x="21.6133333333" y="1343.2" type="line"/>
			<point x="99.6133333333" y="1316.3323809524"/>
			<point x="158.3866666667" y="1292.0758730159"/>
			<point x="184.3866666667" y="1275.6533333333" type="curve"/>
			<point x="184.3866666667" y="62.44" type="line"/>
			<point x="32.3866666667" y="28.2266666667" type="line"/>
			<point x="32.3866666667" y="0" type="line"/>
		</contour>
	</outline>
	<anchor name="UCtop" x="524.44" y="1362.0266666667"/>
	<anchor name="bottom" x="535.9866666667" y="0"/>
	<anchor name="center" x="279.7333333333" y="1075.76"/>
</glyph>
<glyph name="i" format="2">
	<unicode hex="0069"/>
	<advance width="493.2666666667"/>
	<outline>
		<contour>
			<point x="244.44" y="1230.5066666667" type="curve" smooth="yes"/>
			<point x="302.9066666667" y="1230.5066666667"/>
			<point x="340" y="1271.8533333333"/>
			<point x="340" y="1325.6933333333" type="curve" smooth="yes"/>
			<point x="340" y="1378.28"/>
			<point x="302.9066666667" y="1419"/>
			<point x="244.44" y="1419" type="curve" smooth="yes"/>
			<point x="187.8533333333" y="1419"/>
			<point x="148.88" y="1378.28"/>
			<point x="148.88" y="1325.6933333333" type="curve" smooth="yes"/>
			<point x="148.88" y="1271.8533333333"/>
			<point x="187.8533333333" y="1230.5066666667"/>
		</contour>
		<contour>
			<point x="313.3866666667" y="872" type="line"/>
			<point x="301.6533333333" y="872" type="line"/>
			<point x="50.9866666667" y="810.04" type="line"/>
			<point x="50.9866666667" y="785.3066666667" type="line"/>
			<point x="111.9866666667" y="770.568"/>
			<point x="184.5066666667" y="747.8506666667"/>
			<point x="206.5066666667" y="736.1333333333" type="curve"/>
			<point x="206.5066666667" y="62.44" type="line"/>
			<point x="54.5066666667" y="28.2266666667" type="line"/>
			<point x="54.5066666667" y="0" type="line"/>
			<point x="458" y="0" type="line"/>
			<point x="458" y="28.2266666667" type="line"/>
			<point x="304.88" y="62.44" type="line"/>
			<point x="304.88" y="751.9866666667" type="line"/>
		</contour>
	</outline>
	<anchor name="top" x="242.44" y="1362.0266666667"/>
	<anchor name="bottom" x="256.0666666667" y="0"/>
	<anchor name="right" x="411.1333333333" y="0"/>
</glyph>
<glyph name="j" format="2">
	<unicode hex="006A"/>
	<advance width="430.1466666667"/>
	<outline>
		<contour>
			<point x="225.2" y="1230.5066666667" type="curve" smooth="yes"/>
			<point x="283.6666666667" y="1230.5066666667"/>
			<point x="320.76" y="1271.8533333333"/>
			<point x="320.76" y="1325.6933333333" type="curve" smooth="yes"/>
			<point x="320.76" y="1378.28"/>
			<point x="283.6666666667" y="1419"/>
			<point x="225.2" y="1419" type="curve" smooth="yes"/>
			<point x="168.6133333333" y="1419"/>
			<point x="129.64" y="1378.28"/>
			<point x="129.64" y="1325.6933333333" type="curve" smooth="yes"/>
			<point x="129.64" y="1271.8533333333"/>
			<point x="168.6133333333" y="1230.5066666667"/>
		</contour>
		<contour>
			<point x="187.2666666667" y="736.1333333333" type="curve"/>
			<point x="187.2666666667" y="-159.0133333333" type="line" smooth="yes"/>
			<point x="187.2666666667" y="-282.28"/>
			<point x="175.04" y="-328.0133333333"/>
			<point x="27.4266666667" y="-498.68" type="curve"/>
			<point x="58.1333333333" y="-530" type="line"/>
			<point x="262.1333333333" y="-338.04"/>
			<point x="285.64" y="-310.2933333333"/>
			<point x="285.64" y="-129.1866666667" type="curve" smooth="yes"/>
			<point x="285.64" y="751.9866666667" type="line"/>
			<point x="294.1466666667" y="872" type="line"/>
			<point x="282.4133333333" y="872" type="line"/>
			<point x="31.7466666667" y="810.04" type="line"/>
			<point x="31.7466666667" y="785.3066666667" type="line"/>
			<point x="92.7466666667" y="770.568"/>
			<point x="165.2666666667" y="747.8506666667"/>
		</contour>
	</outline>
	<anchor name="top" x="223.9466666667" y="1362.0266666667"/>
	<anchor name="bottom" x="218.3066666667" y="-510"/>
</glyph>
<glyph name="k" format="2">
  <advance width="1018.84"/>
  <unicode hex="006B"/>
  <anchor x="523.0933333333334" y="0.0" name="bottom"/>
  <anchor x="518.7066666666667" y="1362.0266666666666" name="UCtop"/>
  <outline>
    <contour>
      <point x="476.1066666666667" y="475.8933333333333" type="line"/>
      <point x="811.6933333333334" y="791.4266666666666" type="line"/>
      <point x="955.36" y="822.16" type="line"/>
      <point x="955.36" y="852.0" type="line"/>
      <point x="592.7466666666667" y="852.0" type="line"/>
      <point x="592.7466666666667" y="822.16" type="line"/>
      <point x="736.5333333333333" y="791.4266666666666" type="line"/>
      <point x="428.8933333333333" y="498.3466666666667" type="line"/>
      <point x="261.4" y="498.3466666666667" type="line"/>
      <point x="261.4" y="443.41333333333336" type="line"/>
      <point x="414.70666666666665" y="443.41333333333336" type="line"/>
      <point x="773.2133333333334" y="57.69333333333333" type="line"/>
      <point x="638.04" y="27.6" type="line"/>
      <point x="638.04" y="0.0" type="line"/>
      <point x="1027.08" y="0.0" type="line"/>
      <point x="1027.08" y="27.6" type="line"/>
      <point x="894.9333333333333" y="62.06666666666666" type="line"/>
      <point x="481.70666666666665" y="507.49333333333334" type="line"/>
    </contour>
    <contour>
      <point x="282.76" y="62.44" type="line"/>
      <point x="282.76" y="1289.08" type="line"/>
      <point x="286.49333333333334" y="1419.0" type="line"/>
      <point x="274.0133333333333" y="1419.0" type="line"/>
      <point x="21.613333333333333" y="1359.44" type="line"/>
      <point x="21.613333333333333" y="1343.2" type="line"/>
      <point x="99.61333333333333" y="1316.3323809523808"/>
      <point x="158.38666666666666" y="1292.075873015873"/>
      <point x="184.38666666666666" y="1275.6533333333334" type="curve"/>
      <point x="184.38666666666666" y="62.44" type="line"/>
      <point x="32.38666666666667" y="28.226666666666667" type="line"/>
      <point x="32.38666666666667" y="0.0" type="line"/>
      <point x="435.88" y="0.0" type="line"/>
      <point x="435.88" y="28.226666666666667" type="line"/>
    </contour>
  </outline>
</glyph>
<glyph name="l" format="2">
	<unicode hex="006C"/>
	<advance width="474.7733333333"/>
	<outline>
		<contour>
			<point x="286.3866666667" y="62.44" type="line"/>
			<point x="286.3866666667" y="1289.08" type="line"/>
			<point x="290.12" y="1419" type="line"/>
			<point x="277.64" y="1419" type="line"/>
			<point x="25.24" y="1359.44" type="line"/>
			<point x="25.24" y="1343.2" type="line"/>
			<point x="103.24" y="1316.3323809524"/>
			<point x="162.0133333333" y="1292.0758730159"/>
			<point x="188.0133333333" y="1275.6533333333" type="curve"/>
			<point x="188.0133333333" y="62.44" type="line"/>
			<point x="36.0133333333" y="28.2266666667" type="line"/>
			<point x="36.0133333333" y="0" type="line"/>
			<point x="439.5066666667" y="0" type="line"/>
			<point x="439.5066666667" y="28.2266666667" type="line"/>
		</contour>
	</outline>
	<anchor name="UCtop" x="221.0666666667" y="1361.4"/>
	<anchor name="right" x="286.3866666667" y="1399"/>
	<anchor name="bottom" x="237.2" y="0"/>
	<anchor name="mid" x="469.5066666667" y="546"/>
</glyph>
<glyph name="m" format="2">
	<unicode hex="006D"/>
	<advance width="1558.4133333333"/>
	<outline>
		<contour>
			<point x="301.6266666667" y="700.28" type="line"/>
			<point x="290.4266666667" y="872" type="line"/>
			<point x="277.5733333333" y="872" type="line"/>
			<point x="47.7333333333" y="800.7066666667" type="line"/>
			<point x="47.7333333333" y="778.2133333333" type="line"/>
			<point x="138.7333333333" y="755.608"/>
			<point x="181.2533333333" y="742.624"/>
			<point x="203.2533333333" y="731.6533333333" type="curve"/>
			<point x="203.2533333333" y="62.44" type="line"/>
			<point x="51.2533333333" y="28.2266666667" type="line"/>
			<point x="51.2533333333" y="0" type="line"/>
			<point x="451.0133333333" y="0" type="line"/>
			<point x="451.0133333333" y="28.2266666667" type="line"/>
			<point x="301.6266666667" y="62.44" type="line"/>
		</contour>
		<contour>
			<point x="842.64" y="615.2" type="line" smooth="yes"/>
			<point x="842.64" y="776.6933333333"/>
			<point x="779.3866666667" y="872"/>
			<point x="611.4933333333" y="872" type="curve" smooth="yes"/>
			<point x="504.1866666667" y="872"/>
			<point x="417.4666666667" y="841.68"/>
			<point x="262.28" y="693.4133333333" type="curve"/>
			<point x="291.76" y="672.08" type="line"/>
			<point x="371.3866666667" y="748.2666666667"/>
			<point x="469.8933333333" y="777.24"/>
			<point x="545.8533333333" y="777.24" type="curve" smooth="yes"/>
			<point x="686.44" y="777.24"/>
			<point x="744.2666666667" y="724.4933333333"/>
			<point x="744.2666666667" y="566.9866666667" type="curve" smooth="yes"/>
			<point x="744.2666666667" y="62.44" type="line"/>
			<point x="594.88" y="28.2266666667" type="line"/>
			<point x="594.88" y="0" type="line"/>
			<point x="991.6533333333" y="0" type="line"/>
			<point x="991.6533333333" y="28.2266666667" type="line"/>
			<point x="842.64" y="62.44" type="line"/>
		</contour>
		<contour>
			<point x="1383.6533333333" y="593.1733333333" type="line" smooth="yes"/>
			<point x="1383.6533333333" y="781.5466666667"/>
			<point x="1319.6533333333" y="872"/>
			<point x="1152.5066666667" y="872" type="curve" smooth="yes"/>
			<point x="1045.2" y="872"/>
			<point x="958.48" y="841.68"/>
			<point x="803.2933333333" y="693.4133333333" type="curve"/>
			<point x="832.7733333333" y="672.08" type="line"/>
			<point x="912.4" y="748.2666666667"/>
			<point x="1010.9066666667" y="777.24"/>
			<point x="1086.8666666667" y="777.24" type="curve" smooth="yes"/>
			<point x="1227.08" y="777.24"/>
			<point x="1285.28" y="724.8666666667"/>
			<point x="1285.28" y="566.9866666667" type="curve" smooth="yes"/>
			<point x="1285.28" y="62.44" type="line"/>
			<point x="1135.8933333333" y="28.2266666667" type="line"/>
			<point x="1135.8933333333" y="0" type="line"/>
			<point x="1536.4" y="0" type="line"/>
			<point x="1536.4" y="28.2266666667" type="line"/>
			<point x="1383.6533333333" y="62.44" type="line"/>
		</contour>
	</outline>
	<anchor name="top" x="793.4533333333" y="852"/>
	<anchor name="bottom" x="793.4533333333" y="0"/>
</glyph>
<glyph name="n" format="2">
	<unicode hex="006E"/>
	<advance width="1063.6666666667"/>
	<outline>
		<contour>
			<point x="301.6266666667" y="700.28" type="line"/>
			<point x="290.4266666667" y="872" type="line"/>
			<point x="277.5733333333" y="872" type="line"/>
			<point x="47.7333333333" y="800.7066666667" type="line"/>
			<point x="47.7333333333" y="778.2133333333" type="line"/>
			<point x="138.7333333333" y="755.608"/>
			<point x="181.2533333333" y="742.624"/>
			<point x="203.2533333333" y="731.6533333333" type="curve"/>
			<point x="203.2533333333" y="62.44" type="line"/>
			<point x="51.2533333333" y="28.2266666667" type="line"/>
			<point x="51.2533333333" y="0" type="line"/>
			<point x="454.7466666667" y="0" type="line"/>
			<point x="454.7466666667" y="28.2266666667" type="line"/>
			<point x="301.6266666667" y="62.44" type="line"/>
		</contour>
		<contour>
			<point x="638.4133333333" y="28.2266666667" type="line"/>
			<point x="638.4133333333" y="0" type="line"/>
			<point x="1042.6533333333" y="0" type="line"/>
			<point x="1042.6533333333" y="28.2266666667" type="line"/>
			<point x="889.9066666667" y="62.44" type="line"/>
			<point x="889.9066666667" y="569.0533333333" type="line" smooth="yes"/>
			<point x="889.9066666667" y="780.52"/>
			<point x="817.2933333333" y="872"/>
			<point x="640.6266666667" y="872" type="curve" smooth="yes"/>
			<point x="524.32" y="872"/>
			<point x="431.2266666667" y="839.3066666667"/>
			<point x="263.28" y="679.16" type="curve"/>
			<point x="294.76" y="662.2" type="line"/>
			<point x="382.0266666667" y="743.7733333333"/>
			<point x="488.2933333333" y="777.24"/>
			<point x="573.6133333333" y="777.24" type="curve" smooth="yes"/>
			<point x="732.44" y="777.24"/>
			<point x="791.5333333333" y="715.1333333333"/>
			<point x="791.5333333333" y="546.0933333333" type="curve" smooth="yes"/>
			<point x="791.5333333333" y="62.44" type="line"/>
		</contour>
	</outline>
	<anchor name="top" x="528.76" y="852"/>
	<anchor name="bottom" x="546.3066666667" y="0"/>
</glyph>
<glyph name="o" format="2">
  <advance width="996"/>
  <unicode hex="006F"/>
  <anchor x="498.1066666666667" y="852.0" name="top"/>
  <anchor x="498.1066666666667" y="0.0" name="bottom"/>
  <anchor x="630.3333333333334" y="852.0" name="horn"/>
  <anchor x="692.0666666666667" y="0.0" name="right"/>
  <outline>
    <contour>
      <point x="502.36" y="31.306666666666665" type="curve" smooth="yes"/>
      <point x="316.29333333333335" y="31.306666666666665"/>
      <point x="191.12" y="188.10666666666665"/>
      <point x="191.12" y="443.73333333333335" type="curve" smooth="yes"/>
      <point x="191.12" y="699.28"/>
      <point x="323.4266666666667" y="820.6933333333334"/>
      <point x="494.1066666666667" y="820.6933333333334" type="curve" smooth="yes"/>
      <point x="680.1733333333333" y="820.6933333333334"/>
      <point x="805.3466666666667" y="663.8933333333333"/>
      <point x="805.3466666666667" y="408.26666666666665" type="curve" smooth="yes"/>
      <point x="805.3466666666667" y="152.72"/>
      <point x="673.04" y="31.306666666666665"/>
    </contour>
    <contour>
      <point x="496.9866666666667" y="-20.0" type="curve" smooth="yes"/>
      <point x="740.6" y="-20.0"/>
      <point x="918.3333333333334" y="161.34666666666666"/>
      <point x="918.3333333333334" y="435.37333333333333" type="curve" smooth="yes"/>
      <point x="918.3333333333334" y="698.64"/>
      <point x="742.4533333333334" y="872.0"/>
      <point x="499.48" y="872.0" type="curve" smooth="yes"/>
      <point x="255.86666666666667" y="872.0"/>
      <point x="78.13333333333334" y="690.6533333333333"/>
      <point x="78.13333333333334" y="416.62666666666667" type="curve" smooth="yes"/>
      <point x="78.13333333333334" y="153.36"/>
      <point x="254.01333333333332" y="-20.0"/>
    </contour>
  </outline>
</glyph>
<glyph name="q" format="2">
	<unicode hex="0071"/>
	<advance width="1007.0266666667"/>
	<outline>
		<contour>
			<point x="187.9733333333" y="416.2133333333" type="curve" smooth="yes"/>
			<point x="187.9733333333" y="660.28"/>
			<point x="304.52" y="813.44"/>
			<point x="521.7733333333" y="813.44" type="curve" smooth="yes"/>
			<point x="659.8666666667" y="813.44"/>
			<point x="762.52" y="740.0933333333"/>
			<point x="762.52" y="654.28" type="curve" smooth="yes"/>
			<point x="762.52" y="-447.56" type="line"/>
			<point x="591.2666666667" y="-481.7733333333" type="line"/>
			<point x="591.2666666667" y="-510" type="line"/>
			<point x="1012.8933333333" y="-510" type="line"/>
			<point x="1012.8933333333" y="-481.7733333333" type="line"/>
			<point x="860.8933333333" y="-447.56" type="line"/>
			<point x="860.8933333333" y="685.8533333333" type="line"/>
			<point x="889.7866666667" y="878.56" type="line"/>
			<point x="866.56" y="886.1733333333" type="line"/>
			<point x="758.44" y="790.6133333333" type="line"/>
			<point x="829.6" y="804.4" type="line"/>
			<point x="724.4933333333" y="854.3866666667"/>
			<point x="650.4" y="872"/>
			<point x="552.24" y="872" type="curve" smooth="yes"/>
			<point x="285.2666666667" y="872"/>
			<point x="79.1333333333" y="691.6666666667"/>
			<point x="79.1333333333" y="390.7733333333" type="curve" smooth="yes"/>
			<point x="79.1333333333" y="135.6"/>
			<point x="213.76" y="-20"/>
			<point x="466.0133333333" y="-20" type="curve" smooth="yes"/>
			<point x="554.7333333333" y="-20"/>
			<point x="625.8666666667" y="8.4666666667"/>
			<point x="821.2533333333" y="124.92" type="curve"/>
			<point x="821.2533333333" y="175.8666666667" type="line"/>
			<point x="714.4266666667" y="93.56"/>
			<point x="609.5333333333" y="59.8"/>
			<point x="501.1866666667" y="59.8" type="curve" smooth="yes"/>
			<point x="312" y="59.8"/>
			<point x="187.9733333333" y="190.5733333333"/>
		</contour>
	</outline>
	<anchor name="top" x="515.7066666667" y="852"/>
	<anchor name="bottom" x="810.2133333333" y="-510"/>
</glyph>
<glyph name="r" format="2">
	<unicode hex="0072"/>
	<advance width="681.0533333333"/>
	<outline>
		<contour>
			<point x="584.1066666667" y="865" type="curve" smooth="yes"/>
			<point x="530.8933333333" y="865"/>
			<point x="450.84" y="833.44"/>
			<point x="273.16" y="698.0133333333" type="curve"/>
			<point x="290.7733333333" y="674.2933333333" type="line"/>
			<point x="349.8266666667" y="721.3333333333"/>
			<point x="415.9466666667" y="742.3333333333"/>
			<point x="460.6933333333" y="742.3333333333" type="curve" smooth="yes"/>
			<point x="513.0533333333" y="742.3333333333"/>
			<point x="540.64" y="721.8666666667"/>
			<point x="577.12" y="721.8666666667" type="curve" smooth="yes"/>
			<point x="626.32" y="721.8666666667"/>
			<point x="656.6666666667" y="753.0933333333"/>
			<point x="656.6666666667" y="798.0533333333" type="curve" smooth="yes"/>
			<point x="656.6666666667" y="838.1466666667"/>
			<point x="635.8133333333" y="865"/>
		</contour>
		<contour>
			<point x="301.6266666667" y="700.28" type="line"/>
			<point x="297.8933333333" y="872" type="line"/>
			<point x="285.04" y="872" type="line"/>
			<point x="47.7333333333" y="800.7066666667" type="line"/>
			<point x="47.7333333333" y="778.2133333333" type="line"/>
			<point x="121.7333333333" y="759.6053333333"/>
			<point x="177.2533333333" y="744.992"/>
			<point x="203.2533333333" y="731.6533333333" type="curve"/>
			<point x="203.2533333333" y="62.44" type="line"/>
			<point x="51.2533333333" y="28.2266666667" type="line"/>
			<point x="51.2533333333" y="0" type="line"/>
			<point x="467.28" y="0" type="line"/>
			<point x="467.28" y="28.2266666667" type="line"/>
			<point x="301.6266666667" y="62.44" type="line"/>
		</contour>
	</outline>
	<anchor name="top" x="355" y="852"/>
	<anchor name="bottom" x="252.44" y="0"/>
</glyph>
<glyph name="s" format="2">
	<unicode hex="0073"/>
	<advance width="698.8533333333"/>
	<outline>
		<contour>
			<point x="373.48" y="872" type="curve" smooth="yes"/>
			<point x="225.3866666667" y="872"/>
			<point x="107.2666666667" y="776.8533333333"/>
			<point x="107.2666666667" y="645.52" type="curve" smooth="yes"/>
			<point x="107.2666666667" y="507.6533333333"/>
			<point x="201.3066666667" y="456.0533333333"/>
			<point x="306.4533333333" y="410.8133333333" type="curve" smooth="yes"/>
			<point x="411.6" y="365.5733333333"/>
			<point x="522.4533333333" y="332.6933333333"/>
			<point x="522.4533333333" y="214.1733333333" type="curve" smooth="yes"/>
			<point x="522.4533333333" y="96.6266666667"/>
			<point x="435.56" y="26.8266666667"/>
			<point x="295.1466666667" y="26.8266666667" type="curve" smooth="yes"/>
			<point x="231.9733333333" y="26.8266666667"/>
			<point x="185.1866666667" y="37.0933333333"/>
			<point x="129.6133333333" y="67.8266666667" type="curve"/>
			<point x="214.0133333333" y="9.2533333333" type="line"/>
			<point x="110.72" y="254.4933333333" type="line"/>
			<point x="80.64" y="254.4933333333" type="line"/>
			<point x="109.9733333333" y="14.7466666667" type="line"/>
			<point x="166.84" y="-8.7466666667"/>
			<point x="230.7333333333" y="-20"/>
			<point x="312.12" y="-20" type="curve" smooth="yes"/>
			<point x="483.48" y="-20"/>
			<point x="611.72" y="79.4"/>
			<point x="611.72" y="236.2533333333" type="curve" smooth="yes"/>
			<point x="611.72" y="394.5066666667"/>
			<point x="497.08" y="448.24"/>
			<point x="391.44" y="491.1066666667" type="curve" smooth="yes"/>
			<point x="285.8" y="533.9733333333"/>
			<point x="190.04" y="568.9733333333"/>
			<point x="190.04" y="674.4933333333" type="curve" smooth="yes"/>
			<point x="190.04" y="762.52"/>
			<point x="252.04" y="821.4266666667"/>
			<point x="372.0933333333" y="821.4266666667" type="curve" smooth="yes"/>
			<point x="430.48" y="821.4266666667"/>
			<point x="475.8666666667" y="806.8133333333"/>
			<point x="535.2666666667" y="760.92" type="curve"/>
			<point x="469.7733333333" y="831.76" type="line"/>
			<point x="562.1333333333" y="596.28" type="line"/>
			<point x="591.3466666667" y="596.28" type="line"/>
			<point x="571.3333333333" y="825.3866666667" type="line"/>
			<point x="504.6133333333" y="859"/>
			<point x="451.8666666667" y="872"/>
		</contour>
	</outline>
	<anchor name="top" x="344.3333333333" y="852"/>
	<anchor name="bottom" x="370.8933333333" y="0"/>
</glyph>
<glyph name="t" format="2">
	<unicode hex="0074"/>
	<advance width="601.64"/>
	<outline>
		<contour>
			<point x="260.2533333333" y="214.9333333333" type="curve" smooth="yes"/>
			<point x="260.2533333333" y="821.3733333333" type="line"/>
			<point x="260.2533333333" y="954.1733333333" type="line"/>
			<point x="243.04" y="954.1733333333" type="line"/>
			<point x="184.3466666667" y="912.1066666667"/>
			<point x="116.2266666667" y="866.88"/>
			<point x="55.1333333333" y="826.2933333333" type="curve"/>
			<point x="55.1333333333" y="814.56" type="line"/>
			<point x="161.88" y="758.36" type="line"/>
			<point x="161.88" y="184.08" type="line" smooth="yes"/>
			<point x="161.88" y="49.6"/>
			<point x="251.2666666667" y="-12.24"/>
			<point x="363.5866666667" y="-12.24" type="curve" smooth="yes"/>
			<point x="427.4533333333" y="-12.24"/>
			<point x="465.2533333333" y="-1.8933333333"/>
			<point x="591.28" y="65.6933333333" type="curve"/>
			<point x="591.28" y="97.6533333333" type="line"/>
			<point x="522.8933333333" y="79.9066666667"/>
			<point x="466.0133333333" y="70.9066666667"/>
			<point x="419.3866666667" y="70.9066666667" type="curve" smooth="yes"/>
			<point x="310.6133333333" y="70.9066666667"/>
			<point x="260.2533333333" y="119.2933333333"/>
		</contour>
		<contour>
			<point x="205.1333333333" y="783.8133333333" type="line"/>
			<point x="548.16" y="783.8133333333" type="line"/>
			<point x="562.28" y="852" type="line"/>
			<point x="205.1333333333" y="852" type="line"/>
		</contour>
	</outline>
	<anchor name="bottom" x="358.2266666667" y="0"/>
	<anchor name="right" x="247.6933333333" y="1331.7866666667"/>
</glyph>
<glyph name="u" format="2">
	<unicode hex="0075"/>
	<advance width="1017.36"/>
	<outline>
		<contour>
			<point x="274.8933333333" y="288.8933333333" type="curve" smooth="yes"/>
			<point x="274.8933333333" y="775.4266666667" type="line"/>
			<point x="284.52" y="868.2533333333" type="line"/>
			<point x="4.44" y="852.3733333333" type="line"/>
			<point x="4.44" y="823.4" type="line"/>
			<point x="176.52" y="774.68" type="line"/>
			<point x="176.52" y="265.32" type="line" smooth="yes"/>
			<point x="176.52" y="68.84"/>
			<point x="248.64" y="-20"/>
			<point x="426.8133333333" y="-20" type="curve" smooth="yes"/>
			<point x="534.3733333333" y="-20"/>
			<point x="616.48" y="11.8266666667"/>
			<point x="773.6666666667" y="161.0933333333" type="curve"/>
			<point x="746.9466666667" y="181.5466666667" type="line"/>
			<point x="664.6933333333" y="104.7333333333"/>
			<point x="564.9333333333" y="75.1333333333"/>
			<point x="489.3466666667" y="75.1333333333" type="curve" smooth="yes"/>
			<point x="323.7866666667" y="75.1333333333"/>
			<point x="274.8933333333" y="123.6533333333"/>
		</contour>
		<contour>
			<point x="743.3066666667" y="-18.5066666667" type="line"/>
			<point x="756.4133333333" y="-18.5066666667" type="line"/>
			<point x="997.92" y="47.12" type="line"/>
			<point x="997.92" y="69.6" type="line"/>
			<point x="955.92" y="75.1661538462"/>
			<point x="860.4533333333" y="95.1793406593"/>
			<point x="836.4533333333" y="106.7866666667" type="curve"/>
			<point x="836.4533333333" y="775.4266666667" type="line"/>
			<point x="846.4533333333" y="868.2533333333" type="line"/>
			<point x="565.6266666667" y="852.3733333333" type="line"/>
			<point x="565.6266666667" y="823.4" type="line"/>
			<point x="737.7066666667" y="774.68" type="line"/>
			<point x="737.7066666667" y="152.84" type="line"/>
		</contour>
	</outline>
	<anchor name="top" x="474.8133333333" y="852"/>
	<anchor name="right" x="941.52" y="0"/>
	<anchor name="bottom" x="506.0933333333" y="0"/>
	<anchor name="horn" x="762.7733333333" y="850.88"/>
</glyph>
<glyph name="v" format="2">
	<unicode hex="0076"/>
	<advance width="1005.0266666667"/>
	<outline>
		<contour>
			<point x="851.1066666667" y="791.4266666667" type="line"/>
			<point x="973.7733333333" y="821.5333333333" type="line"/>
			<point x="973.7733333333" y="852" type="line"/>
			<point x="649.76" y="852" type="line"/>
			<point x="649.76" y="821.5333333333" type="line"/>
			<point x="793.5466666667" y="791.4266666667" type="line"/>
			<point x="529.5866666667" y="89.7866666667" type="line"/>
			<point x="552.7333333333" y="89.7866666667" type="line"/>
			<point x="239.6533333333" y="789.56" type="line"/>
			<point x="383.44" y="821.5333333333" type="line"/>
			<point x="383.44" y="852" type="line"/>
			<point x="-8.1333333333" y="852" type="line"/>
			<point x="-8.1333333333" y="821.5333333333" type="line"/>
			<point x="133.4133333333" y="787.6933333333" type="line"/>
			<point x="497.7733333333" y="-20" type="line"/>
			<point x="534.4933333333" y="-20" type="line"/>
		</contour>
	</outline>
	<anchor name="top" x="509.88" y="852"/>
	<anchor name="bottom" x="510.7733333333" y="0"/>
</glyph>
<glyph name="w" format="2">
	<unicode hex="0077"/>
	<advance width="1423.6133333333"/>
	<outline>
		<contour>
			<point x="1221.0133333333" y="791.4266666667" type="line"/>
			<point x="1024.8533333333" y="109.2133333333" type="line"/>
			<point x="1049.32" y="109.2133333333" type="line"/>
			<point x="749.32" y="872" type="line"/>
			<point x="718.4533333333" y="872" type="line"/>
			<point x="424.5733333333" y="89.7866666667" type="line"/>
			<point x="456.56" y="102.32" type="line"/>
			<point x="247.7866666667" y="789.56" type="line"/>
			<point x="391.5733333333" y="821.5333333333" type="line"/>
			<point x="391.5733333333" y="852" type="line"/>
			<point x="3.12" y="852" type="line"/>
			<point x="3.12" y="821.5333333333" type="line"/>
			<point x="144.6666666667" y="787.6933333333" type="line"/>
			<point x="394.6266666667" y="-20" type="line"/>
			<point x="431.3466666667" y="-20" type="line"/>
			<point x="721.4666666667" y="741.92" type="line"/>
			<point x="698.2533333333" y="741.92" type="line"/>
			<point x="998.3866666667" y="-20" type="line"/>
			<point x="1035.1066666667" y="-20" type="line"/>
			<point x="1277.32" y="791.4266666667" type="line"/>
			<point x="1399.9866666667" y="821.5333333333" type="line"/>
			<point x="1399.9866666667" y="852" type="line"/>
			<point x="1077.2266666667" y="852" type="line"/>
			<point x="1077.2266666667" y="821.5333333333" type="line"/>
		</contour>
	</outline>
	<anchor name="top" x="721.5733333333" y="852"/>
	<anchor name="bottom" x="732.2266666667" y="0"/>
</glyph>
<glyph name="x" format="2">
	<unicode hex="0078"/>
	<advance width="981.92"/>
	<outline>
		<contour>
			<point x="834.7733333333" y="64.3066666667" type="line"/>
			<point x="529.1066666667" y="470.36" type="line"/>
			<point x="512.2533333333" y="489.84" type="line"/>
			<point x="288.0533333333" y="789.56" type="line"/>
			<point x="429.2266666667" y="821.5333333333" type="line"/>
			<point x="429.2266666667" y="852" type="line"/>
			<point x="40.2666666667" y="852" type="line"/>
			<point x="40.2666666667" y="821.5333333333" type="line"/>
			<point x="175.5466666667" y="787.6933333333" type="line"/>
			<point x="452.8133333333" y="418.4266666667" type="line"/>
			<point x="467.6666666667" y="400.9466666667" type="line"/>
			<point x="722.2666666667" y="62.44" type="line"/>
			<point x="581.0933333333" y="30.4666666667" type="line"/>
			<point x="581.0933333333" y="0" type="line"/>
			<point x="970.0533333333" y="0" type="line"/>
			<point x="970.0533333333" y="30.4666666667" type="line"/>
		</contour>
		<contour>
			<point x="496.0266666667" y="417.3066666667" type="line"/>
			<point x="516.9866666667" y="434.2666666667" type="line"/>
			<point x="813.12" y="791.4266666667" type="line"/>
			<point x="935.7866666667" y="821.5333333333" type="line"/>
			<point x="935.7866666667" y="852" type="line"/>
			<point x="611.7733333333" y="852" type="line"/>
			<point x="611.7733333333" y="821.5333333333" type="line"/>
			<point x="747.2" y="791.4266666667" type="line"/>
			<point x="489.1466666667" y="472.9733333333" type="line"/>
			<point x="465.9333333333" y="454.1333333333" type="line"/>
			<point x="138.6533333333" y="60.5733333333" type="line"/>
			<point x="16.36" y="30.4666666667" type="line"/>
			<point x="16.36" y="0" type="line"/>
			<point x="341.8666666667" y="0" type="line"/>
			<point x="341.8666666667" y="30.4666666667" type="line"/>
			<point x="204.9466666667" y="60.5733333333" type="line"/>
		</contour>
	</outline>
	<anchor name="top" x="499.1466666667" y="852"/>
	<anchor name="bottom" x="494.76" y="0"/>
</glyph>
<glyph name="y" format="2">
  <advance width="1007"/>
  <unicode hex="0079"/>
  <anchor x="519.2266666666667" y="852.0" name="top"/>
  <anchor x="653.4666666666667" y="-177.93333333333334" name="bottom"/>
  <outline>
    <contour>
      <point x="572.12" y="81.2" type="line"/>
      <point x="254.28" y="789.56" type="line"/>
      <point x="398.06666666666666" y="821.5333333333333" type="line"/>
      <point x="398.06666666666666" y="852.0" type="line"/>
      <point x="6.493333333333333" y="852.0" type="line"/>
      <point x="6.493333333333333" y="821.5333333333333" type="line"/>
      <point x="148.04" y="787.6933333333334" type="line"/>
      <point x="514.92" y="-26.346666666666664" type="line"/>
    </contour>
    <contour>
      <point x="211.85333333333332" y="-530.0" type="curve" smooth="yes"/>
      <point x="320.48" y="-530.0"/>
      <point x="392.6" y="-461.62666666666667"/>
      <point x="474.5733333333333" y="-245.06666666666666" type="curve" smooth="yes"/>
      <point x="866.48" y="791.4266666666666" type="line"/>
      <point x="988.4" y="821.5333333333333" type="line"/>
      <point x="988.4" y="852.0" type="line"/>
      <point x="662.8933333333333" y="852.0" type="line"/>
      <point x="662.8933333333333" y="821.5333333333333" type="line"/>
      <point x="807.0533333333333" y="791.4266666666666" type="line"/>
      <point x="550.4666666666667" y="87.17333333333333" type="line"/>
      <point x="525.6533333333333" y="18.96" type="line"/>
      <point x="424.32" y="-231.41333333333333" type="line" smooth="yes"/>
      <point x="364.0" y="-378.5733333333333"/>
      <point x="321.3466666666667" y="-405.84000000000003"/>
      <point x="268.6933333333333" y="-405.84000000000003" type="curve" smooth="yes"/>
      <point x="222.44" y="-405.84000000000003"/>
      <point x="192.68" y="-376.1066666666667"/>
      <point x="160.45333333333332" y="-376.1066666666667" type="curve" smooth="yes"/>
      <point x="128.85333333333332" y="-376.1066666666667"/>
      <point x="102.25333333333333" y="-403.08"/>
      <point x="102.25333333333333" y="-442.8" type="curve" smooth="yes"/>
      <point x="102.25333333333333" y="-496.8933333333333"/>
      <point x="146.36" y="-530.0"/>
    </contour>
  </outline>
</glyph>
<glyph name="z" format="2">
	<unicode hex="007A"/>
	<advance width="800.08"/>
	<outline>
		<contour>
			<point x="63.3733333333" y="0" type="line"/>
			<point x="695.84" y="0" type="line"/>
			<point x="759.84" y="269" type="line"/>
			<point x="725.7466666667" y="269" type="line"/>
			<point x="583.0133333333" y="32" type="line"/>
			<point x="624.1066666667" y="54.9333333333" type="line"/>
			<point x="148.36" y="54.9333333333" type="line"/>
			<point x="180.36" y="33.7333333333" type="line"/>
			<point x="727.3066666667" y="834.2666666667" type="line"/>
			<point x="727.3066666667" y="852" type="line"/>
			<point x="210.9866666667" y="852" type="line"/>
			<point x="138.48" y="872" type="line"/>
			<point x="117.76" y="872" type="line"/>
			<point x="77.76" y="585" type="line"/>
			<point x="108.48" y="585" type="line"/>
			<point x="233.8266666667" y="826" type="line"/>
			<point x="154.76" y="797.0666666667" type="line"/>
			<point x="646.68" y="797.0666666667" type="line"/>
			<point x="607.5733333333" y="816.2666666667" type="line"/>
			<point x="63.3733333333" y="17.7333333333" type="line"/>
		</contour>
	</outline>
	<anchor name="top" x="421.1866666667" y="852"/>
	<anchor name="bottom" x="411.08" y="0"/>
</glyph>
<glyph name="braceleft" format="2">
	<unicode hex="007B"/>
	<advance width="578.52"/>
	<outline>
		<contour>
			<point x="35.6533333333" y="545.28" type="line"/>
			<point x="131.6666666667" y="541.6533333333" type="line" smooth="yes"/>
			<point x="225.2933333333" y="538.0266666667"/>
			<point x="260.3866666667" y="487.7466666667"/>
			<point x="260.3866666667" y="403.12" type="curve" smooth="yes"/>
			<point x="260.3866666667" y="239.12"/>
			<point x="208.5066666667" y="133.8533333333"/>
			<point x="208.5066666667" y="15.8533333333" type="curve" smooth="yes"/>
			<point x="208.5066666667" y="-119.1466666667"/>
			<point x="289.0164070875" y="-245.1816407087"/>
			<point x="459.6533333333" y="-264" type="curve" smooth="yes"/>
			<point x="532.1333333333" y="-272" type="line"/>
			<point x="537.2533333333" y="-229.1733333333" type="line"/>
			<point x="474.88" y="-221.8" type="line" smooth="yes"/>
			<point x="354.6533333333" y="-207.68"/>
			<point x="311.64" y="-134.8266666667"/>
			<point x="311.64" y="-24.2933333333" type="curve" smooth="yes"/>
			<point x="311.64" y="86.84"/>
			<point x="348.1466666667" y="206.6"/>
			<point x="348.1466666667" y="348.36" type="curve" smooth="yes"/>
			<point x="348.1466666667" y="452.0266666667"/>
			<point x="304.1866666667" y="554.5333333333"/>
			<point x="169.1866666667" y="580.88" type="curve"/>
			<point x="169.1866666667" y="557.12" type="line"/>
			<point x="304.1866666667" y="582.84"/>
			<point x="348.1466666667" y="685.9733333333"/>
			<point x="348.1466666667" y="789.64" type="curve" smooth="yes"/>
			<point x="348.1466666667" y="931.4"/>
			<point x="311.64" y="1051.16"/>
			<point x="311.64" y="1162.2933333333" type="curve" smooth="yes"/>
			<point x="311.64" y="1272.8266666667"/>
			<point x="354.6533333333" y="1345.68"/>
			<point x="474.88" y="1359.8" type="curve" smooth="yes"/>
			<point x="537.2533333333" y="1367.1733333333" type="line"/>
			<point x="532.1333333333" y="1410" type="line"/>
			<point x="459.6533333333" y="1402" type="line" smooth="yes"/>
			<point x="289.0166348353" y="1382.5549968169"/>
			<point x="208.5066666667" y="1257.1466666667"/>
			<point x="208.5066666667" y="1122.1466666667" type="curve" smooth="yes"/>
			<point x="208.5066666667" y="1004.1466666667"/>
			<point x="260.3866666667" y="898.88"/>
			<point x="260.3866666667" y="734.88" type="curve" smooth="yes"/>
			<point x="260.3866666667" y="650.2533333333"/>
			<point x="225.2933333333" y="599.3466666667"/>
			<point x="131.6666666667" y="595.72" type="curve" smooth="yes"/>
			<point x="35.6533333333" y="592.0933333333" type="line"/>
		</contour>
	</outline>
</glyph>
<glyph name="bar" format="2">
  <advance width="456"/>
  <unicode hex="007C"/>
  <outline>
    <contour>
      <point x="191.13333333333333" y="-530.0" type="line"/>
      <point x="265.29333333333335" y="-530.0" type="line"/>
      <point x="265.29333333333335" y="1470.0" type="line"/>
      <point x="191.13333333333333" y="1470.0" type="line"/>
    </contour>
  </outline>
</glyph>
<glyph name="braceright" format="2">
	<unicode hex="007D"/>
	<advance width="578.52"/>
	<outline>
		<contour>
			<point x="542.8666666667" y="592.72" type="line"/>
			<point x="446.8533333333" y="596.3466666667" type="line" smooth="yes"/>
			<point x="353.2266666667" y="599.9733333333"/>
			<point x="318.1333333333" y="650.2533333333"/>
			<point x="318.1333333333" y="734.88" type="curve" smooth="yes"/>
			<point x="318.1333333333" y="898.88"/>
			<point x="370.0133333333" y="1004.1466666667"/>
			<point x="370.0133333333" y="1122.1466666667" type="curve" smooth="yes"/>
			<point x="370.0133333333" y="1257.1466666667"/>
			<point x="289.4533333333" y="1383"/>
			<point x="118.8666666667" y="1402" type="curve" smooth="yes"/>
			<point x="46.3866666667" y="1410" type="line"/>
			<point x="41.2666666667" y="1367.1733333333" type="line"/>
			<point x="103.64" y="1359.8" type="line" smooth="yes"/>
			<point x="223.8666666667" y="1345.68"/>
			<point x="266.88" y="1272.8266666667"/>
			<point x="266.88" y="1162.2933333333" type="curve" smooth="yes"/>
			<point x="266.88" y="1051.16"/>
			<point x="230.3733333333" y="931.4"/>
			<point x="230.3733333333" y="789.64" type="curve" smooth="yes"/>
			<point x="230.3733333333" y="685.9733333333"/>
			<point x="274.3333333333" y="583.4666666667"/>
			<point x="409.3333333333" y="557.12" type="curve"/>
			<point x="409.3333333333" y="580.88" type="line"/>
			<point x="274.3333333333" y="555.16"/>
			<point x="230.3733333333" y="452.0266666667"/>
			<point x="230.3733333333" y="348.36" type="curve" smooth="yes"/>
			<point x="230.3733333333" y="206.6"/>
			<point x="266.88" y="86.84"/>
			<point x="266.88" y="-24.2933333333" type="curve" smooth="yes"/>
			<point x="266.88" y="-134.8266666667"/>
			<point x="223.8666666667" y="-207.68"/>
			<point x="103.64" y="-221.8" type="curve" smooth="yes"/>
			<point x="41.2666666667" y="-229.1733333333" type="line"/>
			<point x="46.3866666667" y="-272" type="line"/>
			<point x="118.8666666667" y="-264" type="line" smooth="yes"/>
			<point x="289.4533333333" y="-244.3733333333"/>
			<point x="370.0133333333" y="-119.1466666667"/>
			<point x="370.0133333333" y="15.8533333333" type="curve" smooth="yes"/>
			<point x="370.0133333333" y="133.8533333333"/>
			<point x="318.1333333333" y="239.12"/>
			<point x="318.1333333333" y="403.12" type="curve" smooth="yes"/>
			<point x="318.1333333333" y="487.7466666667"/>
			<point x="353.2266666667" y="538.6533333333"/>
			<point x="446.8533333333" y="542.28" type="curve" smooth="yes"/>
			<point x="542.8666666667" y="545.9066666667" type="line"/>
		</contour>
	</outline>
</glyph>
<glyph name="asciitilde" format="2">
	<unicode hex="007E"/>
	<advance width="1000"/>
	<outline>
		<contour>
			<point x="142" y="335" type="curve"/>
			<point x="201.1733333333" y="335" type="line"/>
			<point x="213.0666666667" y="437.5466666667"/>
			<point x="245.2" y="484.1866666667"/>
			<point x="337.7333333333" y="484.1866666667" type="curve" smooth="yes"/>
			<point x="465.6533333333" y="484.1866666667"/>
			<point x="509" y="328"/>
			<point x="663" y="328" type="curve" smooth="yes"/>
			<point x="760.9866666667" y="328"/>
			<point x="852.9866666667" y="373"/>
			<point x="860" y="537" type="curve"/>
			<point x="800.8266666667" y="537" type="line"/>
			<point x="789.56" y="434.4533333333"/>
			<point x="756.8" y="387.8133333333"/>
			<point x="664.2666666667" y="387.8133333333" type="curve" smooth="yes"/>
			<point x="536.9733333333" y="387.8133333333"/>
			<point x="493" y="543.3733333333"/>
			<point x="339" y="543.3733333333" type="curve" smooth="yes"/>
			<point x="241.64" y="543.3733333333"/>
			<point x="149.0133333333" y="498.3733333333"/>
		</contour>
	</outline>
</glyph>
<glyph name="exclamdown" format="2">
  <advance width="415"/>
  <unicode hex="00A1"/>
  <outline>
    <contour>
      <point x="147.24" y="-470.37333333333333" type="line" smooth="yes"/>
      <point x="146.86666666666667" y="-495.24"/>
      <point x="171.32" y="-505.73333333333335"/>
      <point x="206.42666666666668" y="-505.73333333333335" type="curve" smooth="yes"/>
      <point x="241.53333333333333" y="-505.73333333333335"/>
      <point x="266.61333333333334" y="-495.24"/>
      <point x="266.24" y="-470.37333333333333" type="curve" smooth="yes"/>
      <point x="264.74666666666667" y="-396.24" type="line" smooth="yes"/>
      <point x="263.62666666666667" y="-326.41333333333336"/>
      <point x="237.89333333333332" y="119.42666666666668"/>
      <point x="229.53333333333333" y="452.0" type="curve"/>
      <point x="185.82666666666665" y="452.0" type="line"/>
      <point x="177.46666666666667" y="119.42666666666668"/>
      <point x="149.85333333333332" y="-328.29333333333335"/>
      <point x="148.73333333333332" y="-396.24" type="curve" smooth="yes"/>
    </contour>
    <contour>
      <point x="207.17333333333335" y="773.1466666666666" type="curve" smooth="yes"/>
      <point x="205.10666666666665" y="773.1466666666666"/>
      <point x="202.84" y="770.3733333333333"/>
      <point x="202.84" y="767.44" type="curve" smooth="yes"/>
      <point x="202.84" y="764.5066666666667"/>
      <point x="205.10666666666665" y="761.7333333333333"/>
      <point x="207.17333333333335" y="761.7333333333333" type="curve" smooth="yes"/>
      <point x="209.24" y="761.7333333333333"/>
      <point x="211.50666666666666" y="764.5066666666667"/>
      <point x="211.50666666666666" y="767.44" type="curve" smooth="yes"/>
      <point x="211.50666666666666" y="770.3733333333333"/>
      <point x="209.24" y="773.1466666666666"/>
    </contour>
  </outline>
</glyph>
<glyph name="currency" format="2">
	<unicode hex="00A4"/>
	<advance width="866.72"/>
	<outline>
		<contour>
			<point x="170.96" y="737.3466666667" type="line"/>
			<point x="129.5066666667" y="695.8933333333" type="line"/>
			<point x="240.04" y="585.36" type="line"/>
			<point x="281.4933333333" y="626.8133333333" type="line"/>
		</contour>
		<contour>
			<point x="129.5066666667" y="172.3466666667" type="line"/>
			<point x="170.96" y="130.8933333333" type="line"/>
			<point x="282.88" y="242.8133333333" type="line"/>
			<point x="241.4266666667" y="284.2666666667" type="line"/>
		</contour>
		<contour>
			<point x="434.6133333333" y="703" type="curve" smooth="yes"/>
			<point x="278.6133333333" y="703"/>
			<point x="166.6133333333" y="592"/>
			<point x="166.6133333333" y="436" type="curve" smooth="yes"/>
			<point x="166.6133333333" y="280"/>
			<point x="278.6133333333" y="169"/>
			<point x="434.6133333333" y="169" type="curve" smooth="yes"/>
			<point x="590.6133333333" y="169"/>
			<point x="702.6133333333" y="280"/>
			<point x="702.6133333333" y="436" type="curve" smooth="yes"/>
			<point x="702.6133333333" y="592"/>
			<point x="590.6133333333" y="703"/>
		</contour>
		<contour>
			<point x="434.6133333333" y="223.1866666667" type="curve" smooth="yes"/>
			<point x="312.8266666667" y="223.1866666667"/>
			<point x="226.4266666667" y="308.5866666667"/>
			<point x="226.4266666667" y="436" type="curve" smooth="yes"/>
			<point x="226.4266666667" y="563.4133333333"/>
			<point x="312.8266666667" y="648.8133333333"/>
			<point x="434.6133333333" y="648.8133333333" type="curve" smooth="yes"/>
			<point x="556.4" y="648.8133333333"/>
			<point x="642.8" y="563.4133333333"/>
			<point x="642.8" y="436" type="curve" smooth="yes"/>
			<point x="642.8" y="308.5866666667"/>
			<point x="556.4" y="223.1866666667"/>
		</contour>
		<contour>
			<point x="735.96" y="695.8933333333" type="line"/>
			<point x="694.5066666667" y="737.3466666667" type="line"/>
			<point x="587.7333333333" y="630.5733333333" type="line"/>
			<point x="629.1866666667" y="589.12" type="line"/>
		</contour>
		<contour>
			<point x="735.96" y="172.3466666667" type="line"/>
			<point x="628.4266666667" y="279.88" type="line"/>
			<point x="586.9733333333" y="238.4266666667" type="line"/>
			<point x="694.5066666667" y="130.8933333333" type="line"/>
		</contour>
	</outline>
</glyph>
<glyph name="brokenbar" format="2">
  <advance width="456.4266666666667"/>
  <unicode hex="00A6"/>
  <outline>
    <contour>
      <point x="265.29333333333335" y="660.0" type="line"/>
      <point x="265.29333333333335" y="1470.0" type="line"/>
      <point x="191.13333333333333" y="1470.0" type="line"/>
      <point x="191.13333333333333" y="660.0" type="line"/>
    </contour>
    <contour>
      <point x="191.13333333333333" y="-530.0" type="line"/>
      <point x="265.29333333333335" y="-530.0" type="line"/>
      <point x="265.29333333333335" y="280.0" type="line"/>
      <point x="191.13333333333333" y="280.0" type="line"/>
    </contour>
  </outline>
</glyph>
<glyph name="section" format="2">
	<unicode hex="00A7"/>
	<advance width="990.3466666667"/>
	<outline>
		<contour>
			<point x="440.4266666667" y="-275" type="curve" smooth="yes"/>
			<point x="651.4354385965" y="-275"/>
			<point x="801.4666666667" y="-155.1606080347"/>
			<point x="801.4666666667" y="14.6133333333" type="curve" smooth="yes"/>
			<point x="801.4666666667" y="405.64"/>
			<point x="170.9066666667" y="262.2133333333"/>
			<point x="170.9066666667" y="583.04" type="curve" smooth="yes"/>
			<point x="170.9066666667" y="698.8795663957"/>
			<point x="243.7575907115" y="796.2008863614"/>
			<point x="398.0133333333" y="834.48" type="curve"/>
			<point x="372.4133333333" y="871.2933333333" type="line"/>
			<point x="170.8759625555" y="815.1926374278"/>
			<point x="82.1333333333" y="702.8088262911"/>
			<point x="82.1333333333" y="560.5733333333" type="curve" smooth="yes"/>
			<point x="82.1333333333" y="174.4266666667"/>
			<point x="715.44" y="302.2266666667"/>
			<point x="715.44" y="-12.2133333333" type="curve" smooth="yes"/>
			<point x="715.44" y="-145.3848484848"/>
			<point x="612.0417777778" y="-225.1866666667"/>
			<point x="458.2933333333" y="-225.1866666667" type="curve" smooth="yes"/>
			<point x="311.32" y="-225.1866666667"/>
			<point x="296.9066666667" y="-72.2"/>
			<point x="205.8133333333" y="-72.2" type="curve" smooth="yes"/>
			<point x="164.3333333333" y="-72.2"/>
			<point x="135.7333333333" y="-100.56"/>
			<point x="135.7333333333" y="-140.6533333333" type="curve" smooth="yes"/>
			<point x="135.7333333333" y="-200.2666666667"/>
			<point x="217.36" y="-275"/>
		</contour>
		<contour>
			<point x="818.6933333333" y="534.4933333333" type="curve" smooth="yes"/>
			<point x="818.6933333333" y="413.65218107"/>
			<point x="726.5333333333" y="311.5466666667"/>
			<point x="557.7866666667" y="282.1866666667" type="curve"/>
			<point x="595.88" y="245.4933333333" type="line"/>
			<point x="787.3733333333" y="285.72"/>
			<point x="907.4666666667" y="406.9501851852"/>
			<point x="907.4666666667" y="560.72" type="curve" smooth="yes"/>
			<point x="907.4666666667" y="947.4933333333"/>
			<point x="279.1733333333" y="819.6933333333"/>
			<point x="279.1733333333" y="1109.7466666667" type="curve" smooth="yes"/>
			<point x="279.1733333333" y="1230.16"/>
			<point x="371.32" y="1310.1866666667"/>
			<point x="527.3733333333" y="1310.1866666667" type="curve" smooth="yes"/>
			<point x="674.3466666667" y="1310.1866666667"/>
			<point x="688.76" y="1157.2"/>
			<point x="779.8533333333" y="1157.2" type="curve" smooth="yes"/>
			<point x="821.3333333333" y="1157.2"/>
			<point x="849.9333333333" y="1185.56"/>
			<point x="849.9333333333" y="1225.6533333333" type="curve" smooth="yes"/>
			<point x="849.9333333333" y="1285.2666666667"/>
			<point x="768.3066666667" y="1360"/>
			<point x="545.24" y="1360" type="curve" smooth="yes"/>
			<point x="333.7466666667" y="1360"/>
			<point x="192.52" y="1253"/>
			<point x="192.52" y="1084.7733333333" type="curve" smooth="yes"/>
			<point x="192.52" y="709.92"/>
			<point x="818.6933333333" y="856.5733333333"/>
		</contour>
	</outline>
</glyph>
<glyph name="copyright" format="2">
	<unicode hex="00A9"/>
	<advance width="1611.2266666667"/>
	<outline>
		<contour>
			<point x="805.6133333333" y="1360" type="curve" smooth="yes"/>
			<point x="399.6133333333" y="1360"/>
			<point x="114.88" y="1074"/>
			<point x="114.88" y="670" type="curve" smooth="yes"/>
			<point x="114.88" y="266"/>
			<point x="399.6133333333" y="-20"/>
			<point x="805.6133333333" y="-20" type="curve" smooth="yes"/>
			<point x="1211.6133333333" y="-20"/>
			<point x="1496.3466666667" y="266"/>
			<point x="1496.3466666667" y="670" type="curve" smooth="yes"/>
			<point x="1496.3466666667" y="1074"/>
			<point x="1211.6133333333" y="1360"/>
		</contour>
		<contour>
			<point x="805.6133333333" y="1301.2" type="curve" smooth="yes"/>
			<point x="1166.28" y="1301.2"/>
			<point x="1425.4266666667" y="1040.92"/>
			<point x="1425.4266666667" y="670" type="curve" smooth="yes"/>
			<point x="1425.4266666667" y="299.08"/>
			<point x="1166.28" y="38.8"/>
			<point x="805.6133333333" y="38.8" type="curve" smooth="yes"/>
			<point x="444.9466666667" y="38.8"/>
			<point x="185.8" y="299.08"/>
			<point x="185.8" y="670" type="curve" smooth="yes"/>
			<point x="185.8" y="1040.92"/>
			<point x="444.9466666667" y="1301.2"/>
		</contour>
		<contour>
			<point x="866.48" y="346.1866666667" type="curve"/>
			<point x="689.84" y="346.1866666667"/>
			<point x="549.3066666667" y="474.44"/>
			<point x="549.3066666667" y="694.48" type="curve" smooth="yes"/>
			<point x="549.3066666667" y="888.4266666667"/>
			<point x="660.9733333333" y="1002.3066666667"/>
			<point x="847.4533333333" y="1002.3066666667" type="curve" smooth="yes"/>
			<point x="910.7333333333" y="1002.3066666667"/>
			<point x="962.3866666667" y="991.4266666667"/>
			<point x="1032.4133333333" y="954.0266666667" type="curve"/>
			<point x="979.56" y="1007.7866666667" type="line"/>
			<point x="1074.1333333333" y="816.4266666667" type="line"/>
			<point x="1103.36" y="824.1733333333" type="line"/>
			<point x="1062.7333333333" y="1086.1066666667" type="line"/>
			<point x="1051.48" y="1086.1066666667" type="line"/>
			<point x="994.3066666667" y="1039.12" type="line"/>
			<point x="1037.1733333333" y="1037.2266666667" type="line"/>
			<point x="970.6666666667" y="1056.8666666667"/>
			<point x="921.64" y="1065"/>
			<point x="866.24" y="1065" type="curve" smooth="yes"/>
			<point x="602.28" y="1065"/>
			<point x="442.16" y="909.0133333333"/>
			<point x="442.16" y="672.76" type="curve" smooth="yes"/>
			<point x="442.16" y="429.7333333333"/>
			<point x="616.1733333333" y="286"/>
			<point x="856.8933333333" y="286" type="curve" smooth="yes"/>
			<point x="933.52" y="286"/>
			<point x="1018.2666666667" y="299.88"/>
			<point x="1078.7466666667" y="324.5066666667" type="curve"/>
			<point x="1107.36" y="508.9066666667" type="line"/>
			<point x="1076.1333333333" y="508.9066666667" type="line"/>
			<point x="988.9333333333" y="329.84" type="line"/>
			<point x="1042.8933333333" y="384.96" type="line"/>
			<point x="987.28" y="356.4533333333"/>
			<point x="924.6133333333" y="346.1866666667"/>
		</contour>
	</outline>
</glyph>
<glyph name="ordfeminine" format="2">
	<unicode hex="00AA"/>
	<advance width="850.68"/>
	<outline>
		<contour>
			<point x="128.5333333333" y="477.16" type="line"/>
			<point x="733.5333333333" y="477.16" type="line"/>
			<point x="733.5333333333" y="541.0933333333" type="line"/>
			<point x="128.5333333333" y="541.0933333333" type="line"/>
		</contour>
		<contour>
			<point x="574.3333333333" y="1063.6666666667" type="curve"/>
			<point x="570.36" y="1107.48" type="line"/>
			<point x="211.8266666667" y="1017.96"/>
			<point x="147.24" y="948.84"/>
			<point x="147.24" y="841.7333333333" type="curve" smooth="yes"/>
			<point x="147.24" y="735.24"/>
			<point x="224.1066666667" y="679"/>
			<point x="331.3466666667" y="679" type="curve" smooth="yes"/>
			<point x="424.36" y="679"/>
			<point x="499.8666666667" y="734.2533333333"/>
			<point x="534.1333333333" y="840.3066666667" type="curve"/>
			<point x="529.88" y="836.5466666667" type="line"/>
			<point x="528" y="724.8533333333"/>
			<point x="565.5866666667" y="682.2533333333"/>
			<point x="636.5733333333" y="682.2533333333" type="curve" smooth="yes"/>
			<point x="674.6933333333" y="682.2533333333"/>
			<point x="702.8266666667" y="693.2533333333"/>
			<point x="745.4266666667" y="732.3733333333" type="curve"/>
			<point x="745.4266666667" y="761.7066666667" type="line"/>
			<point x="718.4133333333" y="745.6933333333"/>
			<point x="696.1733333333" y="741.32"/>
			<point x="673.5466666667" y="741.32" type="curve" smooth="yes"/>
			<point x="636.04" y="741.32"/>
			<point x="617.7866666667" y="763.2"/>
			<point x="617.7866666667" y="818.0933333333" type="curve" smooth="yes"/>
			<point x="617.7866666667" y="1187.0133333333" type="line" smooth="yes"/>
			<point x="617.7866666667" y="1296.3733333333"/>
			<point x="565.3066666667" y="1360"/>
			<point x="423.56" y="1360" type="curve" smooth="yes"/>
			<point x="299.24" y="1360"/>
			<point x="148.7466666667" y="1268.2533333333"/>
			<point x="148.7466666667" y="1208.28" type="curve" smooth="yes"/>
			<point x="148.7466666667" y="1186.92"/>
			<point x="166.36" y="1171.4266666667"/>
			<point x="195.0933333333" y="1171.4266666667" type="curve" smooth="yes"/>
			<point x="219.3333333333" y="1171.4266666667"/>
			<point x="240.0666666667" y="1177.2933333333"/>
			<point x="256.3066666667" y="1194.7866666667" type="curve" smooth="yes"/>
			<point x="272.5466666667" y="1212.9066666667"/>
			<point x="281.68" y="1245.16"/>
			<point x="289.0533333333" y="1306.64" type="curve"/>
			<point x="242.5466666667" y="1271.16" type="line"/>
			<point x="300.2133333333" y="1296.4266666667"/>
			<point x="348.84" y="1307.68"/>
			<point x="386.6" y="1307.68" type="curve" smooth="yes"/>
			<point x="487.0133333333" y="1307.68"/>
			<point x="525.8933333333" y="1256.92"/>
			<point x="525.8933333333" y="1175.4" type="curve" smooth="yes"/>
			<point x="525.8933333333" y="894.3733333333" type="line" smooth="yes"/>
			<point x="525.8933333333" y="818.7333333333"/>
			<point x="457.72" y="743.5733333333"/>
			<point x="369.8" y="743.5733333333" type="curve" smooth="yes"/>
			<point x="298.2666666667" y="743.5733333333"/>
			<point x="245.88" y="782.7066666667"/>
			<point x="245.88" y="854.72" type="curve" smooth="yes"/>
			<point x="245.88" y="939.4933333333"/>
			<point x="285.6" y="992.4933333333"/>
		</contour>
	</outline>
</glyph>
<glyph name="guillemotleft" format="2">
	<unicode hex="00AB"/>
	<advance width="893.56"/>
	<outline>
		<contour>
			<point x="168.2533333333" y="491.1733333333" type="line"/>
			<point x="168.2533333333" y="377.0933333333" type="line"/>
			<point x="468.9066666667" y="792.4666666667" type="line"/>
			<point x="436.68" y="817.5733333333" type="line"/>
			<point x="68.52" y="450.2533333333" type="line"/>
			<point x="68.52" y="418.0133333333" type="line"/>
			<point x="436.68" y="50.6933333333" type="line"/>
			<point x="468.9066666667" y="75.8" type="line"/>
		</contour>
		<contour>
			<point x="510.6533333333" y="491.1733333333" type="line"/>
			<point x="510.6533333333" y="377.0933333333" type="line"/>
			<point x="811.3066666667" y="792.4666666667" type="line"/>
			<point x="779.08" y="817.5733333333" type="line"/>
			<point x="410.92" y="450.2533333333" type="line"/>
			<point x="410.92" y="418.0133333333" type="line"/>
			<point x="779.08" y="50.6933333333" type="line"/>
			<point x="811.3066666667" y="75.8" type="line"/>
		</contour>
	</outline>
</glyph>
<glyph name="logicalnot" format="2">
	<unicode hex="00AC"/>
	<advance width="1000"/>
	<outline>
		<contour>
			<point x="141.88" y="648" type="line"/>
			<point x="141.88" y="589.0666666667" type="line"/>
			<point x="855.88" y="589.0666666667" type="line"/>
			<point x="855.88" y="648" type="line"/>
		</contour>
		<contour>
			<point x="855.88" y="631.2" type="line"/>
			<point x="796.9466666667" y="631.2" type="line"/>
			<point x="796.9466666667" y="224" type="line"/>
			<point x="855.88" y="224" type="line"/>
		</contour>
	</outline>
</glyph>
<glyph name="registered" format="2">
	<unicode hex="00AE"/>
	<advance width="1088.76"/>
	<outline>
		<contour>
			<point x="541.88" y="1360" type="curve" smooth="yes"/>
			<point x="291.88" y="1360"/>
			<point x="112.88" y="1183"/>
			<point x="112.88" y="934" type="curve" smooth="yes"/>
			<point x="112.88" y="686"/>
			<point x="291.88" y="506"/>
			<point x="541.88" y="506" type="curve" smooth="yes"/>
			<point x="793.88" y="506"/>
			<point x="975.88" y="686"/>
			<point x="975.88" y="934" type="curve" smooth="yes"/>
			<point x="975.88" y="1183"/>
			<point x="793.88" y="1360"/>
		</contour>
		<contour>
			<point x="541.88" y="1308.8" type="curve" smooth="yes"/>
			<point x="760.16" y="1308.8"/>
			<point x="917.68" y="1155.6533333333"/>
			<point x="917.68" y="934" type="curve" smooth="yes"/>
			<point x="917.68" y="714.3466666667"/>
			<point x="760.16" y="558.2"/>
			<point x="541.88" y="558.2" type="curve" smooth="yes"/>
			<point x="325.6" y="558.2"/>
			<point x="171.08" y="714.3466666667"/>
			<point x="171.08" y="934" type="curve" smooth="yes"/>
			<point x="171.08" y="1155.6533333333"/>
			<point x="325.6" y="1308.8"/>
		</contour>
		<contour>
			<point x="433.28" y="964.7466666667" type="line"/>
			<point x="430.16" y="923.0266666667" type="line"/>
			<point x="549.8933333333" y="923.0266666667" type="line" smooth="yes"/>
			<point x="582.64" y="923.0266666667"/>
			<point x="597.8933333333" y="916.28"/>
			<point x="618.4" y="865.9066666667" type="curve" smooth="yes"/>
			<point x="653.1733333333" y="779.2533333333" type="line" smooth="yes"/>
			<point x="677.56" y="717.3733333333"/>
			<point x="690.4133333333" y="712.6266666667"/>
			<point x="782.2666666667" y="716.3733333333" type="curve"/>
			<point x="782.2666666667" y="743.6" type="line"/>
			<point x="752.2533333333" y="742.9733333333"/>
			<point x="741.2533333333" y="747.72"/>
			<point x="724.6266666667" y="789.84" type="curve" smooth="yes"/>
			<point x="683.24" y="884.48" type="line" smooth="yes"/>
			<point x="662.2266666667" y="933.3733333333"/>
			<point x="642.8533333333" y="947.88"/>
			<point x="583.24" y="947.88" type="curve"/>
			<point x="583.24" y="943.64" type="line"/>
			<point x="671.2133333333" y="951.3866666667"/>
			<point x="712.0933333333" y="999.3733333333"/>
			<point x="712.0933333333" y="1054.1333333333" type="curve" smooth="yes"/>
			<point x="712.0933333333" y="1118.3733333333"/>
			<point x="669.9733333333" y="1166"/>
			<point x="555.1066666667" y="1166" type="curve" smooth="yes"/>
			<point x="424.6666666667" y="1166" type="line"/>
			<point x="427.7866666667" y="1126.28" type="line"/>
			<point x="507.84" y="1126.28" type="line" smooth="yes"/>
			<point x="605.88" y="1126.28"/>
			<point x="637.7733333333" y="1097.28"/>
			<point x="637.7733333333" y="1047.52" type="curve" smooth="yes"/>
			<point x="637.7733333333" y="989.88"/>
			<point x="599.5066666667" y="964.7466666667"/>
			<point x="545.1066666667" y="964.7466666667" type="curve" smooth="yes"/>
		</contour>
		<contour>
			<point x="409.4" y="1128.0266666667" type="line"/>
			<point x="409.4" y="756.3466666667" type="line"/>
			<point x="346.6266666667" y="740.2266666667" type="line"/>
			<point x="346.6266666667" y="717" type="line"/>
			<point x="540" y="717" type="line"/>
			<point x="540" y="740.2266666667" type="line"/>
			<point x="478.6" y="756.3466666667" type="line"/>
			<point x="478.6" y="1166" type="line"/>
			<point x="346.6266666667" y="1166" type="line"/>
			<point x="346.6266666667" y="1143.52" type="line"/>
		</contour>
	</outline>
</glyph>
<glyph name="degree" format="2">
  <advance width="770"/>
  <unicode hex="00B0"/>
  <outline>
    <contour>
      <point x="385.1333333333333" y="1350.0" type="curve" smooth="yes"/>
      <point x="209.13333333333333" y="1350.0"/>
      <point x="83.13333333333334" y="1226.0"/>
      <point x="83.13333333333334" y="1050.0" type="curve" smooth="yes"/>
      <point x="83.13333333333334" y="874.0"/>
      <point x="209.13333333333333" y="750.0"/>
      <point x="385.1333333333333" y="750.0" type="curve" smooth="yes"/>
      <point x="561.1333333333333" y="750.0"/>
      <point x="687.1333333333333" y="874.0"/>
      <point x="687.1333333333333" y="1050.0" type="curve" smooth="yes"/>
      <point x="687.1333333333333" y="1226.0"/>
      <point x="561.1333333333333" y="1350.0"/>
    </contour>
    <contour>
      <point x="385.1333333333333" y="805.32" type="curve" smooth="yes"/>
      <point x="245.22666666666666" y="805.32"/>
      <point x="145.07999999999998" y="903.4666666666667"/>
      <point x="145.07999999999998" y="1050.0" type="curve" smooth="yes"/>
      <point x="145.07999999999998" y="1196.5333333333333"/>
      <point x="245.22666666666666" y="1294.68"/>
      <point x="385.1333333333333" y="1294.68" type="curve" smooth="yes"/>
      <point x="525.04" y="1294.68"/>
      <point x="625.1866666666667" y="1196.5333333333333"/>
      <point x="625.1866666666667" y="1050.0" type="curve" smooth="yes"/>
      <point x="625.1866666666667" y="903.4666666666667"/>
      <point x="525.04" y="805.32"/>
    </contour>
  </outline>
</glyph>
<glyph name="plusminus" format="2">
	<unicode hex="00B1"/>
	<advance width="1000"/>
	<outline>
		<contour>
			<point x="470.5333333333" y="852" type="line"/>
			<point x="470.5333333333" y="138" type="line"/>
			<point x="529.4666666667" y="138" type="line"/>
			<point x="529.4666666667" y="852" type="line"/>
		</contour>
		<contour>
			<point x="143" y="521.96" type="line"/>
			<point x="143" y="463.0266666667" type="line"/>
			<point x="857" y="463.0266666667" type="line"/>
			<point x="857" y="521.96" type="line"/>
		</contour>
		<contour>
			<point x="143" y="58.9333333333" type="line"/>
			<point x="143" y="0" type="line"/>
			<point x="857" y="0" type="line"/>
			<point x="857" y="58.9333333333" type="line"/>
		</contour>
	</outline>
</glyph>
<glyph name="uni00B2" format="2">
  <advance width="666"/>
  <unicode hex="00B2"/>
  <outline>
    <contour>
      <point x="474.02666666666664" y="638.9066666666666" type="line"/>
      <point x="538.9733333333334" y="682.5066666666667" type="line"/>
      <point x="160.05333333333334" y="682.5066666666667" type="line"/>
      <point x="154.65333333333334" y="635.0133333333333" type="line"/>
      <point x="329.3466666666667" y="818.24" type="line" smooth="yes"/>
      <point x="488.82666666666665" y="984.3733333333333"/>
      <point x="547.4533333333334" y="1055.12"/>
      <point x="547.4533333333334" y="1158.76" type="curve" smooth="yes"/>
      <point x="547.4533333333334" y="1275.4933333333333"/>
      <point x="461.6" y="1354.0"/>
      <point x="333.1066666666667" y="1354.0" type="curve" smooth="yes"/>
      <point x="199.74666666666667" y="1354.0"/>
      <point x="103.13333333333334" y="1275.2666666666667"/>
      <point x="66.88" y="1101.88" type="curve"/>
      <point x="99.36" y="1094.76" type="line"/>
      <point x="137.88" y="1234.2266666666667"/>
      <point x="208.64" y="1275.9866666666667"/>
      <point x="299.7866666666667" y="1275.9866666666667" type="curve" smooth="yes"/>
      <point x="390.3066666666667" y="1275.9866666666667"/>
      <point x="448.94666666666666" y="1218.0933333333332"/>
      <point x="448.94666666666666" y="1131.6666666666667" type="curve" smooth="yes"/>
      <point x="448.94666666666666" y="1056.44"/>
      <point x="411.82666666666665" y="978.5466666666666"/>
      <point x="300.3066666666667" y="852.0266666666666" type="curve" smooth="yes"/>
      <point x="80.64" y="603.36" type="line"/>
      <point x="80.64" y="592.0" type="line"/>
      <point x="491.0133333333333" y="592.0" type="line"/>
      <point x="548.48" y="576.8933333333333" type="line"/>
      <point x="559.9733333333334" y="576.8933333333333" type="line"/>
      <point x="602.9733333333334" y="805.6533333333333" type="line"/>
      <point x="580.7333333333333" y="805.6533333333333" type="line"/>
    </contour>
  </outline>
</glyph>
<glyph name="uni00B3" format="2">
	<unicode hex="00B3"/>
	<advance width="621.5866666667"/>
	<outline>
		<contour>
			<point x="196.3333333333" y="578" type="curve" smooth="yes"/>
			<point x="414.08" y="578"/>
			<point x="558.2" y="695.6133333333"/>
			<point x="558.2" y="857.2533333333" type="curve" smooth="yes"/>
			<point x="558.2" y="972.24"/>
			<point x="476.48" y="1045.64"/>
			<point x="325.12" y="1020.3733333333" type="curve"/>
			<point x="324.5066666667" y="1010.6133333333" type="line"/>
			<point x="432.6266666667" y="1050.28"/>
			<point x="498.3466666667" y="1115.4"/>
			<point x="498.3466666667" y="1200.6266666667" type="curve" smooth="yes"/>
			<point x="498.3466666667" y="1292.2533333333"/>
			<point x="433.2266666667" y="1354"/>
			<point x="315.1066666667" y="1354" type="curve" smooth="yes"/>
			<point x="190.8666666667" y="1354"/>
			<point x="111" y="1275.2533333333"/>
			<point x="81.7466666667" y="1147.0133333333" type="curve"/>
			<point x="114.9733333333" y="1138.6533333333" type="line"/>
			<point x="141.48" y="1241.8133333333"/>
			<point x="203.6266666667" y="1287.3333333333"/>
			<point x="287.8933333333" y="1287.3333333333" type="curve" smooth="yes"/>
			<point x="368.8" y="1287.3333333333"/>
			<point x="409.68" y="1236.56"/>
			<point x="409.68" y="1171.04" type="curve" smooth="yes"/>
			<point x="409.68" y="1095.2666666667"/>
			<point x="363.1733333333" y="1042.0133333333"/>
			<point x="192.2666666667" y="982.48" type="curve"/>
			<point x="204.1333333333" y="945.64" type="line"/>
			<point x="249.7733333333" y="959.4" type="line" smooth="yes"/>
			<point x="385.8133333333" y="1000.8"/>
			<point x="465.1866666667" y="938.1466666667"/>
			<point x="465.1866666667" y="826.6533333333" type="curve" smooth="yes"/>
			<point x="465.1866666667" y="707.4"/>
			<point x="384.0533333333" y="633.5866666667"/>
			<point x="277.5866666667" y="633.5866666667" type="curve" smooth="yes"/>
			<point x="193.1066666667" y="633.5866666667"/>
			<point x="170.4666666667" y="695.0533333333"/>
			<point x="119.2533333333" y="695.0533333333" type="curve" smooth="yes"/>
			<point x="86.6266666667" y="695.0533333333"/>
			<point x="67.8933333333" y="674.9333333333"/>
			<point x="67.8933333333" y="647.8266666667" type="curve" smooth="yes"/>
			<point x="67.8933333333" y="609.4666666667"/>
			<point x="100.4933333333" y="578"/>
		</contour>
	</outline>
</glyph>
<glyph name="uni00B5" format="2">
  <advance width="1070"/>
  <unicode hex="00B5"/>
  <outline>
    <contour>
      <point x="187.89333333333335" y="852.0" type="line"/>
      <point x="187.89333333333335" y="-520.0" type="line"/>
      <point x="197.89333333333335" y="-520.0" type="line"/>
      <point x="304.76" y="-509.8933333333333" type="line"/>
      <point x="230.30666666666667" y="166.13333333333333" type="line"/>
      <point x="221.69333333333333" y="154.22666666666666" type="line"/>
      <point x="237.06666666666666" y="16.106666666666666"/>
      <point x="341.6533333333333" y="-20.0"/>
      <point x="446.7733333333333" y="-20.0" type="curve" smooth="yes"/>
      <point x="545.7466666666667" y="-20.0"/>
      <point x="627.8533333333334" y="11.826666666666664"/>
      <point x="785.04" y="161.09333333333333" type="curve"/>
      <point x="758.32" y="181.54666666666665" type="line"/>
      <point x="676.0666666666667" y="104.73333333333332"/>
      <point x="576.3066666666666" y="75.13333333333333"/>
      <point x="500.72" y="75.13333333333333" type="curve" smooth="yes"/>
      <point x="335.15999999999997" y="75.13333333333333"/>
      <point x="286.26666666666665" y="123.65333333333334"/>
      <point x="286.26666666666665" y="288.8933333333333" type="curve" smooth="yes"/>
      <point x="286.26666666666665" y="852.0" type="line"/>
    </contour>
    <contour>
      <point x="847.8266666666667" y="158.70666666666668" type="curve" smooth="yes"/>
      <point x="847.8266666666667" y="852.0" type="line"/>
      <point x="749.08" y="852.0" type="line"/>
      <point x="749.08" y="162.24" type="line" smooth="yes"/>
      <point x="749.08" y="31.69333333333333"/>
      <point x="791.6666666666666" y="-14.866666666666667"/>
      <point x="886.28" y="-14.866666666666667" type="curve" smooth="yes"/>
      <point x="936.4" y="-14.866666666666667"/>
      <point x="988.4933333333333" y="7.12"/>
      <point x="1038.48" y="59.6" type="curve"/>
      <point x="1038.48" y="89.93333333333334" type="line"/>
      <point x="999.84" y="65.28"/>
      <point x="967.2266666666667" y="55.78666666666666"/>
      <point x="934.9733333333334" y="55.78666666666666" type="curve" smooth="yes"/>
      <point x="879.84" y="55.78666666666666"/>
      <point x="847.8266666666667" y="85.41333333333333"/>
    </contour>
  </outline>
</glyph>
<glyph name="paragraph" format="2">
	<unicode hex="00B6"/>
	<advance width="1170.3733333333"/>
	<outline>
		<contour>
			<point x="667.2666666667" y="1340" type="line"/>
			<point x="434.2533333333" y="1340" type="line" smooth="yes"/>
			<point x="160.4933333333" y="1340"/>
			<point x="56.2533333333" y="1189.52"/>
			<point x="56.2533333333" y="1006.3866666667" type="curve" smooth="yes"/>
			<point x="56.2533333333" y="819.3866666667"/>
			<point x="161.7333333333" y="677"/>
			<point x="433.6266666667" y="677" type="curve" smooth="yes"/>
			<point x="667.2666666667" y="677" type="line"/>
		</contour>
		<contour>
			<point x="691.2666666667" y="-255" type="line"/>
			<point x="691.2666666667" y="1267.3066666667" type="line"/>
			<point x="861.64" y="1267.3066666667" type="line"/>
			<point x="861.64" y="1340" type="line"/>
			<point x="615.32" y="1340" type="line"/>
			<point x="615.32" y="-255" type="line"/>
		</contour>
		<contour>
			<point x="919.8533333333" y="-255" type="line"/>
			<point x="919.8533333333" y="1271.92" type="line"/>
			<point x="1093.52" y="1307.76" type="line"/>
			<point x="1093.52" y="1340" type="line"/>
			<point x="843.9066666667" y="1340" type="line"/>
			<point x="843.9066666667" y="-255" type="line"/>
		</contour>
	</outline>
</glyph>
<glyph name="uni00B9" format="2">
	<unicode hex="00B9"/>
	<advance width="503.8666666667"/>
	<outline>
		<contour>
			<point x="244.0666666667" y="644.2266666667" type="line"/>
			<point x="112.64" y="616.7333333333" type="line"/>
			<point x="112.64" y="592" type="line"/>
			<point x="459.6266666667" y="592" type="line"/>
			<point x="459.6266666667" y="616.7333333333" type="line"/>
			<point x="338.3333333333" y="644.2266666667" type="line"/>
			<point x="338.3333333333" y="1345" type="line"/>
			<point x="307.7733333333" y="1345" type="line"/>
			<point x="42.2533333333" y="1199.7333333333" type="line"/>
			<point x="51.12" y="1171.76" type="line"/>
			<point x="266.28" y="1243.3066666667" type="line"/>
			<point x="244.0666666667" y="1271.4666666667" type="line"/>
		</contour>
	</outline>
</glyph>
<glyph name="ordmasculine" format="2">
	<unicode hex="00BA"/>
	<advance width="885.3733333333"/>
	<outline>
		<contour>
			<point x="151.76" y="475.6666666667" type="line"/>
			<point x="733.6133333333" y="475.6666666667" type="line"/>
			<point x="733.6133333333" y="542.96" type="line"/>
			<point x="151.76" y="542.96" type="line"/>
		</contour>
		<contour>
			<point x="446.7466666667" y="730.92" type="curve" smooth="yes"/>
			<point x="311.1866666667" y="730.92"/>
			<point x="221.52" y="846.4666666667"/>
			<point x="221.52" y="1031.4933333333" type="curve" smooth="yes"/>
			<point x="221.52" y="1217.8"/>
			<point x="316.32" y="1307.96"/>
			<point x="439.7466666667" y="1307.96" type="curve" smooth="yes"/>
			<point x="574.3066666667" y="1307.96"/>
			<point x="664.9733333333" y="1192.16"/>
			<point x="664.9733333333" y="1006.3866666667" type="curve" smooth="yes"/>
			<point x="664.9733333333" y="819.7066666667"/>
			<point x="568.8" y="730.92"/>
		</contour>
		<contour>
			<point x="442" y="679" type="curve" smooth="yes"/>
			<point x="627.8666666667" y="679"/>
			<point x="763.48" y="817.48"/>
			<point x="763.48" y="1025.88" type="curve" smooth="yes"/>
			<point x="763.48" y="1227.0133333333"/>
			<point x="629.6" y="1360"/>
			<point x="444.4933333333" y="1360" type="curve" smooth="yes"/>
			<point x="258.2533333333" y="1360"/>
			<point x="121.8933333333" y="1220.7733333333"/>
			<point x="121.8933333333" y="1011.88" type="curve" smooth="yes"/>
			<point x="121.8933333333" y="811.9866666667"/>
			<point x="256.52" y="679"/>
		</contour>
	</outline>
</glyph>
<glyph name="guillemotright" format="2">
	<unicode hex="00BB"/>
	<advance width="922.6666666667"/>
	<outline>
		<contour>
			<point x="392.4" y="378.0933333333" type="line"/>
			<point x="392.4" y="492.1733333333" type="line"/>
			<point x="91.7466666667" y="76.8" type="line"/>
			<point x="123.9733333333" y="51.6933333333" type="line"/>
			<point x="492.1333333333" y="419.0133333333" type="line"/>
			<point x="492.1333333333" y="451.2533333333" type="line"/>
			<point x="123.9733333333" y="818.5733333333" type="line"/>
			<point x="91.7466666667" y="793.4666666667" type="line"/>
		</contour>
		<contour>
			<point x="734.8" y="378.0933333333" type="line"/>
			<point x="734.8" y="492.1733333333" type="line"/>
			<point x="434.1466666667" y="76.8" type="line"/>
			<point x="466.3733333333" y="51.6933333333" type="line"/>
			<point x="834.5333333333" y="419.0133333333" type="line"/>
			<point x="834.5333333333" y="451.2533333333" type="line"/>
			<point x="466.3733333333" y="818.5733333333" type="line"/>
			<point x="434.1466666667" y="793.4666666667" type="line"/>
		</contour>
	</outline>
</glyph>
<glyph name="questiondown" format="2">
	<unicode hex="00BF"/>
	<advance width="836.96"/>
	<outline>
		<contour>
			<point x="585.1066666667" y="-512" type="curve" smooth="yes"/>
			<point x="737.2533333333" y="-512"/>
			<point x="802.2133333333" y="-477.1466666667"/>
			<point x="802.2133333333" y="-420.0533333333" type="curve" smooth="yes"/>
			<point x="802.2133333333" y="-384.84"/>
			<point x="771.8666666667" y="-352.36"/>
			<point x="725.8933333333" y="-352.36" type="curve" smooth="yes"/>
			<point x="650.8266666667" y="-352.36"/>
			<point x="637.1866666667" y="-436.8266666667"/>
			<point x="503.1733333333" y="-436.8266666667" type="curve" smooth="yes"/>
			<point x="312.56" y="-436.8266666667"/>
			<point x="179.6" y="-322.5333333333"/>
			<point x="179.6" y="-130.6" type="curve" smooth="yes"/>
			<point x="179.6" y="28.8933333333"/>
			<point x="293.44" y="134.4266666667"/>
			<point x="581.7333333333" y="114.0533333333" type="curve"/>
			<point x="530.04" y="452" type="line"/>
			<point x="496.44" y="452" type="line"/>
			<point x="496.44" y="131.56" type="line"/>
			<point x="541.2666666667" y="209.4666666667" type="line"/>
			<point x="209.5466666667" y="221.4666666667"/>
			<point x="107.5466666667" y="85.4666666667"/>
			<point x="107.5466666667" y="-98.52" type="curve" smooth="yes"/>
			<point x="107.5466666667" y="-342.6933333333"/>
			<point x="319.6666666667" y="-512"/>
		</contour>
		<contour>
			<point x="509.0666666667" y="673.5066666667" type="curve" smooth="yes"/>
			<point x="563.4" y="673.5066666667"/>
			<point x="603.7466666667" y="715.8533333333"/>
			<point x="603.7466666667" y="768.0666666667" type="curve" smooth="yes"/>
			<point x="603.7466666667" y="820.28"/>
			<point x="563.4" y="862"/>
			<point x="509.0666666667" y="862" type="curve" smooth="yes"/>
			<point x="454.1066666667" y="862"/>
			<point x="413.76" y="820.28"/>
			<point x="413.76" y="768.0666666667" type="curve" smooth="yes"/>
			<point x="413.76" y="715.8533333333"/>
			<point x="454.1066666667" y="673.5066666667"/>
		</contour>
	</outline>
</glyph>
<glyph name="AE" format="2">
	<unicode hex="00C6"/>
	<advance width="1905.3466666667"/>
	<outline>
		<contour>
			<point x="469.8133333333" y="514.7866666667" type="line"/>
			<point x="993.2133333333" y="514.7866666667" type="line"/>
			<point x="993.2133333333" y="577.5866666667" type="line"/>
			<point x="469.8133333333" y="577.5866666667" type="line"/>
		</contour>
		<contour>
			<point x="917.1333333333" y="1340" type="line"/>
			<point x="139.6533333333" y="66.56" type="line"/>
			<point x="-25.88" y="28.3466666667" type="line"/>
			<point x="-25.88" y="0" type="line"/>
			<point x="382.9466666667" y="0" type="line"/>
			<point x="382.9466666667" y="28.3466666667" type="line"/>
			<point x="214.3066666667" y="66.56" type="line"/>
			<point x="968.6666666667" y="1303.76" type="line"/>
			<point x="964.28" y="1340" type="line"/>
		</contour>
		<contour>
			<point x="720.6266666667" y="1311.6533333333" type="line"/>
			<point x="892.6266666667" y="1271.5733333333" type="line"/>
			<point x="955.1866666667" y="1340" type="line"/>
			<point x="720.6266666667" y="1340" type="line"/>
		</contour>
		<contour>
			<point x="1544.8266666667" y="967.5066666667" type="line"/>
			<point x="1501.5333333333" y="967.5066666667" type="line"/>
			<point x="1460.7333333333" y="736.84" type="line"/>
			<point x="1002.68" y="731.8266666667" type="line"/>
			<point x="1002.68" y="671.6666666667" type="line"/>
			<point x="1460.7333333333" y="668.5333333333" type="line"/>
			<point x="1501.5333333333" y="436.6133333333" type="line"/>
			<point x="1544.8266666667" y="436.6133333333" type="line"/>
			<point x="1536.0533333333" y="701.7466666667" type="line"/>
		</contour>
		<contour>
			<point x="1797.2" y="989.5733333333" type="line"/>
			<point x="1741.6" y="1381.48" type="line"/>
			<point x="1729.36" y="1381.48" type="line"/>
			<point x="1640.5466666667" y="1340" type="line"/>
			<point x="970.0933333333" y="1340" type="line"/>
			<point x="970.0933333333" y="1276.08" type="line"/>
			<point x="1682.8133333333" y="1276.08" type="line"/>
			<point x="1625.9333333333" y="1295.8266666667" type="line"/>
			<point x="1765.24" y="983.7066666667" type="line"/>
		</contour>
		<contour>
			<point x="1647.6933333333" y="36.04" type="line"/>
			<point x="1698.3333333333" y="63.92" type="line"/>
			<point x="970.0933333333" y="63.92" type="line"/>
			<point x="970.0933333333" y="0" type="line"/>
			<point x="1664.1866666667" y="0" type="line"/>
			<point x="1753.4933333333" y="-50.8533333333" type="line"/>
			<point x="1764.48" y="-50.8533333333" type="line"/>
			<point x="1839.6133333333" y="349.9466666667" type="line"/>
			<point x="1810.52" y="358.44" type="line"/>
		</contour>
		<contour>
			<point x="779.6666666667" y="0" type="line"/>
			<point x="1053.8" y="0" type="line"/>
			<point x="1053.8" y="1340" type="line"/>
			<point x="946.44" y="1340" type="line"/>
			<point x="946.44" y="66.56" type="line"/>
			<point x="779.6666666667" y="28.3466666667" type="line"/>
		</contour>
	</outline>
	<anchor name="UCtop" x="1002" y="1340"/>
	<anchor name="bottom" x="1002" y="0"/>
</glyph>
<glyph name="Ccedilla" format="2">
	<unicode hex="00C7"/>
	<advance width="1351.5466666667"/>
	<outline>
		<contour>
			<point x="832.2" y="38.04" type="curve" smooth="yes"/>
			<point x="488.0533333333" y="38.04"/>
			<point x="212.9866666667" y="276.2933333333"/>
			<point x="212.9866666667" y="705.5733333333" type="curve" smooth="yes"/>
			<point x="212.9866666667" y="1084.56"/>
			<point x="435.0666666667" y="1296.8266666667"/>
			<point x="794.1466666667" y="1296.8266666667" type="curve" smooth="yes"/>
			<point x="916.2" y="1296.8266666667"/>
			<point x="1014.7466666667" y="1268.8"/>
			<point x="1150.56" y="1192.5066666667" type="curve"/>
			<point x="1082.36" y="1260.08" type="line"/>
			<point x="1229.9466666667" y="945.4133333333" type="line"/>
			<point x="1262.7866666667" y="951.9066666667" type="line"/>
			<point x="1195.3866666667" y="1390.48" type="line"/>
			<point x="1183.6533333333" y="1390.48" type="line"/>
			<point x="1100.64" y="1311.24" type="line"/>
			<point x="1156.52" y="1307.4533333333" type="line"/>
			<point x="1036.88" y="1343.8533333333"/>
			<point x="946.7066666667" y="1360"/>
			<point x="846.16" y="1360" type="curve" smooth="yes"/>
			<point x="382.4933333333" y="1360"/>
			<point x="97.76" y="1087.76"/>
			<point x="97.76" y="665.52" type="curve" smooth="yes"/>
			<point x="97.76" y="229.6133333333"/>
			<point x="408.6533333333" y="-20"/>
			<point x="831.0933333333" y="-20" type="curve" smooth="yes"/>
			<point x="980.92" y="-20"/>
			<point x="1132.1466666667" y="10.8666666667"/>
			<point x="1226.7866666667" y="54.24" type="curve"/>
			<point x="1266.68" y="335.2" type="line"/>
			<point x="1230.6" y="335.2" type="line"/>
			<point x="1099.7466666667" y="56.1733333333" type="line"/>
			<point x="1157.0266666667" y="111.3466666667" type="line"/>
			<point x="1060.28" y="62.1866666667"/>
			<point x="944.72" y="38.04"/>
		</contour>
		<contour>
			<point x="667.5066666667" y="-530" type="curve" smooth="yes"/>
			<point x="803.28" y="-530"/>
			<point x="909.48" y="-439.7466666667"/>
			<point x="909.48" y="-324.16" type="curve" smooth="yes"/>
			<point x="909.48" y="-248.56"/>
			<point x="852.9866666667" y="-180.8133333333"/>
			<point x="667.4933333333" y="-138.5333333333" type="curve"/>
			<point x="676.1333333333" y="-187.7866666667" type="line"/>
			<point x="826.76" y="18.6666666667" type="line"/>
			<point x="769.8133333333" y="18.6666666667" type="line"/>
			<point x="602.5333333333" y="-207.8666666667" type="line"/>
			<point x="602.5333333333" y="-217.0933333333" type="line"/>
			<point x="780.5466666667" y="-252.5066666667"/>
			<point x="834.0266666667" y="-296.0266666667"/>
			<point x="834.0266666667" y="-363.76" type="curve" smooth="yes"/>
			<point x="834.0266666667" y="-429.4"/>
			<point x="785.0133333333" y="-474.6666666667"/>
			<point x="707.9733333333" y="-474.6666666667" type="curve" smooth="yes"/>
			<point x="635.5866666667" y="-474.6666666667"/>
			<point x="622.4533333333" y="-412.2933333333"/>
			<point x="578.24" y="-412.2933333333" type="curve" smooth="yes"/>
			<point x="549.12" y="-412.2933333333"/>
			<point x="530.88" y="-432.5466666667"/>
			<point x="530.88" y="-458.5333333333" type="curve" smooth="yes"/>
			<point x="530.88" y="-497.1466666667"/>
			<point x="562.9866666667" y="-530"/>
		</contour>
	</outline>
</glyph>
<glyph name="multiply" format="2">
	<unicode hex="00D7"/>
	<advance width="1000"/>
	<outline>
		<contour>
			<point x="196.7733333333" y="172.3466666667" type="line"/>
			<point x="238.2266666667" y="130.8933333333" type="line"/>
			<point x="803.2266666667" y="695.8933333333" type="line"/>
			<point x="761.7733333333" y="737.3466666667" type="line"/>
		</contour>
		<contour>
			<point x="196.7733333333" y="695.8933333333" type="line"/>
			<point x="761.7733333333" y="130.8933333333" type="line"/>
			<point x="803.2266666667" y="172.3466666667" type="line"/>
			<point x="238.2266666667" y="737.3466666667" type="line"/>
		</contour>
	</outline>
</glyph>
<glyph name="Oslash" format="2">
	<unicode hex="00D8"/>
	<advance width="1527.9333333333"/>
	<outline>
		<contour>
			<point x="335.5466666667" y="240.1733333333" type="line"/>
			<point x="306.0933333333" y="210.84" type="line"/>
			<point x="116.3733333333" y="0" type="line"/>
			<point x="212.0266666667" y="0" type="line"/>
			<point x="354.5466666667" y="158.1466666667" type="line"/>
			<point x="376.0266666667" y="184.12" type="line"/>
			<point x="1196.3733333333" y="1099.8266666667" type="line"/>
			<point x="1225.8266666667" y="1129.16" type="line"/>
			<point x="1415.5466666667" y="1340" type="line"/>
			<point x="1319.8933333333" y="1340" type="line"/>
			<point x="1177.3733333333" y="1181.8533333333" type="line"/>
			<point x="1155.8933333333" y="1155.88" type="line"/>
		</contour>
		<contour>
			<point x="756.8266666667" y="1360" type="curve" smooth="yes"/>
			<point x="383.8666666667" y="1360"/>
			<point x="113.0133333333" y="1070.4933333333"/>
			<point x="113.0133333333" y="668.6266666667" type="curve" smooth="yes"/>
			<point x="113.0133333333" y="268.3866666667"/>
			<point x="393.0133333333" y="-20"/>
			<point x="771.7333333333" y="-20" type="curve" smooth="yes"/>
			<point x="1144.6933333333" y="-20"/>
			<point x="1415.5466666667" y="269.5066666667"/>
			<point x="1415.5466666667" y="671.3733333333" type="curve" smooth="yes"/>
			<point x="1415.5466666667" y="1071.6133333333"/>
			<point x="1135.5466666667" y="1360"/>
		</contour>
		<contour>
			<point x="772.4666666667" y="41.2933333333" type="curve" smooth="yes"/>
			<point x="456.28" y="41.2933333333"/>
			<point x="229.36" y="283.4533333333"/>
			<point x="229.36" y="688.0933333333" type="curve" smooth="yes"/>
			<point x="229.36" y="1049.2533333333"/>
			<point x="425.3866666667" y="1298.7066666667"/>
			<point x="756.0933333333" y="1298.7066666667" type="curve" smooth="yes"/>
			<point x="1072.28" y="1298.7066666667"/>
			<point x="1299.2" y="1056.5466666667"/>
			<point x="1299.2" y="651.9066666667" type="curve" smooth="yes"/>
			<point x="1299.2" y="290.7466666667"/>
			<point x="1103.1733333333" y="41.2933333333"/>
		</contour>
	</outline>
	<anchor name="UCtop" x="764.0933333333" y="1340"/>
	<anchor name="bottom" x="764.0933333333" y="0"/>
</glyph>
<glyph name="Thorn" format="2">
	<unicode hex="00DE"/>
	<advance width="1164.1333333333"/>
	<outline>
		<contour>
			<point x="971.0266666667" y="692" type="curve" smooth="yes"/>
			<point x="971.0266666667" y="495.6"/>
			<point x="848.8" y="381.3066666667"/>
			<point x="569.8933333333" y="381.3066666667" type="curve" smooth="yes"/>
			<point x="270.92" y="381.3066666667" type="line"/>
			<point x="275.7733333333" y="317.3866666667" type="line"/>
			<point x="588.1333333333" y="317.3866666667" type="line" smooth="yes"/>
			<point x="944.4" y="317.3866666667"/>
			<point x="1083.3733333333" y="485.9866666667"/>
			<point x="1083.3733333333" y="696.48" type="curve" smooth="yes"/>
			<point x="1083.3733333333" y="904.36"/>
			<point x="947.0133333333" y="1066.24"/>
			<point x="588.1333333333" y="1066.24" type="curve" smooth="yes"/>
			<point x="275.7733333333" y="1066.24" type="line"/>
			<point x="270.92" y="1002.32" type="line"/>
			<point x="528.4533333333" y="1002.32" type="line" smooth="yes"/>
			<point x="858.1333333333" y="1002.32"/>
			<point x="971.0266666667" y="886.5333333333"/>
		</contour>
		<contour>
			<point x="517.1333333333" y="28.3466666667" type="line"/>
			<point x="350.36" y="66.56" type="line"/>
			<point x="350.36" y="1273.44" type="line"/>
			<point x="517.1333333333" y="1311.6533333333" type="line"/>
			<point x="517.1333333333" y="1340" type="line"/>
			<point x="76.2266666667" y="1340" type="line"/>
			<point x="76.2266666667" y="1311.6533333333" type="line"/>
			<point x="243" y="1273.44" type="line"/>
			<point x="243" y="66.56" type="line"/>
			<point x="76.2266666667" y="28.3466666667" type="line"/>
			<point x="76.2266666667" y="0" type="line"/>
			<point x="517.1333333333" y="0" type="line"/>
		</contour>
	</outline>
</glyph>
<glyph name="germandbls" format="2">
	<unicode hex="00DF"/>
	<advance width="1170.5733333333"/>
	<outline>
		<contour>
			<point x="213.3866666667" y="911.56" type="curve" smooth="yes"/>
			<point x="213.3866666667" y="62.44" type="line"/>
			<point x="61.3866666667" y="28.2266666667" type="line"/>
			<point x="61.3866666667" y="0" type="line"/>
			<point x="442.56" y="0" type="line"/>
			<point x="442.56" y="28.2266666667" type="line"/>
			<point x="311.76" y="62.44" type="line"/>
			<point x="311.76" y="964.1333333333" type="line" smooth="yes"/>
			<point x="311.76" y="1235.96"/>
			<point x="442.32" y="1361.1866666667"/>
			<point x="633.96" y="1361.1866666667" type="curve" smooth="yes"/>
			<point x="786.9733333333" y="1361.1866666667"/>
			<point x="857.3466666667" y="1280.1866666667"/>
			<point x="857.3466666667" y="1186.0666666667" type="curve" smooth="yes"/>
			<point x="857.3466666667" y="956.8933333333"/>
			<point x="580" y="929.1866666667"/>
			<point x="580" y="721.68" type="curve" smooth="yes"/>
			<point x="580" y="436.0533333333"/>
			<point x="1015.8" y="516.2266666667"/>
			<point x="1015.8" y="238.16" type="curve" smooth="yes"/>
			<point x="1015.8" y="99.9866666667"/>
			<point x="923.16" y="26.8266666667"/>
			<point x="787.1466666667" y="26.8266666667" type="curve" smooth="yes"/>
			<point x="734.2666666667" y="26.8266666667"/>
			<point x="685.8666666667" y="31.2133333333"/>
			<point x="627.9333333333" y="55.92" type="curve"/>
			<point x="686.0133333333" y="9.2533333333" type="line"/>
			<point x="582.72" y="254.4933333333" type="line"/>
			<point x="552.64" y="254.4933333333" type="line"/>
			<point x="581.9733333333" y="14.7466666667" type="line"/>
			<point x="640.3333333333" y="-8.3733333333"/>
			<point x="705.3333333333" y="-20"/>
			<point x="799.7333333333" y="-20" type="curve" smooth="yes"/>
			<point x="973.84" y="-20"/>
			<point x="1100.0666666667" y="93.1333333333"/>
			<point x="1100.0666666667" y="268" type="curve" smooth="yes"/>
			<point x="1100.0666666667" y="602.76"/>
			<point x="669.6266666667" y="547.3466666667"/>
			<point x="669.6266666667" y="748.1333333333" type="curve" smooth="yes"/>
			<point x="669.6266666667" y="945.1733333333"/>
			<point x="961.7333333333" y="979.76"/>
			<point x="961.7333333333" y="1197.16" type="curve" smooth="yes"/>
			<point x="961.7333333333" y="1312.7466666667"/>
			<point x="865.32" y="1419"/>
			<point x="669.56" y="1419" type="curve" smooth="yes"/>
			<point x="447.88" y="1419"/>
			<point x="213.3866666667" y="1286.9466666667"/>
		</contour>
		<contour>
			<point x="228.0133333333" y="856.3866666667" type="line"/>
			<point x="31.48" y="812.9333333333" type="line"/>
			<point x="31.48" y="788.8266666667" type="line"/>
			<point x="214.64" y="769.84" type="line"/>
		</contour>
	</outline>
</glyph>
<glyph name="ae" format="2">
	<unicode hex="00E6"/>
	<advance width="1357.4133333333"/>
	<outline>
		<contour>
			<point x="400.4666666667" y="799.3066666667" type="curve" smooth="yes"/>
			<point x="532.2666666667" y="799.3066666667"/>
			<point x="582.0266666667" y="732.2933333333"/>
			<point x="582.0266666667" y="623.1333333333" type="curve" smooth="yes"/>
			<point x="582.0266666667" y="290.1333333333" type="line" smooth="yes"/>
			<point x="582.0266666667" y="155.9866666667"/>
			<point x="479.9866666667" y="55.7866666667"/>
			<point x="354.3333333333" y="55.7866666667" type="curve" smooth="yes"/>
			<point x="256.0266666667" y="55.7866666667"/>
			<point x="190.8933333333" y="109.8"/>
			<point x="190.8933333333" y="208.32" type="curve" smooth="yes"/>
			<point x="190.8933333333" y="316.88"/>
			<point x="233.7733333333" y="386.4933333333"/>
			<point x="634.0933333333" y="491.8" type="curve"/>
			<point x="628.12" y="535.12" type="line"/>
			<point x="154.12" y="412.48"/>
			<point x="87.8933333333" y="322.2266666667"/>
			<point x="87.8933333333" y="190.7333333333" type="curve" smooth="yes"/>
			<point x="87.8933333333" y="52.1066666667"/>
			<point x="185.76" y="-20"/>
			<point x="320" y="-20" type="curve" smooth="yes"/>
			<point x="473.6266666667" y="-20"/>
			<point x="582.7733333333" y="77.8933333333"/>
			<point x="603.5066666667" y="257.6133333333" type="curve"/>
			<point x="585.0266666667" y="258.7333333333" type="line"/>
			<point x="629.12" y="90.8666666667"/>
			<point x="777.3664239029" y="-20"/>
			<point x="954.2" y="-20" type="curve" smooth="yes"/>
			<point x="1086.68" y="-20"/>
			<point x="1175.1333333333" y="27.8666666667"/>
			<point x="1290.16" y="143.2" type="curve"/>
			<point x="1270.8" y="166.44" type="line"/>
			<point x="1181.7466666667" y="93.4"/>
			<point x="1108.7466666667" y="66.16"/>
			<point x="1027.48" y="66.16" type="curve" smooth="yes"/>
			<point x="813.6666666667" y="66.16"/>
			<point x="680.4" y="212.68"/>
			<point x="680.4" y="446.5866666667" type="curve" smooth="yes"/>
			<point x="680.4" y="687.16"/>
			<point x="781.2" y="814.3066666667"/>
			<point x="946.8133333333" y="814.3066666667" type="curve" smooth="yes"/>
			<point x="1080.1066666667" y="814.3066666667"/>
			<point x="1152.9066666667" y="707.16"/>
			<point x="1165.6533333333" y="529.6933333333" type="curve"/>
			<point x="1209.84" y="563.7466666667" type="line"/>
			<point x="664.4266666667" y="536.6133333333" type="line"/>
			<point x="663.68" y="493.4266666667" type="line"/>
			<point x="1280.7733333333" y="493.4266666667" type="line"/>
			<point x="1265.28" y="714.5866666667"/>
			<point x="1168.5733333333" y="872"/>
			<point x="959.9333333333" y="872" type="curve" smooth="yes"/>
			<point x="815.64" y="872"/>
			<point x="696.8933333333" y="795.36"/>
			<point x="637" y="677.4533333333" type="curve"/>
			<point x="670.0533333333" y="677.4533333333" type="line"/>
			<point x="659.2001357518" y="793.3439516312"/>
			<point x="601.3884593838" y="862.3733333333"/>
			<point x="440.16" y="862.3733333333" type="curve" smooth="yes"/>
			<point x="288.3733333333" y="862.3733333333"/>
			<point x="95.88" y="744.7466666667"/>
			<point x="95.88" y="675.28" type="curve" smooth="yes"/>
			<point x="95.88" y="652.1733333333"/>
			<point x="115.8666666667" y="634.3066666667"/>
			<point x="149.0933333333" y="634.3066666667" type="curve" smooth="yes"/>
			<point x="174.8266666667" y="634.3066666667"/>
			<point x="203.1866666667" y="642.4266666667"/>
			<point x="219.5466666667" y="659.7866666667" type="curve" smooth="yes"/>
			<point x="239.04" y="679.6533333333"/>
			<point x="247.5333333333" y="726.24"/>
			<point x="257.6666666667" y="784.7466666667" type="curve"/>
			<point x="201.0266666667" y="748.7733333333" type="line"/>
			<point x="282.4666666667" y="785.92"/>
			<point x="349.3333333333" y="799.3066666667"/>
		</contour>
	</outline>
	<anchor name="top" x="690.52" y="852"/>
	<anchor name="bottom" x="676.3333333333" y="0"/>
</glyph>
<glyph name="ccedilla" format="2">
  <advance width="840.28"/>
  <unicode hex="00E7"/>
  <outline>
    <contour>
      <point x="527.2" y="872.0" type="curve" smooth="yes"/>
      <point x="237.61333333333334" y="872.0"/>
      <point x="78.13333333333334" y="660.64"/>
      <point x="78.13333333333334" y="412.02666666666664" type="curve" smooth="yes"/>
      <point x="78.13333333333334" y="155.98666666666668"/>
      <point x="232.25333333333333" y="-20.0"/>
      <point x="466.02666666666664" y="-20.0" type="curve" smooth="yes"/>
      <point x="592.2666666666667" y="-20.0"/>
      <point x="678.1066666666667" y="30.48"/>
      <point x="789.7733333333333" y="143.2" type="curve"/>
      <point x="770.7866666666666" y="166.44" type="line"/>
      <point x="682.8533333333334" y="90.89333333333333"/>
      <point x="610.3466666666667" y="63.65333333333333"/>
      <point x="524.8133333333333" y="63.65333333333333" type="curve" smooth="yes"/>
      <point x="311.4" y="63.65333333333333"/>
      <point x="177.88" y="214.16"/>
      <point x="177.88" y="458.05333333333334" type="curve" smooth="yes"/>
      <point x="177.88" y="695.2666666666667"/>
      <point x="314.81333333333333" y="814.2"/>
      <point x="463.04" y="814.2" type="curve" smooth="yes"/>
      <point x="603.0266666666666" y="814.2"/>
      <point x="616.2266666666667" y="693.96"/>
      <point x="707.3333333333334" y="693.96" type="curve" smooth="yes"/>
      <point x="746.92" y="693.96"/>
      <point x="775.52" y="724.9466666666667"/>
      <point x="775.52" y="765.0266666666666" type="curve" smooth="yes"/>
      <point x="775.52" y="819.5333333333333"/>
      <point x="699.3466666666667" y="872.0"/>
    </contour>
    <contour>
      <point x="365.7733333333333" y="-530.0" type="curve" smooth="yes"/>
      <point x="501.5466666666667" y="-530.0"/>
      <point x="607.7466666666667" y="-439.74666666666667"/>
      <point x="607.7466666666667" y="-324.16" type="curve" smooth="yes"/>
      <point x="607.7466666666667" y="-248.56"/>
      <point x="551.2533333333333" y="-180.81333333333333"/>
      <point x="365.76" y="-138.53333333333333" type="curve"/>
      <point x="374.4" y="-187.78666666666666" type="line"/>
      <point x="525.0266666666666" y="18.666666666666664" type="line"/>
      <point x="468.08" y="18.666666666666664" type="line"/>
      <point x="300.8" y="-207.86666666666667" type="line"/>
      <point x="300.8" y="-217.09333333333333" type="line"/>
      <point x="478.81333333333333" y="-252.50666666666666"/>
      <point x="532.2933333333333" y="-296.02666666666664"/>
      <point x="532.2933333333333" y="-363.76" type="curve" smooth="yes"/>
      <point x="532.2933333333333" y="-429.4"/>
      <point x="483.28" y="-474.6666666666667"/>
      <point x="406.24" y="-474.6666666666667" type="curve" smooth="yes"/>
      <point x="333.85333333333335" y="-474.6666666666667"/>
      <point x="320.72" y="-412.29333333333335"/>
      <point x="276.50666666666666" y="-412.29333333333335" type="curve" smooth="yes"/>
      <point x="247.38666666666666" y="-412.29333333333335"/>
      <point x="229.14666666666668" y="-432.5466666666667"/>
      <point x="229.14666666666668" y="-458.53333333333336" type="curve" smooth="yes"/>
      <point x="229.14666666666668" y="-497.14666666666665"/>
      <point x="261.25333333333333" y="-530.0"/>
    </contour>
  </outline>
</glyph>
<glyph name="eth" format="2">
  <advance width="1020"/>
  <unicode hex="00F0"/>
  <outline>
    <contour>
      <point x="496.9866666666667" y="-20.0" type="curve" smooth="yes"/>
      <point x="750.24" y="-20.0"/>
      <point x="918.3333333333334" y="162.86666666666667"/>
      <point x="918.3333333333334" y="501.44" type="curve" smooth="yes"/>
      <point x="918.3333333333334" y="959.9733333333334"/>
      <point x="753.08" y="1262.8533333333332"/>
      <point x="190.78666666666666" y="1417.0" type="curve"/>
      <point x="173.53333333333333" y="1376.1866666666667" type="line"/>
      <point x="569.4266666666666" y="1252.3866666666668"/>
      <point x="761.3866666666667" y="1059.5466666666666"/>
      <point x="800.32" y="630.44" type="curve"/>
      <point x="816.9333333333333" y="648.2666666666667" type="line"/>
      <point x="774.9733333333334" y="781.8133333333333"/>
      <point x="646.6933333333334" y="872.0"/>
      <point x="494.62666666666667" y="872.0" type="curve" smooth="yes"/>
      <point x="255.86666666666667" y="872.0"/>
      <point x="78.13333333333334" y="690.6533333333333"/>
      <point x="78.13333333333334" y="416.62666666666667" type="curve" smooth="yes"/>
      <point x="78.13333333333334" y="153.36"/>
      <point x="254.01333333333332" y="-20.0"/>
    </contour>
    <contour>
      <point x="502.36" y="31.306666666666665" type="curve" smooth="yes"/>
      <point x="316.29333333333335" y="31.306666666666665"/>
      <point x="191.12" y="188.10666666666665"/>
      <point x="191.12" y="443.73333333333335" type="curve" smooth="yes"/>
      <point x="191.12" y="699.28"/>
      <point x="323.4266666666667" y="820.6933333333334"/>
      <point x="494.1066666666667" y="820.6933333333334" type="curve" smooth="yes"/>
      <point x="680.1733333333333" y="820.6933333333334"/>
      <point x="805.3466666666667" y="663.8933333333333"/>
      <point x="805.3466666666667" y="408.26666666666665" type="curve" smooth="yes"/>
      <point x="805.3466666666667" y="152.72"/>
      <point x="673.04" y="31.306666666666665"/>
    </contour>
    <contour>
      <point x="339.0133333333333" y="986.5333333333333" type="line"/>
      <point x="838.24" y="1358.2666666666667" type="line"/>
      <point x="801.1466666666666" y="1408.3466666666666" type="line"/>
      <point x="301.92" y="1037.24" type="line"/>
    </contour>
  </outline>
</glyph>
<glyph name="divide" format="2">
	<unicode hex="00F7"/>
	<advance width="1000"/>
	<outline>
		<contour>
			<point x="500" y="211.44" type="curve" smooth="yes"/>
			<point x="447.9066666667" y="211.44"/>
			<point x="409.4266666667" y="170.5866666667"/>
			<point x="409.4266666667" y="120.6133333333" type="curve" smooth="yes"/>
			<point x="409.4266666667" y="70.64"/>
			<point x="447.9066666667" y="29.7866666667"/>
			<point x="500" y="29.7866666667" type="curve" smooth="yes"/>
			<point x="552.0933333333" y="29.7866666667"/>
			<point x="590.5733333333" y="70.64"/>
			<point x="590.5733333333" y="120.6133333333" type="curve" smooth="yes"/>
			<point x="590.5733333333" y="170.5866666667"/>
			<point x="552.0933333333" y="211.44"/>
		</contour>
		<contour>
			<point x="500" y="834.6933333333" type="curve" smooth="yes"/>
			<point x="447.9066666667" y="834.6933333333"/>
			<point x="409.4266666667" y="793.84"/>
			<point x="409.4266666667" y="743.8666666667" type="curve" smooth="yes"/>
			<point x="409.4266666667" y="693.8933333333"/>
			<point x="447.9066666667" y="653.04"/>
			<point x="500" y="653.04" type="curve" smooth="yes"/>
			<point x="552.0933333333" y="653.04"/>
			<point x="590.5733333333" y="693.8933333333"/>
			<point x="590.5733333333" y="743.8666666667" type="curve" smooth="yes"/>
			<point x="590.5733333333" y="793.84"/>
			<point x="552.0933333333" y="834.6933333333"/>
		</contour>
		<contour>
			<point x="143" y="464.2133333333" type="line"/>
			<point x="143" y="405.28" type="line"/>
			<point x="857" y="405.28" type="line"/>
			<point x="857" y="464.2133333333" type="line"/>
		</contour>
	</outline>
</glyph>
<glyph name="oslash" format="2">
	<unicode hex="00F8"/>
	<advance width="1030.2"/>
	<outline>
		<contour>
			<point x="84.1733333333" y="0" type="line"/>
			<point x="173.4666666667" y="0" type="line"/>
			<point x="257.9333333333" y="93.3466666667" type="line"/>
			<point x="282.5333333333" y="122.08" type="line"/>
			<point x="792.9866666667" y="688.0666666667" type="line"/>
			<point x="819.2133333333" y="711.9333333333" type="line"/>
			<point x="946.7733333333" y="852" type="line"/>
			<point x="857.48" y="852" type="line"/>
			<point x="774.1333333333" y="759.7733333333" type="line"/>
			<point x="749.5333333333" y="731.04" type="line"/>
			<point x="240.2" y="166.1733333333" type="line"/>
			<point x="213.9733333333" y="142.3066666667" type="line"/>
		</contour>
		<contour>
			<point x="519.6" y="31.3066666667" type="curve" smooth="yes"/>
			<point x="333.5333333333" y="31.3066666667"/>
			<point x="208.36" y="188.1066666667"/>
			<point x="208.36" y="443.7333333333" type="curve" smooth="yes"/>
			<point x="208.36" y="699.28"/>
			<point x="340.6666666667" y="820.6933333333"/>
			<point x="511.3466666667" y="820.6933333333" type="curve" smooth="yes"/>
			<point x="697.4133333333" y="820.6933333333"/>
			<point x="822.5866666667" y="663.8933333333"/>
			<point x="822.5866666667" y="408.2666666667" type="curve" smooth="yes"/>
			<point x="822.5866666667" y="152.72"/>
			<point x="690.28" y="31.3066666667"/>
		</contour>
		<contour>
			<point x="514.2266666667" y="-20" type="curve" smooth="yes"/>
			<point x="757.84" y="-20"/>
			<point x="935.5733333333" y="161.3466666667"/>
			<point x="935.5733333333" y="435.3733333333" type="curve" smooth="yes"/>
			<point x="935.5733333333" y="698.64"/>
			<point x="759.6933333333" y="872"/>
			<point x="516.72" y="872" type="curve" smooth="yes"/>
			<point x="273.1066666667" y="872"/>
			<point x="95.3733333333" y="690.6533333333"/>
			<point x="95.3733333333" y="416.6266666667" type="curve" smooth="yes"/>
			<point x="95.3733333333" y="153.36"/>
			<point x="271.2533333333" y="-20"/>
		</contour>
	</outline>
	<anchor name="top" x="515.3466666667" y="852"/>
	<anchor name="bottom" x="515.3466666667" y="0"/>
</glyph>
<glyph name="thorn" format="2">
	<unicode hex="00FE"/>
	<advance width="1011.92"/>
	<outline>
		<contour>
			<point x="144.1333333333" y="1275.6533333333" type="curve"/>
			<point x="144.1333333333" y="-447.56" type="line"/>
			<point x="-7.8666666667" y="-481.7733333333" type="line"/>
			<point x="-7.8666666667" y="-510" type="line"/>
			<point x="413.76" y="-510" type="line"/>
			<point x="413.76" y="-481.7733333333" type="line"/>
			<point x="242.5066666667" y="-447.56" type="line"/>
			<point x="242.5066666667" y="70.16" type="line"/>
			<point x="181.0666666667" y="70.16" type="line"/>
			<point x="254.84" y="12.6533333333"/>
			<point x="360.8933333333" y="-20"/>
			<point x="473.8133333333" y="-20" type="curve" smooth="yes"/>
			<point x="704.88" y="-20"/>
			<point x="932.7866666667" y="150.08"/>
			<point x="932.7866666667" y="461.2266666667" type="curve" smooth="yes"/>
			<point x="932.7866666667" y="716.4"/>
			<point x="796.28" y="872"/>
			<point x="541.52" y="872" type="curve" smooth="yes"/>
			<point x="456.28" y="872"/>
			<point x="381.6533333333" y="846.6533333333"/>
			<point x="183.7733333333" y="727.08" type="curve"/>
			<point x="183.7733333333" y="676.1333333333" type="line"/>
			<point x="293.48" y="755.9333333333"/>
			<point x="397.8666666667" y="792.2"/>
			<point x="506.3466666667" y="792.2" type="curve" smooth="yes"/>
			<point x="697.4133333333" y="792.2"/>
			<point x="823.9466666667" y="661.4266666667"/>
			<point x="823.9466666667" y="428.8933333333" type="curve" smooth="yes"/>
			<point x="823.9466666667" y="185.4533333333"/>
			<point x="701.1333333333" y="38.56"/>
			<point x="485.1333333333" y="38.56" type="curve" smooth="yes"/>
			<point x="345.28" y="38.56"/>
			<point x="242.5066666667" y="111.16"/>
			<point x="242.5066666667" y="210.2533333333" type="curve" smooth="yes"/>
			<point x="242.5066666667" y="1289.08" type="line"/>
			<point x="246.24" y="1419" type="line"/>
			<point x="233.76" y="1419" type="line"/>
			<point x="-18.64" y="1359.44" type="line"/>
			<point x="-18.64" y="1343.2" type="line"/>
			<point x="59.36" y="1316.3323809524"/>
			<point x="118.1333333333" y="1292.0758730159"/>
		</contour>
	</outline>
</glyph>
